<svg xmlns="http://www.w3.org/2000/svg" width="28.51" height="41.169" viewBox="0 0 28.51 41.169">
  <g id="History40" transform="translate(-634.631 -329.416)">
    <path id="Subtraction_48" data-name="Subtraction 48" d="M25.342,41.169H3.167C1.421,41.169,0,39.322,0,37.051V8.233C0,5.964,1.421,4.118,3.167,4.118H9.788C10.474,1.655,12.27,0,14.255,0s3.779,1.655,4.467,4.118h6.62c1.747,0,3.168,1.846,3.168,4.116V37.051C28.51,39.322,27.089,41.169,25.342,41.169ZM15.09,20.344a1,1,0,0,0-1,1V37.993a1,1,0,0,0,1,1H25.762a1,1,0,0,0,1-1V21.344a1,1,0,0,0-1-1ZM3,33.153V35.6H13.657V33.153Zm0-4.9V30.7H13.657V28.256Zm0-4.9v2.449H13.657V23.358Zm0-4.9v2.449l11.013.066.427-.466c.3-.144.631-.3.959-.445a21.712,21.712,0,0,1,3.509-.178c.776,0,1.637.011,2.4.021l.23,0h.045l.128,0,.12,0c.793.01,1.613.021,2.361.021.478,0,.886,0,1.247-.014h.819V18.46ZM6.17,9.289a4.505,4.505,0,1,0,4.566,4.5A4.541,4.541,0,0,0,6.17,9.289ZM10.9,13.562v2.449h15.36V13.562Zm3.357-9.445a1.871,1.871,0,0,0-1.584,2.058,1.87,1.87,0,0,0,1.584,2.057,1.87,1.87,0,0,0,1.583-2.057A1.87,1.87,0,0,0,14.255,4.118ZM25.787,37.976H23.837V35.264h1.949v2.712Zm-2.924,0H20.913V35.264h1.949v2.712Zm-2.924,0H17.989V35.264h1.949v2.712Zm-2.924,0H15.065V35.264h1.949v2.712Zm8.772-4.07H23.837V31.194h1.949v2.712Zm-2.924,0H20.913V31.194h1.949v2.712Zm-2.924,0H17.989V31.194h1.949v2.712Zm-2.924,0H15.065V31.194h1.949v2.712Zm8.772-4.069H23.837V27.125h1.949v2.712Zm-2.924,0H20.913V27.125h1.949v2.712Zm-2.924,0H17.989V27.125h1.949v2.712Zm-2.924,0H15.065V27.125h1.949v2.712Zm8.772-4.068H15.065V21.7H25.787v4.068Zm-2.357-.916a.037.037,0,0,0-.025.01.036.036,0,0,0-.011.026v.068a.494.494,0,0,0,.159.382.585.585,0,0,0,.411.146.624.624,0,0,0,.427-.146.494.494,0,0,0,.163-.388l0-.945a.729.729,0,0,0-.048-.279.008.008,0,0,1,0-.008.014.014,0,0,0,0-.006.513.513,0,0,0-.2-.277.606.606,0,0,0-.348-.1.618.618,0,0,0-.354.1.476.476,0,0,0-.192.279.849.849,0,0,0-.054.3.759.759,0,0,0,.072.339.486.486,0,0,0,.178.248.5.5,0,0,0,.3.09.383.383,0,0,0,.282-.108.011.011,0,0,1,.008,0c.007,0,.01.007.01.013v.324a.261.261,0,0,1-.068.188.229.229,0,0,1-.172.07.2.2,0,0,1-.159-.07.258.258,0,0,1-.063-.182v-.039a.035.035,0,0,0-.036-.036Zm-2.2,0a.035.035,0,0,0-.025.01.036.036,0,0,0-.011.026v.068a.494.494,0,0,0,.159.382.581.581,0,0,0,.41.146.621.621,0,0,0,.427-.146.5.5,0,0,0,.164-.388l0-.945a.727.727,0,0,0-.049-.279.012.012,0,0,1,0-.008.014.014,0,0,0,0-.006.524.524,0,0,0-.2-.277.693.693,0,0,0-.7,0,.481.481,0,0,0-.193.279.849.849,0,0,0-.054.3.77.77,0,0,0,.072.339.486.486,0,0,0,.179.248.494.494,0,0,0,.3.09.383.383,0,0,0,.282-.108.008.008,0,0,1,.007,0,.013.013,0,0,1,.011.013v.324a.261.261,0,0,1-.068.188.23.23,0,0,1-.173.07.2.2,0,0,1-.158-.07.258.258,0,0,1-.063-.182v-.039a.035.035,0,0,0-.036-.036Zm-1.425,0a.038.038,0,0,0-.026.01.033.033,0,0,0-.01.026v.068a.493.493,0,0,0,.158.382.585.585,0,0,0,.411.146.621.621,0,0,0,.427-.146.5.5,0,0,0,.164-.388l0-.945a.729.729,0,0,0-.048-.279.012.012,0,0,1,0-.008.011.011,0,0,0,0-.007.512.512,0,0,0-.2-.276.607.607,0,0,0-.347-.1.624.624,0,0,0-.355.1.484.484,0,0,0-.192.279.849.849,0,0,0-.054.3.77.77,0,0,0,.072.339.486.486,0,0,0,.178.248.5.5,0,0,0,.3.09.384.384,0,0,0,.283-.108.008.008,0,0,1,.007,0c.008,0,.011.007.011.013v.324a.261.261,0,0,1-.067.188.23.23,0,0,1-.173.07.2.2,0,0,1-.159-.07.265.265,0,0,1-.063-.182v-.039a.039.039,0,0,0-.01-.026.043.043,0,0,0-.026-.01Zm3.065.153a.226.226,0,0,0-.163.068.208.208,0,0,0-.071.16.231.231,0,0,0,.234.231.231.231,0,0,0,.234-.231.219.219,0,0,0-.07-.16A.23.23,0,0,0,22.872,25.007Zm1.084-.6a.213.213,0,0,1-.216-.158.64.64,0,0,1-.036-.222.721.721,0,0,1,.027-.2.23.23,0,0,1,.45-.006.777.777,0,0,1,.023.2.734.734,0,0,1-.03.225A.217.217,0,0,1,23.955,24.409Zm-2.2,0a.213.213,0,0,1-.216-.158.663.663,0,0,1-.036-.222.721.721,0,0,1,.027-.2.23.23,0,0,1,.45-.006.763.763,0,0,1,.024.2.734.734,0,0,1-.03.225A.219.219,0,0,1,21.756,24.409Zm-1.425,0a.213.213,0,0,1-.216-.158.64.64,0,0,1-.036-.222.721.721,0,0,1,.027-.2.23.23,0,0,1,.45-.006.763.763,0,0,1,.024.2.721.721,0,0,1-.031.225A.217.217,0,0,1,20.331,24.409ZM6.814,17.4H5.6v-.869A1.669,1.669,0,0,1,4.1,15H5c.037.385.277.842,1.21.842.808,0,1.1-.37,1.1-.716s-.145-.712-1.219-.964c-1.3-.312-1.909-.837-1.909-1.653A1.582,1.582,0,0,1,5.6,11.059V10.19H6.814v.878a1.607,1.607,0,0,1,1.3,1.527H7.221c-.027-.567-.358-.842-1.013-.842s-1.1.29-1.1.739c0,.4.342.637,1.22.86.943.24,1.908.636,1.908,1.761,0,.735-.523,1.254-1.425,1.424V17.4Z" transform="translate(634.631 329.416)" fill="#204911"/>
  </g>
</svg>
