<svg xmlns="http://www.w3.org/2000/svg" width="39.393" height="39.861" viewBox="0 0 39.393 39.861">
  <g id="Bilology" transform="translate(-5.303 -493.57)">
    <g id="Subtraction_42" data-name="Subtraction 42" transform="translate(5.303 493.57)" fill="none">
      <path d="M18.521,39.861h-.187a18.622,18.622,0,0,1-7.548-1.638A18.03,18.03,0,0,1,4.843,33.9a18.37,18.37,0,0,1-3.769-6.341A19.478,19.478,0,0,1,.042,19.846a20.863,20.863,0,0,1,2.014-7.7,21.581,21.581,0,0,1,4.559-6.29A21.2,21.2,0,0,1,13.073,1.6,19.978,19.978,0,0,1,20.785,0H20.9a18.616,18.616,0,0,1,7.45,1.523,18.011,18.011,0,0,1,6.029,4.247,18.375,18.375,0,0,1,3.879,6.345,19.491,19.491,0,0,1,1.1,7.8,20.8,20.8,0,0,1-2.029,7.812A21.641,21.641,0,0,1,32.682,34.1a21.221,21.221,0,0,1-6.566,4.255A19.934,19.934,0,0,1,18.521,39.861Zm1.336-10.232c-.029,0-.058,0-.088,0a1.191,1.191,0,0,0-.455.124,1.2,1.2,0,0,0-.388.3,1.277,1.277,0,0,0-.176,1.378,1.241,1.241,0,0,0,.3.4l4.114,3.658a1.255,1.255,0,0,0,.427.249,1.178,1.178,0,0,0,.381.063c.027,0,.055,0,.084,0a1.206,1.206,0,0,0,.46-.122,1.229,1.229,0,0,0,.389-.3,1.242,1.242,0,0,0,.241-.435,1.258,1.258,0,0,0,.057-.477,1.274,1.274,0,0,0-.122-.468,1.235,1.235,0,0,0-.3-.4l-4.117-3.66a1.3,1.3,0,0,0-.425-.248A1.221,1.221,0,0,0,19.857,29.629ZM8.475,23.317a.825.825,0,0,0-.169.016.843.843,0,0,0-.323.136.884.884,0,0,0-.238.242.951.951,0,0,0-.13.316.894.894,0,0,0,0,.355L8.84,30.845a.884.884,0,0,0,.134.331.882.882,0,0,0,.546.376.824.824,0,0,0,.182.02.863.863,0,0,0,.167-.017.824.824,0,0,0,.321-.135.854.854,0,0,0,.238-.243.888.888,0,0,0,.132-.314.965.965,0,0,0,0-.358L9.334,24.042a.933.933,0,0,0-.134-.329.885.885,0,0,0-.238-.243.819.819,0,0,0-.308-.133A.8.8,0,0,0,8.475,23.317Zm25.518-4.1a1.924,1.924,0,0,0-.645.111,1.971,1.971,0,0,0-.678.408l-4.2,3.85a2.057,2.057,0,0,0-.546,2.165,2.012,2.012,0,0,0,.4.693,1.961,1.961,0,0,0,1.369.668c.033,0,.069,0,.1,0a1.945,1.945,0,0,0,1.328-.518l4.2-3.85a2.024,2.024,0,0,0,.47-.644,2.075,2.075,0,0,0,.078-1.523,2,2,0,0,0-.4-.692,1.96,1.96,0,0,0-1.373-.666C34.066,19.214,34.029,19.213,33.993,19.213ZM22.265,16.118a1.343,1.343,0,0,0-.185.013l-6.841.986a1.3,1.3,0,0,0-.492.177,1.36,1.36,0,0,0-.452,1.842,1.306,1.306,0,0,0,.79.609,1.247,1.247,0,0,0,.336.044,1.4,1.4,0,0,0,.184-.012l6.841-.982a1.3,1.3,0,0,0,.494-.177,1.329,1.329,0,0,0,.375-.345,1.343,1.343,0,0,0,.223-.465,1.374,1.374,0,0,0,.03-.533,1.314,1.314,0,0,0-.174-.5,1.331,1.331,0,0,0-.792-.609A1.332,1.332,0,0,0,22.265,16.118ZM18.318,7.4c-.028,0-.056,0-.083,0a1,1,0,0,0-.375.116L9.151,12.263a.962.962,0,0,0-.3.254,1,1,0,0,0-.178.34,1.08,1.08,0,0,0-.039.384,1.048,1.048,0,0,0,.111.384,1.024,1.024,0,0,0,.249.308.964.964,0,0,0,.626.227l.042,0H9.68l.022,0a.97.97,0,0,0,.373-.117L18.787,9.3a1.028,1.028,0,0,0,.522-.983,1.044,1.044,0,0,0-.113-.384.977.977,0,0,0-.249-.308.963.963,0,0,0-.334-.182A1,1,0,0,0,18.318,7.4Zm8.32.4c-.023,0-.045,0-.068,0a1.017,1.017,0,0,0-.367.1,1,1,0,0,0-.312.245,1.03,1.03,0,0,0-.2.349,1.015,1.015,0,0,0,.294,1.077l4.49,3.976a.97.97,0,0,0,.342.2,1.029,1.029,0,0,0,.308.048c.022,0,.047,0,.069,0a.978.978,0,0,0,.368-.1,1.027,1.027,0,0,0,.312-.246.969.969,0,0,0,.195-.351.99.99,0,0,0,.046-.384,1.015,1.015,0,0,0-.338-.692L27.288,8.05a.987.987,0,0,0-.342-.2A1.017,1.017,0,0,0,26.638,7.8Z" stroke="none"/>
      <path d="M 18.50692749023438 38.86124038696289 C 18.51148986816406 38.86124038696289 18.51605987548828 38.86124038696289 18.5206184387207 38.86124038696289 C 20.98526954650879 38.86124038696289 23.41297912597656 38.37821960449219 25.73670959472656 37.42543029785156 C 28.0450496673584 36.48011016845703 30.15036964416504 35.11563873291016 31.99355888366699 33.37049102783203 C 33.84534072875977 31.61421012878418 35.33675765991211 29.57115936279297 36.42658996582031 27.29771041870117 C 37.55643081665039 24.94345092773438 38.20642852783203 22.44083023071289 38.35855102539063 19.8593692779541 C 38.51012802124023 17.2868709564209 38.15885925292969 14.79530048370361 37.31486892700195 12.45487976074219 C 36.49956893920898 10.20160007476807 35.26517868041992 8.182169914245605 33.64579010009766 6.452470302581787 C 32.03261947631836 4.728400230407715 30.11615943908691 3.378480195999146 27.9493293762207 2.440070152282715 C 25.74503898620605 1.484510183334351 23.37215995788574 1.000000238418579 20.89660835266113 1.000000238418579 L 20.7890510559082 1.000000238418579 C 18.27396011352539 1.013719320297241 15.80910587310791 1.523812651634216 13.46181869506836 2.516610145568848 C 11.19026947021484 3.47393012046814 9.119719505310059 4.840450286865234 7.307309150695801 6.578570365905762 C 5.4951491355896 8.314650535583496 4.031898975372314 10.33300971984863 2.958329200744629 12.57732009887695 C 1.848129153251648 14.90009021759033 1.202839136123657 17.36697006225586 1.040359139442444 19.90949058532715 C 0.8778891563415527 22.44988059997559 1.206609129905701 24.91329956054688 2.017439126968384 27.2314510345459 C 2.801509141921997 29.47410011291504 4.000929355621338 31.49221038818359 5.582179069519043 33.22946929931641 C 7.16978931427002 34.97264862060547 9.058639526367188 36.34590911865234 11.19619941711426 37.31108856201172 C 13.42427921295166 38.31694030761719 15.82844924926758 38.83816146850586 18.34192848205566 38.86027145385742 L 18.34930992126465 38.86035919189453 C 18.40176963806152 38.8612060546875 18.45442581176758 38.86124038696289 18.50692749023438 38.86124038696289 M 18.8713493347168 28.85934257507324 C 19.12985992431641 28.73036766052246 19.40846061706543 28.65463638305664 19.69995880126953 28.63422012329102 C 19.98757553100586 28.61419105529785 20.27699279785156 28.64968299865723 20.5490894317627 28.73884010314941 L 20.56365966796875 28.74373054504395 C 20.83770942687988 28.83821105957031 21.09107971191406 28.9849796295166 21.31674003601074 29.17995071411133 L 21.3273983001709 29.18930053710938 L 25.44082832336426 32.84653854370117 C 25.66569900512695 33.04457855224609 25.84663963317871 33.2843017578125 25.97841835021973 33.55860900878906 C 26.10380935668945 33.81929016113281 26.17743873596191 34.09991073608398 26.19694900512695 34.38827896118164 C 26.21772766113281 34.67636871337891 26.18385314941406 34.96191024780273 26.09626007080078 35.23711776733398 C 26.00867652893066 35.51892471313477 25.8638973236084 35.78103637695313 25.66587829589844 36.01622009277344 L 25.65963935852051 36.0235595703125 C 25.46060943603516 36.25537109375 25.22373962402344 36.44015884399414 24.9554500579834 36.57286834716797 C 24.6949634552002 36.70166015625 24.41396141052246 36.77684783935547 24.12016677856445 36.79636383056641 L 24.11044883728027 36.79708099365234 C 24.07743835449219 36.79954147338867 24.02754974365234 36.80324935913086 23.9680290222168 36.80324935913086 C 23.72826957702637 36.80324935913086 23.49136924743652 36.76388168334961 23.26309967041016 36.68595123291016 C 22.98007965087891 36.58906936645508 22.72241973876953 36.43894195556641 22.49541854858398 36.23807144165039 L 18.38458824157715 32.58224868774414 C 18.16072845458984 32.38468170166016 17.9802188873291 32.14501190185547 17.84833908081055 31.87046051025391 C 17.72293853759766 31.60983085632324 17.64908981323242 31.33036041259766 17.62876892089844 31.03887939453125 C 17.6088695526123 30.7495002746582 17.64352989196777 30.46285057067871 17.73322868347168 30.18239974975586 C 17.82490921020508 29.90030097961426 17.96916007995605 29.64166069030762 18.16195869445801 29.41366004943848 L 18.1674690246582 29.40719985961914 C 18.36853408813477 29.17348289489746 18.60532379150391 28.98918533325195 18.8713493347168 28.85934257507324 M 9.302005767822266 32.52814102172852 C 9.063801765441895 32.4754524230957 8.84276294708252 32.37936401367188 8.644896507263184 32.24248504638672 C 8.443691253662109 32.10523223876953 8.273702621459961 31.9321460723877 8.139492034912109 31.72783851623535 C 8.000641822814941 31.51987648010254 7.90285062789917 31.27818489074707 7.85645580291748 31.02817916870117 L 6.629069328308105 24.56857109069824 C 6.581679344177246 24.31845092773438 6.584389209747314 24.06621932983398 6.636848926544189 23.82018089294434 C 6.685559272766113 23.59020042419434 6.77471923828125 23.37261009216309 6.901829242706299 23.17344093322754 L 6.909099102020264 23.16221046447754 C 7.042689323425293 22.95894050598145 7.213088989257813 22.78512954711914 7.412629127502441 22.64761924743652 C 7.622967720031738 22.50156211853027 7.857294082641602 22.40234375 8.109228134155273 22.35265922546387 C 8.345706939697266 22.30426406860352 8.614974975585938 22.3040657043457 8.863029479980469 22.3587589263916 C 9.101293563842773 22.40828323364258 9.32585620880127 22.50541877746582 9.530695915222168 22.6475715637207 C 9.727436065673828 22.78274154663086 9.901739120483398 22.96105575561523 10.03508949279785 23.16362953186035 L 10.03824901580811 23.16846084594727 C 10.1731595993042 23.37602043151855 10.2660493850708 23.60433959960938 10.3143196105957 23.84708023071289 L 10.31593894958496 23.85544967651367 L 11.5455493927002 30.32687950134277 C 11.5893087387085 30.56908988952637 11.58790874481201 30.8134708404541 11.54138946533203 31.05323028564453 L 11.53811931610107 31.06937026977539 C 11.48805332183838 31.30642890930176 11.39187908172607 31.53516960144043 11.25977897644043 31.73149681091309 C 11.12323379516602 31.93819618225098 10.95269870758057 32.11151123046875 10.75270748138428 32.24684143066406 C 10.53819179534912 32.39380264282227 10.30362796783447 32.49172210693359 10.05526161193848 32.53800582885742 C 9.803359031677246 32.58681869506836 9.54660701751709 32.58303070068359 9.302005767822266 32.52814102172852 M 27.57714080810547 27.09942436218262 C 27.31021499633789 26.79715919494629 27.10928344726563 26.44986343383789 26.9801197052002 26.06781005859375 C 26.85569000244141 25.70076942443848 26.8027286529541 25.31764030456543 26.82267951965332 24.92947959899902 C 26.84273910522461 24.53606033325195 26.93538856506348 24.15864944458008 27.09685897827148 23.81028938293457 C 27.26479911804199 23.44526100158691 27.49914932250977 23.12179946899414 27.79338836669922 22.84889984130859 L 27.79740905761719 22.84519958496094 L 31.99090003967285 18.998291015625 C 32.28308868408203 18.72775077819824 32.62601852416992 18.52062034606934 33.01396942138672 18.38128089904785 C 33.32939910888672 18.2694206237793 33.65884017944336 18.21269989013672 33.99313735961914 18.21269989013672 C 34.05138778686523 18.21269989013672 34.10802459716797 18.2144775390625 34.16168212890625 18.21797180175781 C 34.54280090332031 18.23827362060547 34.92662811279297 18.3359432220459 35.27109909057617 18.50012016296387 C 35.63459777832031 18.67276954650879 35.95568084716797 18.91534996032715 36.22369003295898 19.21912956237793 C 36.49263000488281 19.5223503112793 36.69474792480469 19.8709602355957 36.82489013671875 20.25662040710449 C 36.95048522949219 20.63055801391602 37.0031623840332 21.01482582092285 36.98147583007813 21.39878463745117 C 36.96105575561523 21.7881965637207 36.86906051635742 22.16369819641113 36.70652008056641 22.51816940307617 C 36.53707885742188 22.88420104980469 36.30117034912109 23.20745086669922 36.00481796264648 23.47941970825195 L 31.8062686920166 27.32728958129883 C 31.50783920288086 27.60256958007813 31.16311836242676 27.8100700378418 30.78131866455078 27.94416046142578 C 30.46745872497559 28.05426025390625 30.13731002807617 28.11008071899414 29.80005836486816 28.11008071899414 C 29.75832939147949 28.11008071899414 29.70117950439453 28.11008071899414 29.64085006713867 28.1064395904541 C 29.25123977661133 28.08419990539551 28.87691879272461 27.98825073242188 28.52920913696289 27.82170104980469 C 28.16450119018555 27.64747047424316 27.84417724609375 27.40445137023926 27.57714080810547 27.09942436218262 M 13.43384838104248 19.6430549621582 C 13.2773380279541 19.37892913818359 13.17554187774658 19.08700752258301 13.13122940063477 18.77523040771484 L 13.13000869750977 18.7663402557373 C 13.08834743499756 18.45304298400879 13.10726737976074 18.14400291442871 13.1862678527832 17.84768486022949 C 13.2630500793457 17.55475234985352 13.39101314544678 17.28516578674316 13.56662940979004 17.04640007019043 L 13.56987953186035 17.04199981689453 C 13.74891948699951 16.80136108398438 13.96828937530518 16.59989929199219 14.22191905975342 16.44324111938477 L 14.22715950012207 16.44001960754395 C 14.49390888214111 16.27750968933105 14.78658962249756 16.17243957519531 15.09690952301025 16.12775039672852 L 21.94226837158203 15.14059066772461 C 22.24112319946289 15.09898662567139 22.55316162109375 15.1161937713623 22.85631942749023 15.19571971893311 L 22.86274909973145 15.19743061065674 C 23.1502742767334 15.27491569519043 23.42762565612793 15.41275691986084 23.6651554107666 15.59618663787842 C 23.90516471862793 15.77927589416504 24.10392189025879 16.00426292419434 24.25604438781738 16.26503753662109 C 24.4160041809082 16.53574562072754 24.51796913146973 16.82984352111816 24.55915451049805 17.13929176330566 C 24.60185050964355 17.44307708740234 24.58382987976074 17.76075172424316 24.50657844543457 18.05989074707031 C 24.43086814880371 18.35117721557617 24.30143737792969 18.62201499938965 24.12187194824219 18.86495590209961 C 23.94615936279297 19.10468673706055 23.72605514526367 19.30746841430664 23.46401977539063 19.46994018554688 C 23.1998291015625 19.63216018676758 22.90635871887207 19.73786926269531 22.58842849731445 19.78462028503418 L 15.73776912689209 20.7684497833252 C 15.63351917266846 20.78232955932617 15.52721881866455 20.78936958312988 15.42179870605469 20.78936958312988 C 15.21166896820068 20.78936958312988 15.01452922821045 20.76312065124512 14.81826877593994 20.70890998840332 C 14.53308868408203 20.62985992431641 14.26765918731689 20.49846076965332 14.02933883666992 20.318359375 L 14.01770877838135 20.30944061279297 C 13.7802209854126 20.12443542480469 13.58380222320557 19.90023803710938 13.43384838104248 19.6430549621582 M 8.065539360046387 11.89516830444336 C 8.232386589050293 11.68415927886963 8.437241554260254 11.51229572296143 8.674595832824707 11.38420009613037 L 17.38484954833984 6.636800289154053 C 17.61801910400391 6.511070251464844 17.86954879760742 6.433619976043701 18.1324291229248 6.406599998474121 L 18.16213989257813 6.403990268707275 C 18.19863891601563 6.401340007781982 18.25452995300293 6.397809982299805 18.31815910339355 6.397809982299805 C 18.5146598815918 6.397809982299805 18.71204948425293 6.427750110626221 18.9058895111084 6.487130165100098 C 19.1535587310791 6.563291072845459 19.38082313537598 6.686140537261963 19.58147811889648 6.852313041687012 C 19.78555488586426 7.01917552947998 19.9583911895752 7.232629776000977 20.08174324035645 7.470151901245117 C 20.20159530639648 7.698466777801514 20.27611351013184 7.949194431304932 20.3032398223877 8.215479850769043 L 20.30558967590332 8.242040634155273 C 20.32452964782715 8.494580268859863 20.29792976379395 8.744720458984375 20.22653961181641 8.985520362854004 L 20.22503852844238 8.99055004119873 C 20.15199851989746 9.232239723205566 20.03687858581543 9.456060409545898 19.88286972045898 9.655779838562012 L 19.86399841308594 9.679510116577148 C 19.69878005981445 9.880849838256836 19.49997901916504 10.04701042175293 19.27313995361328 10.17337036132813 L 19.26447868347168 10.17813014984131 L 10.55573463439941 14.91707324981689 C 10.32256698608398 15.04574394226074 10.0697193145752 15.12486553192139 9.804099082946777 15.15229034423828 L 9.702016830444336 15.15885543823242 C 9.474213600158691 15.1710729598999 9.249758720397949 15.139817237854 9.032229423522949 15.0733699798584 L 9.017159461975098 15.06863975524902 C 8.774619102478027 14.99034023284912 8.551738739013672 14.86807060241699 8.354719161987305 14.70524024963379 L 8.347699165344238 14.69939041137695 C 8.144699096679688 14.52847003936768 7.979789257049561 14.32394027709961 7.85754919052124 14.09148979187012 L 7.85283899307251 14.08242034912109 C 7.732449054718018 13.84770011901855 7.657089233398438 13.58662033081055 7.634909152984619 13.32758045196533 C 7.613909244537354 13.08277034759521 7.63948917388916 12.82516002655029 7.708899021148682 12.58258056640625 L 7.712429046630859 12.57052993774414 C 7.786506652832031 12.32339859008789 7.905303478240967 12.09619235992432 8.065539360046387 11.89516830444336 M 29.81499290466309 14.30058288574219 L 25.3293628692627 10.32876491546631 C 25.13175582885742 10.15579795837402 24.97091484069824 9.945337295532227 24.85125923156738 9.703140258789063 L 24.84298896789551 9.685999870300293 C 24.73388481140137 9.454139709472656 24.67021942138672 9.209047317504883 24.65368461608887 8.957296371459961 C 24.63434028625488 8.710108757019043 24.66442108154297 8.449972152709961 24.74088859558105 8.20404052734375 L 24.74528884887695 8.190250396728516 C 24.82755088806152 7.938586711883545 24.96078872680664 7.700875282287598 25.13070869445801 7.502577781677246 C 25.30215644836426 7.300694465637207 25.5104923248291 7.136670112609863 25.75001907348633 7.014980316162109 L 25.75827980041504 7.010830402374268 C 25.98460006713867 6.898470401763916 26.22867965698242 6.830320358276367 26.48372840881348 6.808279991149902 L 26.5026683807373 6.806830406188965 C 26.53400993347168 6.804720401763916 26.58136940002441 6.801530361175537 26.63781929016113 6.801530361175537 C 26.84206008911133 6.801530361175537 27.04793930053711 6.834110260009766 27.2497386932373 6.898370265960693 L 27.26415824890137 6.903079986572266 C 27.51652717590332 6.987677097320557 27.75439643859863 7.125585079193115 27.95229339599609 7.30199670791626 L 32.44743728637695 11.27865028381348 C 32.6450309753418 11.45465660095215 32.80917358398438 11.67223930358887 32.92236709594727 11.90812492370605 C 33.03336715698242 12.13708782196045 33.09905624389648 12.38511562347412 33.11762619018555 12.6453857421875 C 33.13665771484375 12.9019603729248 33.10513687133789 13.16479873657227 33.02640914916992 13.40650272369385 C 32.9457893371582 13.66422462463379 32.81450271606445 13.89965057373047 32.63766098022461 14.1045503616333 C 32.46537017822266 14.30520057678223 32.25848007202148 14.46819972991943 32.02272796630859 14.58901977539063 L 32.01218032836914 14.59434986114502 C 31.77978897094727 14.71000003814697 31.52993965148926 14.77801036834717 31.26747894287109 14.79664039611816 C 31.21109962463379 14.8005199432373 31.16229820251465 14.8005199432373 31.13000869750977 14.8005199432373 C 30.92490005493164 14.8005199432373 30.72057914733887 14.76908016204834 30.52272987365723 14.70707988739014 L 30.50514984130859 14.70139980316162 C 30.24939727783203 14.61602687835693 30.0172061920166 14.48118019104004 29.81499290466309 14.30058288574219 M 18.5206184387207 39.86124038696289 C 18.45819854736328 39.86124038696289 18.39553833007813 39.86124038696289 18.3331298828125 39.8602294921875 C 15.68007946014404 39.83689117431641 13.1406888961792 39.28609085083008 10.78473949432373 38.22251892089844 C 8.521389007568359 37.20053863525391 6.522408962249756 35.74695205688477 4.842849254608154 33.9028205871582 C 3.169879198074341 32.06478118896484 1.90208911895752 29.93156051635742 1.073469161987305 27.56147956848145 C 0.2182191610336304 25.11634063720703 -0.1286108493804932 22.51955032348633 0.04239915311336517 19.84565925598145 C 0.2131391614675522 17.1738109588623 0.8907991647720337 14.58411979675293 2.056089162826538 12.14608001708984 C 3.182059049606323 9.792230606079102 4.715989112854004 7.676249980926514 6.615519046783447 5.856470108032227 C 8.517839431762695 4.032130241394043 10.69060897827148 2.599330186843872 13.07345962524414 1.595100164413452 C 15.54129886627197 0.5513101816177368 18.13598823547363 0.01420019380748272 20.78549003601074 1.934814406467922e-07 L 20.89660835266113 1.934814406467922e-07 C 23.50956916809082 1.934814406467922e-07 26.0164794921875 0.5122601985931396 28.34706878662109 1.522570252418518 C 30.64009857177734 2.515640258789063 32.66851043701172 3.944380283355713 34.3759880065918 5.769240379333496 C 36.0882682800293 7.598150253295898 37.39360809326172 9.733400344848633 38.25521087646484 12.11464023590088 C 39.1457405090332 14.58411979675293 39.51639938354492 17.20981979370117 39.35681915283203 19.91819000244141 C 39.19697952270508 22.6306209564209 38.51424789428711 25.25885963439941 37.32814788818359 27.73036956787109 C 36.18518829345703 30.11465072631836 34.62182998657227 32.25598907470703 32.68170928955078 34.09606170654297 C 30.74843978881836 35.92649078369141 28.53937911987305 37.35828018188477 26.11568832397461 38.3508415222168 C 23.67143821716309 39.3530387878418 21.11581993103027 39.86124038696289 18.5206184387207 39.86124038696289 Z M 19.85690879821777 29.62877082824707 C 19.82747840881348 29.62877082824707 19.79854965209961 29.62977981567383 19.76937866210938 29.63181114196777 C 19.61004829406738 29.64297103881836 19.45705986022949 29.68404960632324 19.31396865844727 29.75607109069824 C 19.1680793762207 29.82657051086426 19.03767967224121 29.92901992797852 18.92553901672363 30.05937004089355 C 18.81745910644531 30.18717956542969 18.73601913452148 30.33222961425781 18.68425941467285 30.49148941040039 C 18.63478851318359 30.64618110656738 18.61524963378906 30.80797958374023 18.62640953063965 30.97027969360352 C 18.6378288269043 31.13409042358398 18.67917823791504 31.29082107543945 18.74945831298828 31.4368896484375 C 18.82278823852539 31.58955001831055 18.92274856567383 31.72344970703125 19.04629898071289 31.83249092102051 L 23.15995979309082 35.49082183837891 C 23.28605842590332 35.60240173339844 23.42990875244141 35.68608856201172 23.58695983886719 35.73984909057617 C 23.71025848388672 35.78194046020508 23.83863830566406 35.80324935913086 23.9680290222168 35.80324935913086 C 23.99542999267578 35.80324935913086 24.02333831787109 35.80070877075195 24.05200958251953 35.79867935180664 C 24.21589851379395 35.78802871704102 24.36964988708496 35.74695205688477 24.51223945617676 35.67644882202148 C 24.65989875793457 35.60340881347656 24.79030990600586 35.50096893310547 24.90091896057129 35.37213897705078 C 25.01280975341797 35.23925018310547 25.0942497253418 35.09318923950195 25.14219856262207 34.93748092651367 C 25.19192886352539 34.78279113769531 25.21120834350586 34.62200927734375 25.19953918457031 34.46022033691406 C 25.18837928771973 34.29537963867188 25.14726829528809 34.13764953613281 25.07724952697754 33.99208068847656 C 25.00366973876953 33.83892059326172 24.90370941162109 33.70603179931641 24.77989959716797 33.59698867797852 L 20.66294860839844 29.93663024902344 C 20.53380966186523 29.82505035400391 20.39070892333984 29.74187088012695 20.23773002624512 29.68913078308105 C 20.11695861816406 29.64956092834473 19.98884010314941 29.62877082824707 19.85690879821777 29.62877082824707 Z M 8.475218772888184 23.31684112548828 C 8.416358947753906 23.31684112548828 8.359269142150879 23.32192039489746 8.306249618530273 23.33307075500488 C 8.188018798828125 23.35589981079102 8.079429626464844 23.40205001831055 7.983019351959229 23.4689998626709 C 7.886609077453613 23.53544044494629 7.80643892288208 23.61761093139648 7.744779109954834 23.71142959594727 C 7.682629108428955 23.80880928039551 7.638988971710205 23.91481971740723 7.615139007568359 24.02741050720215 C 7.590269088745117 24.1440601348877 7.589009284973145 24.26325035095215 7.611588954925537 24.3824405670166 L 8.839539527893066 30.84499931335449 C 8.861359596252441 30.96317100524902 8.907539367675781 31.07830047607422 8.973249435424805 31.17568016052246 C 9.035658836364746 31.27153968811035 9.115829467773438 31.35371017456055 9.210979461669922 31.41811943054199 C 9.302558898925781 31.48201942443848 9.406079292297363 31.52716064453125 9.519228935241699 31.55202102661133 C 9.636465072631836 31.57859420776367 9.757674217224121 31.57752990722656 9.868589401245117 31.55557060241699 C 9.980218887329102 31.53528022766113 10.0885591506958 31.49014091491699 10.19003868103027 31.42015075683594 C 10.28289890289307 31.35775947570801 10.36306953430176 31.27560043334961 10.42776870727539 31.17670059204102 C 10.48992919921875 31.08541107177734 10.53559875488281 30.97686958312988 10.55969905853271 30.86275100708008 C 10.58252906799316 30.74509048461914 10.58328914642334 30.62539100646973 10.56147956848145 30.50468063354492 L 9.333518981933594 24.0421199798584 C 9.309919357299805 23.92344093322754 9.264759063720703 23.81337928771973 9.199809074401855 23.71346092224121 C 9.136379241943359 23.61709976196289 9.054179191589355 23.53290939331055 8.96182918548584 23.47001075744629 C 8.866438865661621 23.4035701751709 8.762669563293457 23.35843086242676 8.653569221496582 23.33662033081055 C 8.595978736877441 23.32344055175781 8.535849571228027 23.31684112548828 8.475218772888184 23.31684112548828 Z M 33.99313735961914 19.21269989013672 C 33.77392959594727 19.21269989013672 33.55701065063477 19.24971961975098 33.34819793701172 19.32377052307129 C 33.0911979675293 19.41608047485352 32.86310958862305 19.55352973937988 32.6702880859375 19.73205947875977 L 28.47340965270996 23.58209991455078 C 28.27653884887695 23.76469039916992 28.11872863769531 23.98176002502441 28.00531959533691 24.2282600402832 C 27.8964786529541 24.46307945251465 27.83482933044434 24.7166805267334 27.82137870788574 24.98040962219238 C 27.80792999267578 25.24212074279785 27.84344863891602 25.49977111816406 27.92717933654785 25.74677085876465 C 28.01394844055176 26.00341033935547 28.1489200592041 26.23670959472656 28.32854843139648 26.4395809173584 C 28.50588989257813 26.64245986938477 28.71823883056641 26.80375099182129 28.96027946472168 26.91938018798828 C 29.19217872619629 27.03046035766602 29.44004821777344 27.09334945678711 29.69781875610352 27.10806083679199 C 29.73130989074707 27.11008071899414 29.76657867431641 27.11008071899414 29.80005836486816 27.11008071899414 C 30.02459907531738 27.11008071899414 30.24354934692383 27.07306098937988 30.45031929016113 27.00053024291992 C 30.7030200958252 26.91177940368652 30.93084907531738 26.77433013916016 31.12823867797852 26.59225082397461 L 35.32917022705078 22.74220085144043 C 35.52756881713867 22.56011962890625 35.68563842773438 22.34305000305176 35.79903793334961 22.09807968139648 C 35.90787887573242 21.86071014404297 35.96953964233398 21.60610961914063 35.98297882080078 21.34389114379883 C 35.99769973754883 21.08675003051758 35.96192932128906 20.82808113098145 35.87693023681641 20.57500076293945 C 35.79066848754883 20.31937980651855 35.65594863891602 20.0860710144043 35.47555923461914 19.8826904296875 C 35.29568099975586 19.67880058288574 35.08230972290039 19.51752090454102 34.84204864501953 19.40340042114258 C 34.61219024658203 19.29384994506836 34.35644912719727 19.22892951965332 34.10247802734375 19.21624946594238 C 34.06620025634766 19.21371078491211 34.0294075012207 19.21269989013672 33.99313735961914 19.21269989013672 Z M 22.26486968994141 16.11836051940918 C 22.20423889160156 16.11836051940918 22.1420783996582 16.1224193572998 22.08016967773438 16.13104057312012 L 15.23963928222656 17.11750984191895 C 15.06355953216553 17.14286994934082 14.89813899993896 17.20220947265625 14.74743938446045 17.29401969909668 C 14.60129928588867 17.38429069519043 14.47520923614502 17.50044059753418 14.37219905853271 17.63890075683594 C 14.27147960662842 17.77584075927734 14.1976490020752 17.93205070495605 14.15299892425537 18.10347938537598 C 14.10757923126221 18.27288055419922 14.0969295501709 18.4514102935791 14.12127876281738 18.6345100402832 C 14.14715957641602 18.81658935546875 14.20576953887939 18.98497009277344 14.29583930969238 19.13611030578613 C 14.38133907318115 19.28370094299316 14.49423885345459 19.41304016113281 14.63225936889648 19.52055931091309 C 14.76849937438965 19.62351989746094 14.92071914672852 19.69960021972656 15.0853796005249 19.7452392578125 C 15.19371891021729 19.77516937255859 15.30382919311523 19.78936958312988 15.42179870605469 19.78936958312988 C 15.48319911956787 19.78936958312988 15.54484939575195 19.78531074523926 15.60573959350586 19.77720069885254 L 22.44626998901367 18.79478073120117 C 22.62564849853516 18.76840019226074 22.79207992553711 18.70906066894531 22.94074821472168 18.61776924133301 C 23.0904483795166 18.52495002746582 23.21653938293457 18.40880966186523 23.31598854064941 18.27288055419922 C 23.42026901245117 18.13239097595215 23.49510955810547 17.97618103027344 23.53874969482422 17.80830001831055 C 23.58340835571289 17.63534927368164 23.59354972839355 17.45072937011719 23.56842994689941 17.27524948120117 C 23.54534912109375 17.09773063659668 23.48673820495605 16.92832946777344 23.39413833618164 16.77211952209473 C 23.30710983276367 16.62199020385742 23.19293975830078 16.4931697845459 23.05593872070313 16.38920021057129 C 22.92121887207031 16.28471946716309 22.76442909240723 16.20660972595215 22.60256004333496 16.16299057006836 C 22.49041938781738 16.13356971740723 22.37700843811035 16.11836051940918 22.26486968994141 16.11836051940918 Z M 18.31815910339355 7.397809982299805 C 18.29049873352051 7.397809982299805 18.26258850097656 7.399330139160156 18.23467826843262 7.401360034942627 C 18.10149002075195 7.415050029754639 17.97513961791992 7.454620361328125 17.85944938659668 7.517000198364258 L 9.151349067687988 12.26323986053467 C 9.03235912322998 12.32715034484863 8.930628776550293 12.41285991668701 8.848419189453125 12.51734066009521 C 8.767739295959473 12.61826992034912 8.707869529724121 12.73239040374756 8.670319557189941 12.8576602935791 C 8.634038925170898 12.98445987701416 8.620589256286621 13.1178503036499 8.63124942779541 13.24211025238037 C 8.642409324645996 13.37246036529541 8.680978775024414 13.50584983825684 8.742629051208496 13.62604999542236 C 8.805039405822754 13.74472999572754 8.888759613037109 13.84769058227539 8.991768836975098 13.93442058563232 C 9.089959144592285 14.01557064056396 9.201839447021484 14.07744026184082 9.324378967285156 14.11700057983398 C 9.432202339172363 14.14993667602539 9.545190811157227 14.16787147521973 9.659278869628906 14.1596097946167 L 9.701398849487305 14.15758037567139 C 9.834089279174805 14.14387989044189 9.959419250488281 14.10432052612305 10.07460880279541 14.04042053222656 L 18.78650856018066 9.299759864807129 C 18.90396881103516 9.234330177307129 19.0064697265625 9.148110389709473 19.0909595489502 9.045149803161621 C 19.17112922668457 8.941180229187012 19.23023986816406 8.825540542602539 19.26778984069824 8.70128059387207 C 19.30432891845703 8.578030586242676 19.31827926635742 8.448699951171875 19.30838966369629 8.316830635070801 C 19.29417991638184 8.177350044250488 19.25611877441406 8.048020362854004 19.19497871398926 7.932380199432373 C 19.13332939147949 7.81318998336792 19.04731941223145 7.706690311431885 18.94608879089355 7.624520301818848 C 18.84688949584961 7.541850090026855 18.73398971557617 7.480480194091797 18.6119499206543 7.442950248718262 C 18.51426887512207 7.41303014755249 18.41557884216309 7.397809982299805 18.31815910339355 7.397809982299805 Z M 26.63781929016113 7.801530361175537 C 26.6152400970459 7.801530361175537 26.59240913391113 7.80305004119873 26.5698299407959 7.804570198059082 C 26.44068908691406 7.815730094909668 26.3173885345459 7.849709987640381 26.20295906066895 7.906520366668701 C 26.08117866516113 7.968389987945557 25.97639846801758 8.051059722900391 25.89114952087402 8.151989936828613 C 25.80564880371094 8.251399993896484 25.7379093170166 8.372110366821289 25.69579887390137 8.500940322875977 C 25.65621948242188 8.628240585327148 25.64048957824707 8.761130332946777 25.65113830566406 8.885379791259766 C 25.65874862670898 9.013700485229492 25.69147872924805 9.140500068664551 25.7478084564209 9.260200500488281 C 25.8091983795166 9.38446044921875 25.89064979553223 9.491470336914063 25.98958969116211 9.577690124511719 L 30.47974967956543 13.55352020263672 C 30.58047866821289 13.64379978179932 30.69565963745117 13.71075057983398 30.82175827026367 13.75284004211426 C 30.9459171295166 13.79174613952637 31.07515525817871 13.8075122833252 31.19876861572266 13.79899978637695 C 31.3273983001709 13.789870262146 31.45146942138672 13.7564001083374 31.56664848327637 13.69908046722412 C 31.68639945983887 13.63771057128906 31.79143905639648 13.55504035949707 31.87896919250488 13.45310020446777 C 31.96826934814453 13.34963035583496 32.03424072265625 13.23146057128906 32.07381820678711 13.10212993621826 C 32.11415863037109 12.9809103012085 32.1301383972168 12.84803009033203 32.1202392578125 12.71767997741699 C 32.11085891723633 12.58429050445557 32.0778694152832 12.45800018310547 32.02180862426758 12.34286975860596 C 31.96547889709473 12.22469043731689 31.88251876831055 12.11464023590088 31.78229904174805 12.02537059783936 L 27.28807830810547 8.049540519714355 C 27.18887901306152 7.960790157318115 27.07039833068848 7.892820358276367 26.94632911682129 7.851230144500732 C 26.84281921386719 7.818270206451416 26.73904991149902 7.801530361175537 26.63781929016113 7.801530361175537 Z" stroke="none" fill="#f23814"/>
    </g>
  </g>
</svg>
