<svg xmlns="http://www.w3.org/2000/svg" width="31.565" height="37.796" viewBox="0 0 31.565 37.796">
  <g id="Maths" transform="translate(-1507.217 -498.204)">
    <path id="Subtraction_54" data-name="Subtraction 54" d="M1.392,37.8C.533,37.8,0,37.479,0,35.894V4.488C0,2.014,1.287,0,2.869,0H28.695c1.583,0,2.87,2.013,2.87,4.487V29.915l-.065.257h.065l-1.218,4.574L31.5,30.172H3.521l-.652,4.8H30.287c0,2.435,0,2.748-1.592,2.748H2.869c-.271,0-.529.019-.779.038H2.079l-.03,0C1.853,37.778,1.609,37.8,1.392,37.8ZM22.705,24.386a.058.058,0,0,0-.059.059v.131a.936.936,0,0,0,.135.5.883.883,0,0,0,.385.335,1.341,1.341,0,0,0,.574.118,1.146,1.146,0,0,0,.79-.263.889.889,0,0,0,.3-.7.812.812,0,0,0-.118-.447,1.024,1.024,0,0,0-.287-.3c-.113-.076-.287-.181-.53-.319-.172-.088-.306-.162-.4-.22a.664.664,0,0,1-.2-.18.4.4,0,0,1-.065-.229.4.4,0,0,1,.122-.312.481.481,0,0,1,.338-.113.532.532,0,0,1,.392.14.473.473,0,0,1,.142.355v.094a.061.061,0,0,0,.06.06h.455a.059.059,0,0,0,.042-.018.056.056,0,0,0,.017-.042v-.105a.972.972,0,0,0-.138-.515.916.916,0,0,0-.387-.347,1.293,1.293,0,0,0-.575-.122,1.109,1.109,0,0,0-.755.25.957.957,0,0,0-.16,1.155,1.123,1.123,0,0,0,.311.322,4.288,4.288,0,0,0,.49.283c.185.1.315.169.4.223a.709.709,0,0,1,.2.18.388.388,0,0,1,.07.232.413.413,0,0,1-.128.315.5.5,0,0,1-.357.12.577.577,0,0,1-.4-.135.451.451,0,0,1-.15-.35v-.1a.058.058,0,0,0-.06-.059Zm-2.575,0a.058.058,0,0,0-.059.059v.131a.936.936,0,0,0,.135.5.885.885,0,0,0,.384.335,1.349,1.349,0,0,0,.575.118,1.146,1.146,0,0,0,.79-.263.889.889,0,0,0,.3-.7.812.812,0,0,0-.118-.447,1.024,1.024,0,0,0-.287-.3c-.113-.076-.287-.181-.53-.319-.176-.09-.31-.164-.4-.22a.664.664,0,0,1-.2-.18.4.4,0,0,1-.065-.229.4.4,0,0,1,.122-.312.478.478,0,0,1,.337-.113.532.532,0,0,1,.392.14.482.482,0,0,1,.142.355v.094a.061.061,0,0,0,.06.06h.455a.059.059,0,0,0,.043-.018.056.056,0,0,0,.017-.042v-.105a.972.972,0,0,0-.138-.515.923.923,0,0,0-.387-.347,1.293,1.293,0,0,0-.575-.122,1.109,1.109,0,0,0-.755.25.957.957,0,0,0-.16,1.155,1.123,1.123,0,0,0,.311.322,4.288,4.288,0,0,0,.49.283c.185.1.315.169.4.223a.709.709,0,0,1,.2.18.388.388,0,0,1,.07.232.413.413,0,0,1-.128.315.5.5,0,0,1-.357.12.577.577,0,0,1-.4-.135.451.451,0,0,1-.15-.35v-.1a.062.062,0,0,0-.017-.042.058.058,0,0,0-.043-.017Zm-9.26,0a.058.058,0,0,0-.059.059v.131a.936.936,0,0,0,.135.5.883.883,0,0,0,.385.335,1.341,1.341,0,0,0,.574.118,1.146,1.146,0,0,0,.79-.263.889.889,0,0,0,.3-.7.812.812,0,0,0-.118-.447,1.024,1.024,0,0,0-.287-.3c-.113-.076-.287-.181-.53-.319-.172-.088-.306-.162-.4-.22a.664.664,0,0,1-.2-.18.4.4,0,0,1-.065-.229.4.4,0,0,1,.122-.312.481.481,0,0,1,.337-.113.532.532,0,0,1,.392.14.473.473,0,0,1,.142.355v.094a.061.061,0,0,0,.06.06h.455a.059.059,0,0,0,.042-.018.056.056,0,0,0,.017-.042v-.105a.972.972,0,0,0-.138-.515.916.916,0,0,0-.387-.347,1.293,1.293,0,0,0-.575-.122,1.109,1.109,0,0,0-.755.25.957.957,0,0,0-.16,1.155,1.123,1.123,0,0,0,.31.322,4.288,4.288,0,0,0,.49.283c.185.1.315.169.4.223a.709.709,0,0,1,.2.18.388.388,0,0,1,.07.232.413.413,0,0,1-.128.315.5.5,0,0,1-.357.12.577.577,0,0,1-.4-.135.451.451,0,0,1-.15-.35v-.1a.058.058,0,0,0-.06-.059Zm-2.7-2.4a.057.057,0,0,0-.042.018.059.059,0,0,0-.018.042v2.39a1.166,1.166,0,0,0,.138.572.956.956,0,0,0,.388.382,1.194,1.194,0,0,0,.574.135,1.208,1.208,0,0,0,.58-.135.951.951,0,0,0,.387-.382,1.166,1.166,0,0,0,.138-.572V22.05a.058.058,0,0,0-.017-.042.059.059,0,0,0-.042-.018H9.79a.059.059,0,0,0-.042.018.058.058,0,0,0-.017.042v2.42a.573.573,0,0,1-.145.405.5.5,0,0,1-.381.155.484.484,0,0,1-.377-.155.576.576,0,0,1-.142-.405V22.05a.061.061,0,0,0-.06-.06Zm9.51,0a.059.059,0,0,0-.043.018.058.058,0,0,0-.017.042v3.38a.058.058,0,0,0,.06.059h1.935a.058.058,0,0,0,.059-.059V25.05a.058.058,0,0,0-.059-.059H18.22a.023.023,0,0,1-.025-.025V24a.022.022,0,0,1,.025-.024h.89a.061.061,0,0,0,.06-.06v-.38a.059.059,0,0,0-.018-.043.058.058,0,0,0-.042-.017h-.89a.022.022,0,0,1-.025-.025v-.94a.022.022,0,0,1,.025-.025h1.391a.062.062,0,0,0,.042-.017.058.058,0,0,0,.017-.043v-.38a.058.058,0,0,0-.017-.042.059.059,0,0,0-.042-.018ZM15.3,23.242c.007,0,.012.006.015.018l1.1,2.184a.075.075,0,0,0,.07.045h.46a.058.058,0,0,0,.042-.017A.059.059,0,0,0,17,25.43V22.05a.061.061,0,0,0-.06-.06h-.455a.059.059,0,0,0-.042.018.058.058,0,0,0-.017.042v2.156c0,.013,0,.021-.013.022h0c-.01,0-.014-.005-.018-.018L15.3,22.035a.072.072,0,0,0-.07-.045h-.46a.056.056,0,0,0-.042.018.059.059,0,0,0-.018.042v3.38a.059.059,0,0,0,.018.042.055.055,0,0,0,.042.017h.455a.058.058,0,0,0,.043-.017.062.062,0,0,0,.017-.042l-.005-2.165c0-.013,0-.021.013-.023h0Zm-1.74-1.253a.056.056,0,0,0-.042.018.059.059,0,0,0-.018.042v3.38a.059.059,0,0,0,.018.042.055.055,0,0,0,.042.017h.46a.058.058,0,0,0,.042-.017.059.059,0,0,0,.018-.042V22.05a.061.061,0,0,0-.06-.06Zm-8.07,0a.061.061,0,0,0-.06.06v3.38a.059.059,0,0,0,.018.042.058.058,0,0,0,.042.017H6.55a1.145,1.145,0,0,0,.763-.247.885.885,0,0,0,.293-.712A.873.873,0,0,0,7.15,23.7c-.006,0-.009-.009-.009-.014s.005-.011.014-.016a.764.764,0,0,0,.4-.731.876.876,0,0,0-.283-.707,1.2,1.2,0,0,0-.787-.238ZM23.523,7.317a1.582,1.582,0,0,0-1.533,1.624V20.332H25.06V8.941A1.584,1.584,0,0,0,23.523,7.317Zm-4.6,2.015a1.462,1.462,0,0,0-1.533,1.375v9.625h3.068V10.707A1.464,1.464,0,0,0,18.919,9.332Zm-4.6,2.246c-.847,0-1.536.491-1.536,1.093v7.66h3.073v-7.66C15.851,12.069,15.162,11.579,14.314,11.579ZM9.709,13.824c-.847,0-1.535.364-1.535.812v5.7h3.072v-5.7C11.245,14.188,10.556,13.824,9.709,13.824Zm.034-5.707v0l.913.862v1.671L7.78,12.387l.869,1.127,13.371-8-.825-1.2L11.529,10.13v-1.8l-.916-.863.261-1.3a3.18,3.18,0,0,0,2.394,1.079V6.391A2.143,2.143,0,0,1,11.4,5.351l-.435-.69a.9.9,0,0,0-.741-.432.867.867,0,0,0-.173.021.8.8,0,0,1-.177.023L7.61,5.224v2.03H8.48V5.783l.785-.3-1.219,6.1h.913l.784-3.458Zm1.13-5.835a.865.865,0,1,0,.873.863A.867.867,0,0,0,10.874,2.282ZM6.53,24.985h-.5a.022.022,0,0,1-.025-.025V23.945a.022.022,0,0,1,.025-.025h.495a.482.482,0,0,1,.365.142.64.64,0,0,1,0,.783A.479.479,0,0,1,6.53,24.985ZM6.5,23.47H6.031a.022.022,0,0,1-.025-.025v-.93a.022.022,0,0,1,.025-.025H6.5a.509.509,0,0,1,.368.13A.493.493,0,0,1,7,22.985a.474.474,0,0,1-.132.357A.512.512,0,0,1,6.5,23.47Z" transform="translate(1507.218 498.203)" fill="#097066"/>
  </g>
</svg>
