<svg xmlns="http://www.w3.org/2000/svg" width="56.496" height="42.602" viewBox="0 0 56.496 42.602">
  <g id="History35" transform="translate(-489.665 -336.699)">
    <g id="Group_19146" data-name="Group 19146">
      <path id="ic_audiotrack_24px" d="M3.326,0V6.352a2.031,2.031,0,0,0-.832-.192A2.83,2.83,0,0,0,0,9.24a2.83,2.83,0,0,0,2.495,3.08A2.751,2.751,0,0,0,4.962,9.583h.028V2.053H7.207V0Z" transform="translate(529.918 350.329) rotate(33)" fill="#f93c3c"/>
      <path id="Subtraction_59" data-name="Subtraction 59" d="M13.844,38.747l1.107-3.634a3.69,3.69,0,0,1-1.854-.875c-.66-.522,4.17-.862,1.248-4.152S4.843,27.664,1.41,21.08C-2.611,13.37,2.823,2.815,10.635.394c2.854-.884,5.338.019,8.2,1.381.456.215,1.343.674,2.237,1.091C24.387,4.41,23.5,8.37,24.447,9.3c1,.971,4.431,1.863,5.238,3.508.423.86-.46.991-1.339,1.121-.8.118-1.6.235-1.395.9l.979.406L24.138,18.1c.1.386,4.225,1.192,4.447,2.086.062.246-.322.307-.761.385-.57.1-1.237.233-1.157.838,5.171.384,2.2,4.543-2.775,7.026a.9.9,0,0,1,.4.984c-.342,3.331,6.471,5.641,6.471,5.641Z" transform="translate(495.008 336.65) rotate(8)" fill="#f93c3c"/>
      <path id="Union_40" data-name="Union 40" d="M4.29,6.543c0-1.208.64-2.181,1.434-2.181A1.011,1.011,0,0,1,6.2,4.5V0h.94l.015,6.786H7.141c-.08,1.091-.682,1.938-1.418,1.938C4.929,8.724,4.29,7.75,4.29,6.543ZM0,6.543C0,5.335.64,4.362,1.434,4.362a1.011,1.011,0,0,1,.479.135V0H6.2V1.454H2.867V6.786H2.851C2.772,7.876,2.17,8.724,1.434,8.724.64,8.724,0,7.75,0,6.543Z" transform="translate(539.526 353.848) rotate(22)" fill="#f93c3c"/>
    </g>
  </g>
</svg>
