<svg xmlns="http://www.w3.org/2000/svg" width="48.497" height="41.918" viewBox="0 0 48.497 41.918">
  <g id="History33" transform="translate(-547.075 -472.041)">
    <path id="Union_42" data-name="Union 42" d="M23.893,41.764c-2.651-.807-3.937-4.7-4.551-7.82a25.375,25.375,0,0,1-.476-7.827,1.085,1.085,0,0,1,.395-.533,1.065,1.065,0,0,1-.027-.661c.466-1.52,4.88-1.527,9.839-.019.375.114.742.234,1.1.358-.162-1.521,2.986-4.228,7.381-6.267,4.7-2.181,9.07-2.784,9.745-1.347a1.07,1.07,0,0,1,.064.658c-1.413-.783-5.315-.019-9.28,1.821-3.562,1.653-6.423,3.825-7.186,5.4.675.254,1.314.523,1.907.8a21.83,21.83,0,0,0,7.2-2.11c3.964-1.841,7.063-4.324,7.363-5.906a1.075,1.075,0,0,1,.465.474,25.3,25.3,0,0,1,.624,7.814c-.171,3.178-.9,7.211-3.413,8.375-2.474,1.149-5.979-.811-8.527-2.7a31.1,31.1,0,0,1-4.453,5.538c-1.967,1.953-4.683,4.1-7.1,4.1A3.648,3.648,0,0,1,23.893,41.764ZM19.262,25.585c.519,1.525,3.932,3.554,8.117,4.828a20.036,20.036,0,0,0,8.048,1.019,25.721,25.721,0,0,1-4.553-4.58c-.69-.271-1.417-.524-2.169-.752a23.846,23.846,0,0,0-6.594-1.124A5.024,5.024,0,0,0,19.262,25.585ZM3.522,30.162C.2,26.491-1.949,22.82,2.587,25.01a75.316,75.316,0,0,1,10.856-3.547S43.653-.782,44.215.021l.55.553L15.69,24.679a24.933,24.933,0,0,1-4.759,8.467c.795,2.026.638,2.828-.072,2.828C9.508,35.975,6.149,33.069,3.522,30.162Z" transform="translate(547.075 472.041)" fill="#416262"/>
  </g>
</svg>
