<svg xmlns="http://www.w3.org/2000/svg" width="56.195" height="50.379" viewBox="0 0 56.195 50.379">
  <g id="History34" transform="translate(-636.359 -332.81)">
    <path id="Union_41" data-name="Union 41" d="M2.524,38.949A9.466,9.466,0,0,1,5.061,24.116c4.975-2.681,13.18-3.955,13.18-3.955S41.326-.736,41.955.02l.594.507L41.043,2.092c2.119.724,5.909,1.267,6.778,2.974,1.628,3.2.937,6.831-1.545,8.1s-7.052-.424-7.443-3.509a25.486,25.486,0,0,1,.037-5.307L20.757,23.187S20.59,31.559,17.3,36.4a10.719,10.719,0,0,1-8.89,4.748A8.3,8.3,0,0,1,2.524,38.949Z" transform="matrix(0.978, 0.208, -0.208, 0.978, 644.915, 332.81)" fill="#6a32dd"/>
  </g>
</svg>
