<svg xmlns="http://www.w3.org/2000/svg" width="28.129" height="35.571" viewBox="0 0 28.129 35.571">
  <g id="Chemistry" transform="translate(-1511.936 -747.214)">
    <g id="Group_18091" data-name="Group 18091" transform="translate(1511.936 747.214)">
      <g id="Group_17135" data-name="Group 17135">
        <path id="Path_11831" data-name="Path 11831" d="M1289.577,1088.613c-2.841,0-5.683-.047-8.523.012a5.406,5.406,0,0,1-5.5-5.183,7.639,7.639,0,0,1,.889-4.4c2.155-4.073,4.263-8.172,6.46-12.223a6.457,6.457,0,0,0,.25-5.344c-.359-1.11-.866-2.173-1.232-3.282a5.726,5.726,0,0,1-.278-1.762,3.082,3.082,0,0,1,2.964-3.245c2.634-.138,5.279-.094,7.918-.119a13.238,13.238,0,0,1,1.642.042c2.556.293,3.786,1.987,3.209,4.5-.221.964-.649,1.878-.945,2.827a28.394,28.394,0,0,0-.839,3,4.5,4.5,0,0,0,.5,3.038c2.03,3.8,4.037,7.616,6.056,11.423a9.434,9.434,0,0,1,1.468,5.465c-.252,2.455-1.933,5.357-5.586,5.263C1295.211,1088.555,1292.393,1088.613,1289.577,1088.613Zm7.721-14.984c-.179-.357-.287-.58-.4-.8-.987-1.875-1.994-3.739-2.951-5.629a5.217,5.217,0,0,1-.553-1.691,10.535,10.535,0,0,1,.842-5.763,17.3,17.3,0,0,0,.961-2.818,1.119,1.119,0,0,0-1.16-1.568q-4.449-.063-8.9,0c-1.011.016-1.453.639-1.171,1.622.328,1.144.8,2.247,1.194,3.372.908,2.59,1.107,5.139-.323,7.646-.914,1.6-1.745,3.249-2.609,4.879-.118.224-.208.463-.333.748Zm-7.751,12.733c2.892,0,5.784-.009,8.677,0a2.779,2.779,0,0,0,2.688-1.675,4.6,4.6,0,0,0-.049-4.248c-.646-1.32-1.339-2.618-1.986-3.938a.9.9,0,0,0-.929-.568q-8.377.021-16.755,0a.847.847,0,0,0-.881.519c-.681,1.386-1.414,2.748-2.079,4.141a5.267,5.267,0,0,0-.431,1.5,3.444,3.444,0,0,0,3.668,4.266Z" transform="translate(-1275.516 -1053.059)" fill="#f28437"/>
        <path id="Path_11832" data-name="Path 11832" d="M1370.927,1220.391a3.511,3.511,0,1,1,3.418,3.54A3.534,3.534,0,0,1,1370.927,1220.391Zm4.749,0a1.267,1.267,0,0,0-1.271-1.194,1.233,1.233,0,0,0,.063,2.465A1.292,1.292,0,0,0,1375.677,1220.391Z" transform="translate(-1356.653 -1192.402)" fill="#f28437"/>
        <path id="Path_11833" data-name="Path 11833" d="M1335.781,1216.61a1.352,1.352,0,0,1-1.367,1.385,1.39,1.39,0,0,1,.009-2.78A1.358,1.358,0,0,1,1335.781,1216.61Z" transform="translate(-1324.426 -1190.956)" fill="#f28437"/>
      </g>
    </g>
  </g>
</svg>
