<svg xmlns="http://www.w3.org/2000/svg" width="40.09" height="43.89" viewBox="0 0 40.09 43.89">
  <g id="History36" transform="translate(-515.016 -343.996)">
    <path id="Union_38" data-name="Union 38" d="M10.793,29.294V22.663H6.688L4.781,29.294H1.544l1.684-6.631H3.173c-1.286,0-2.005-1.16-1.212-1.952l2.883-4.416,1.016-4-2.775.845v4.1H0V11.569L8.02,8.916c.46,0,.769-.12,1.232-.12a3.415,3.415,0,0,1,2.62,1.2l1.544,1.929a8.2,8.2,0,0,0,6.629,2.9v2.412a12.823,12.823,0,0,1-8.481-3.016l-.624,2.446L15,20.711c.777.774.106,1.9-1.124,1.949v6.634Zm14.231-.852V18.52l2.615-2.646-.747-3.968a8.9,8.9,0,0,1-6.847,3.307V12.568A6.061,6.061,0,0,0,25.4,9.393l1.246-2.117a2.547,2.547,0,0,1,2.115-1.323c.374,0,.622.132,1,.132L36.23,9v6.217h-2.49v-4.5L31.5,9.789,33.491,20.5l6.1-1.323.5,2.645L31.374,23.68l-1.245-5.821L27.514,20.5v7.938ZM8.479,5.781c0-1.326,1.389-2.412,3.084-2.412s3.085,1.086,3.085,2.412-1.388,2.412-3.085,2.412S8.479,7.108,8.479,5.781ZM24.4,2.646a2.494,2.494,0,1,1,4.979,0,2.494,2.494,0,1,1-4.979,0Z" transform="translate(515.016 358.592)" fill="#b72222"/>
    <path id="ic_audiotrack_24px" d="M2.6,0V4.97a1.589,1.589,0,0,0-.651-.15A2.214,2.214,0,0,0,0,7.23,2.214,2.214,0,0,0,1.952,9.64,2.152,2.152,0,0,0,3.882,7.5H3.9V1.607H5.639V0Z" transform="translate(524.952 345.113) rotate(33)" fill="#b72222"/>
    <path id="ic_audiotrack_24px-2" data-name="ic_audiotrack_24px" d="M2.6,0V4.97a1.589,1.589,0,0,0-.651-.15A2.214,2.214,0,0,0,0,7.23,2.214,2.214,0,0,0,1.952,9.64,2.152,2.152,0,0,0,3.882,7.5H3.9V1.607H5.639V0Z" transform="translate(539.79 355.152) rotate(-147)" fill="#b72222"/>
  </g>
</svg>
