<svg xmlns="http://www.w3.org/2000/svg" width="49.972" height="35.397" viewBox="0 0 49.972 35.397">
  <g id="Drawing" transform="translate(-419.028 -353.3)">
    <path id="Union_19" data-name="Union 19" d="M12.715,28.882c1.2-.346,2.551-1.641,1.986-3.2-.719-1.966.61-4.108,2.977-4.792a5.289,5.289,0,0,1,2.114-.172l.162-2.315L28.66,3.684c.387-.624,3.536-1.912,4.261-1.61s1.234,3.114.848,3.736L24.877,20.124l-2.511,1.762a3.465,3.465,0,0,1,.882,1.33c.958,2.619-.82,5.479-3.967,6.389a8.623,8.623,0,0,1-2.39.329A8.461,8.461,0,0,1,12.715,28.882ZM24.644,23.4A4.348,4.348,0,0,0,23.6,21.74L25.955,20.2,34.469,6.83a3.459,3.459,0,0,1,.583,2.854l-.581,2.079.369,1.116,3.01,1.5a8.022,8.022,0,0,0,1.722.2,5.974,5.974,0,0,0,.958-.074,6.227,6.227,0,0,1,.993-.076,8.077,8.077,0,0,1,1.739.2,6.734,6.734,0,0,1,2.6,1.123c.637.494.915,1.026.783,1.5-.565,2.017-2.368,3.7-5.215,4.867a28.329,28.329,0,0,1-10.494,1.733A46.305,46.305,0,0,1,24.644,23.4Zm2.1-3.006c0,1,1.828,1.813,4.074,1.813s4.076-.814,4.076-1.813-1.828-1.816-4.076-1.816S26.74,19.393,26.74,20.4Zm-11.235.894A35.913,35.913,0,0,1,4.9,15.912C1.075,12.942-.6,9.754.191,6.933,1.372,2.72,7.317,0,15.338,0a39.083,39.083,0,0,1,8.456.954,26.7,26.7,0,0,1,4.76,1.52L20.025,16.55a7.829,7.829,0,0,0-1.8-.627,8.141,8.141,0,0,0-1.75-.2c-1.422,0-2.423.422-2.611,1.1-.134.473.146,1.006.783,1.5a6.692,6.692,0,0,0,2.594,1.124,8.165,8.165,0,0,0,1.75.2c.14,0,.28,0,.414-.014l-.023.276c-.13-.015-.276-.033-.431-.046-.041,0-.086-.005-.134-.005a4.667,4.667,0,0,0-2.213.751c-.395.229-.765.46-1.1.684ZM4.529,11.013c-.132.47.146,1,.783,1.5a6.7,6.7,0,0,0,2.6,1.123,8.1,8.1,0,0,0,1.75.2c1.42,0,2.423-.422,2.614-1.1a1.026,1.026,0,0,0-.147-.814A5.226,5.226,0,0,0,8.9,10.112a8.148,8.148,0,0,0-1.749-.2C5.724,9.913,4.722,10.335,4.529,11.013ZM6.173,5.145c-.13.472.147,1,.785,1.5A6.692,6.692,0,0,0,9.552,7.764a8.129,8.129,0,0,0,1.749.2c1.422,0,2.423-.423,2.615-1.1.13-.47-.149-1-.787-1.494a6.674,6.674,0,0,0-2.592-1.125,8.107,8.107,0,0,0-1.749-.2C7.366,4.043,6.364,4.465,6.173,5.145Zm11.31-1.229a1.054,1.054,0,0,0,.2.894,5.372,5.372,0,0,0,3.179,1.727,8.191,8.191,0,0,0,1.749.2c1.424,0,2.427-.421,2.615-1.1.134-.471-.144-1-.783-1.5a6.681,6.681,0,0,0-2.594-1.122,8.024,8.024,0,0,0-1.751-.2C18.673,2.815,17.672,3.237,17.483,3.916Z" transform="translate(422.676 353.3) rotate(7)" fill="#798ed1"/>
  </g>
</svg>
