<svg xmlns="http://www.w3.org/2000/svg" width="36.25" height="30.543" viewBox="0 0 36.25 30.543">
  <g id="History41" transform="translate(-658.537 -340.728)">
    <path id="Union_32" data-name="Union 32" d="M30.82,30.543V11.32H34.5V30.543Zm-7.373,0V13.58h3.687V30.543Zm-7.372,0V11.32h3.687V30.543Zm-7.371,0V17.728h3.685V30.543Zm-7.373,0V19.758H5.016V30.543ZM0,10.448A5.659,5.659,0,0,1,5.872,5.035a5.974,5.974,0,0,1,5.1,2.731l7.241-4.775,5.729,3.772,6.991-4.6L27.655,0H36.25V5.661L32.969,3.5,23.944,9.434,18.215,5.661l-6.5,4.277a5.045,5.045,0,0,1,.026.511,5.66,5.66,0,0,1-5.874,5.414A5.659,5.659,0,0,1,0,10.448Zm5.132,3.286v1.045H6.7V13.746c1.023-.179,1.826-.72,1.833-1.711,0-1.364-1.269-1.834-2.456-2.117S4.509,9.339,4.509,8.884c0-.52.529-.888,1.409-.888.929,0,1.276.411,1.3,1.013H8.375A1.961,1.961,0,0,0,6.7,7.173V6.117H5.132V7.163c-1.009.2-1.826.807-1.826,1.737,0,1.11,1,1.662,2.456,1.987,1.308.287,1.568.709,1.568,1.159,0,.33-.26.86-1.411.86-1.074,0-1.5-.444-1.556-1.012H3.212A2.1,2.1,0,0,0,5.132,13.734Z" transform="translate(658.537 340.728)" fill="#377f1d"/>
  </g>
</svg>
