<svg xmlns="http://www.w3.org/2000/svg" width="28.842" height="35.774" viewBox="0 0 28.842 35.774">
  <g id="English" transform="translate(-894.529 -339.661)">
    <path id="Subtraction_44" data-name="Subtraction 44" d="M1.273,35.774h0c-.785,0-1.272-.3-1.272-1.8V4.246C0,1.9,1.176,0,2.622,0h23.6c1.446,0,2.622,1.9,2.622,4.246V28.315l-.059.244H3.217l-.6,4.546H27.676c0,2.3,0,2.6-1.455,2.6H2.622c-.257,0-.5.019-.74.038H1.873l-.038,0C1.635,35.76,1.448,35.774,1.273,35.774Zm16.4-17a1.707,1.707,0,0,0-.8.182,1.327,1.327,0,0,0-.539.514,1.517,1.517,0,0,0-.193.767v2.086a1.518,1.518,0,0,0,.193.767,1.327,1.327,0,0,0,.539.514,1.707,1.707,0,0,0,.8.182,1.573,1.573,0,0,0,1.12-.4,1.429,1.429,0,0,0,.42-1.088V21.214a.081.081,0,0,0-.024-.059.084.084,0,0,0-.06-.024h-1.4a.083.083,0,0,0-.084.084v.511a.083.083,0,0,0,.084.084h.637a.031.031,0,0,1,.035.035V22.4a.678.678,0,0,1-.193.508.716.716,0,0,1-.515.185.728.728,0,0,1-.535-.207.737.737,0,0,1-.206-.543V20.228a.751.751,0,0,1,.2-.543.7.7,0,0,1,.522-.207.717.717,0,0,1,.528.2.7.7,0,0,1,.2.515v.161a.082.082,0,0,0,.024.059.081.081,0,0,0,.059.024h.644a.084.084,0,0,0,.06-.024.082.082,0,0,0,.024-.059v-.161a1.418,1.418,0,0,0-.193-.735,1.316,1.316,0,0,0-.543-.5A1.756,1.756,0,0,0,17.672,18.779Zm-4.7,1.809c.01,0,.017.008.021.025l1.54,3.059a.108.108,0,0,0,.1.063h.644a.083.083,0,0,0,.084-.084V18.918a.083.083,0,0,0-.084-.084h-.637a.083.083,0,0,0-.084.084v3.017c0,.019-.006.03-.018.031h0c-.013,0-.02-.007-.024-.024L12.975,18.9a.1.1,0,0,0-.1-.063h-.644a.083.083,0,0,0-.084.084V23.65a.083.083,0,0,0,.084.084h.637a.083.083,0,0,0,.084-.084l-.006-3.031c0-.019.005-.029.017-.031ZM8.642,18.834a.083.083,0,0,0-.084.084V23.65a.083.083,0,0,0,.084.084h2.709a.081.081,0,0,0,.059-.024.078.078,0,0,0,.025-.059v-.532a.078.078,0,0,0-.025-.059.082.082,0,0,0-.059-.025H9.4A.031.031,0,0,1,9.37,23V21.655A.031.031,0,0,1,9.4,21.62h1.247a.082.082,0,0,0,.059-.024.081.081,0,0,0,.024-.059V21a.081.081,0,0,0-.024-.059.082.082,0,0,0-.059-.024H9.4a.031.031,0,0,1-.035-.035V19.569a.031.031,0,0,1,.035-.034h1.946a.082.082,0,0,0,.059-.025.078.078,0,0,0,.025-.059v-.532a.078.078,0,0,0-.025-.059.081.081,0,0,0-.059-.024Zm6.972-13V7.056h4.293l-4.322,6.553V14.6h6.226V13.379H17.345L21.673,6.8V5.832ZM9.045,12.72h3.731l.671,1.876H14.79L11.512,5.824h-1.2L7.031,14.6H8.374l.671-1.876ZM27.731,32.89h0l1.055-4.331h.059l-1.111,4.33ZM12.322,11.466H9.491L10.906,7.5l1.416,3.964Z" transform="translate(894.529 339.661)" fill="#b98a80"/>
  </g>
</svg>
