<svg xmlns="http://www.w3.org/2000/svg" width="32.553" height="50.03" viewBox="0 0 32.553 50.03">
  <g id="History38" transform="translate(-566.179 -335.985)">
    <path id="Union_67" data-name="Union 67" d="M-2372.795,4908.994l-18.929-1.9,2.313-4.023a4.43,4.43,0,0,1-1.669-1.775.184.184,0,0,1-.031-.158c.049-.138.351-.189.734-.257.72-.125,1.8-.315,2.221-1.242a3.956,3.956,0,0,0-.3-2.947c-.792-2.006-2.4-3.468-4.093-5.016-2.676-2.439-5.71-5.2-6.636-10.9a18.169,18.169,0,0,1,.371-7.458,20.7,20.7,0,0,1,3.04-6.623c3.291-4.765,8.206-7.726,12.829-7.726,3.4,0,5.808,2.269,8.172,4.8.164.173.39.423.651.713l.017.02c.382.422.858.95,1.336,1.45,1.98,2.082,1.685,4.79,1.469,6.769a5.288,5.288,0,0,0,.033,2.381,10.563,10.563,0,0,0,1.674,2.112c1.178,1.283,2.512,2.734,2.714,4.163a1,1,0,0,1-.1.727.775.775,0,0,1-.68.261,5.869,5.869,0,0,1-.974-.125,5.965,5.965,0,0,0-.971-.123c-.534,0-.783.222-.783.7l.928,1.962-3.308.684c-.006.2.506.3,1.153.419.976.184,2.186.411,2.155,1.122-.012.326-.605.82-1.292,1.392-.9.743-1.908,1.586-2.016,2.355,1.637.75,2.455,1.708,2.362,2.765-.168,1.937-3.394,3.99-7.5,4.78a1.318,1.318,0,0,1,.112,1.356c-.718,2,.642,4.4,1.908,6.061a23.375,23.375,0,0,0,3.092,3.288l0,0Zm-20.6-21.032c.142.066.3.136.492.217a.089.089,0,0,1,.065.1c0,.262,0,.522,0,.785a.34.34,0,0,0,.369.39h1.847c.243,0,.371-.137.371-.4s0-.516,0-.775a.1.1,0,0,1,.069-.1c.146-.061.314-.132.485-.214a.1.1,0,0,1,.051-.014.092.092,0,0,1,.066.038c.162.177.328.351.49.52l.028.03a.372.372,0,0,0,.263.138.361.361,0,0,0,.256-.134l.588-.621.362-.382.363-.384a.406.406,0,0,0,.126-.277.4.4,0,0,0-.13-.273l-.106-.111-.051-.053c-.121-.127-.247-.259-.367-.39a.115.115,0,0,1-.02-.1c.052-.14.107-.274.165-.417l.027-.065.049-.121h.782c.259,0,.385-.135.385-.411,0-.636,0-1.28,0-1.917,0-.275-.127-.407-.386-.407l-.364,0-.363,0a.083.083,0,0,1-.091-.067c-.072-.2-.135-.359-.2-.5a.106.106,0,0,1,.02-.141c.185-.19.367-.382.52-.546a.4.4,0,0,0,.125-.274.4.4,0,0,0-.125-.271l-1.317-1.394a.356.356,0,0,0-.254-.133.36.36,0,0,0-.257.137c-.182.188-.359.374-.524.554a.094.094,0,0,1-.066.036.134.134,0,0,1-.054-.014c-.141-.068-.3-.137-.477-.21a.093.093,0,0,1-.073-.109c0-.26,0-.521,0-.774s-.128-.392-.369-.392h-1.854c-.242,0-.364.135-.364.395v.842l-.184.083-.057.024c-.116.053-.229.1-.344.153a.021.021,0,0,1-.01,0,.14.14,0,0,1-.074-.038l-.241-.253-.055-.059-.149-.157-.074-.077a.373.373,0,0,0-.263-.139.371.371,0,0,0-.261.139l-.025.024-.539.572-.7.738-.025.027a.441.441,0,0,0-.148.3.452.452,0,0,0,.149.3l.358.377.184.194-.057.149c-.064.171-.117.313-.176.459a.1.1,0,0,1-.082.049c-.154,0-.309,0-.463,0-.094,0-.187,0-.279,0a.343.343,0,0,0-.369.39v1.953a.344.344,0,0,0,.374.392c.243,0,.484,0,.726,0h.007c.054,0,.078.017.1.076.063.176.128.344.195.5a.1.1,0,0,1-.021.14c-.114.115-.226.233-.334.35l-.03.031-.144.151a.421.421,0,0,0-.137.286.408.408,0,0,0,.132.277q.5.524.993,1.053l.107.113.2.215a.359.359,0,0,0,.258.135.377.377,0,0,0,.261-.136l.1-.106c.142-.149.283-.3.424-.451a.083.083,0,0,1,.061-.034A.1.1,0,0,1-2393.394,4887.962Zm11.151-7.238h1.214V4878.4h-1.214Zm3.791-3.383,1.086,1.418.857-1.112-1.094-1.412Zm-8.317.3.857,1.111,1.087-1.419-.855-1.112Zm3.31-9.646a5.151,5.151,0,0,0-1.821,4.093c0,2.61,1.635,4.732,3.644,4.732s3.645-2.122,3.645-4.732a5.154,5.154,0,0,0-1.822-4.093V4864.2h-3.646Zm6.684,4.882h1.821V4871.3h-1.821Zm-11.542,0h1.821V4871.3h-1.821Zm-2.583,15.883h-1.292v-.774a.346.346,0,0,0-.274-.378,3.665,3.665,0,0,1-.842-.368.432.432,0,0,0-.213-.071.348.348,0,0,0-.251.135c-.129.141-.258.281-.382.419l-.108.12c-.123-.129-.244-.255-.364-.382l-.319-.336-.243-.255.025-.028.03-.033.219-.232.111-.115.11-.117a.371.371,0,0,0,.064-.5,4.177,4.177,0,0,1-.343-.882.335.335,0,0,0-.367-.3h-.721V4883.3h.75a.317.317,0,0,0,.329-.264,4.221,4.221,0,0,1,.369-.949.361.361,0,0,0-.06-.45l-.093-.1-.038-.041c-.128-.136-.256-.271-.38-.407.272-.286.57-.6.91-.958l.009.007a.294.294,0,0,1,.036.036c.076.079.153.158.228.238s.166.175.25.261a.328.328,0,0,0,.238.115.377.377,0,0,0,.192-.062,3.371,3.371,0,0,1,.857-.376.342.342,0,0,0,.274-.385v-.763h1.293v.689c0,.033,0,.065,0,.1a.336.336,0,0,0,.251.356,4.052,4.052,0,0,1,.921.406.289.289,0,0,0,.15.042.323.323,0,0,0,.235-.113c.1-.1.2-.209.3-.315.054-.058.11-.116.165-.173a.386.386,0,0,0,.037-.05.1.1,0,0,1,.009-.015l0-.007c.211.221.413.436.619.654l.31.328c-.152.154-.316.326-.457.474a1.054,1.054,0,0,0-.088.1.348.348,0,0,0-.043.4,4.238,4.238,0,0,1,.378.964.322.322,0,0,0,.342.262h.739v1.369h-.094c-.224,0-.449,0-.673,0a.312.312,0,0,0-.311.25,4.245,4.245,0,0,1-.376.965.355.355,0,0,0,.062.435q.157.17.317.335l.147.153.02.021.032.036c-.253.266-.5.531-.758.8l-.042.045-.12.126-.139-.15-.028-.031-.041-.044c-.094-.1-.188-.2-.285-.306a.349.349,0,0,0-.254-.138.429.429,0,0,0-.211.07,3.81,3.81,0,0,1-.841.369.35.35,0,0,0-.277.392v.759h0Zm-2.143-4.784a1.953,1.953,0,0,0,.435,1.263,1.376,1.376,0,0,0,1.06.526,1.384,1.384,0,0,0,1.066-.523,1.969,1.969,0,0,0,.435-1.266,1.667,1.667,0,0,0-1.5-1.79A1.666,1.666,0,0,0-2393.042,4883.977Zm1.492,1.282a1.2,1.2,0,0,1-1.065-1.286,1.183,1.183,0,0,1,1.059-1.274h.021a1.186,1.186,0,0,1,1.062,1.288,1.2,1.2,0,0,1-1.062,1.272Zm9.588-11.266v-.481c-.61-.091-1.132-.364-1.17-.849h.7c.034.262.292.465.947.465.7,0,.858-.243.858-.4,0-.206-.159-.4-.953-.533-.886-.148-1.494-.4-1.494-.915,0-.427.5-.707,1.113-.8v-.478h.953v.485c.664.113,1,.463,1.019.845h-.7c-.02-.277-.229-.465-.8-.465-.537,0-.858.168-.858.41,0,.21.232.345.954.477s1.493.345,1.493.973c0,.455-.492.705-1.112.788v.476Z" transform="translate(2965.588 -4522.98)" fill="#1f3849"/>
  </g>
</svg>
