<svg xmlns="http://www.w3.org/2000/svg" width="31.036" height="43.339" viewBox="0 0 31.036 43.339">
  <g id="Group_19142" data-name="Group 19142" transform="translate(-1485.026 -735.33)">
    <path id="Union_15" data-name="Union 15" d="M25.2,43.339l-14.528-.286A1.739,1.739,0,0,1,9.084,41.2a1.721,1.721,0,0,1,1.647-1.792l5.375.1c0-.016,0-.031,0-.047L16.055,36.3c0-.021,0-.039,0-.06a14.593,14.593,0,0,1-4.642-.313,10.88,10.88,0,0,1-3.147-1.284c-.433-.257-.851-.536-1.255-.826a1.569,1.569,0,0,1-1.173-.1,1.879,1.879,0,0,1-.815-2.413l1.092-2.522a1.853,1.853,0,0,1,.344-.525A14.247,14.247,0,0,1,1.013,21.59a14.006,14.006,0,0,1-.98-4.284L0,17.284l.026-.066a13.018,13.018,0,0,1,.959-5.759A11.955,11.955,0,0,1,8,4.7a12.653,12.653,0,0,1,8.982.156,1.932,1.932,0,0,1,.154-.632l1.376-3.179A1.638,1.638,0,0,1,20.748.17a1.86,1.86,0,0,1,.932,2.05,15.465,15.465,0,0,1,2.505,1.571A16.893,16.893,0,0,1,28.47,8.682a18.64,18.64,0,0,1,2.29,6.325,19.5,19.5,0,0,1-.1,7.08A18.9,18.9,0,0,1,28.077,28.6,17.25,17.25,0,0,1,23.6,33.375a15.762,15.762,0,0,1-4.26,2.182l-.022.008a2.113,2.113,0,0,1,.119.67l.049,3.164c0,.06,0,.12,0,.179l5.783.115a1.838,1.838,0,0,1-.028,3.647ZM11.977,32.89a12.2,12.2,0,0,0,6.543-.309,14.5,14.5,0,0,0,9.4-11.161c1.344-6.806-1.751-13.592-7.4-16.438l-.338.781a1.8,1.8,0,0,1-.4.58,14.267,14.267,0,0,1,5.2,6.506,13.372,13.372,0,0,1,.026,10.13A11.952,11.952,0,0,1,18,29.737a12.619,12.619,0,0,1-8.681-.044,1.906,1.906,0,0,1-.154.627l-.443,1.024A11.446,11.446,0,0,0,11.977,32.89Zm-.448-4.9a10.287,10.287,0,0,0,7.494-1.325L14.5,25.034A28.009,28.009,0,0,1,11.529,27.994Zm-2.494-.822.041.02c.523-.545,1.661-1.744,2.85-3.091l-1.955-.707L8.8,22.673C8.811,24.624,8.961,26.406,9.036,27.172ZM6.763,25.78a24.488,24.488,0,0,1-.4-4.6l-3.9-2.39A11.918,11.918,0,0,0,6.763,25.78Zm11.093-6.316c-.006.013-.014.026-.02.039-.111.328-.256.7-.442,1.111a16.325,16.325,0,0,1-1.049,1.94l5.179,1.882a10.164,10.164,0,0,0,1.431-2.444,10.631,10.631,0,0,0,.69-2.495l-5.183-1.876A9.89,9.89,0,0,1,17.856,19.464ZM10.335,15.2a8.068,8.068,0,0,1-.394.726.111.111,0,0,1-.009.058,7.025,7.025,0,0,0-.988,3.3l2.409,1.457,2.6.945a11.328,11.328,0,0,0,1.676-2.6s0,0,0,0a7.055,7.055,0,0,1,.412-1,6.218,6.218,0,0,0,.427-1.185l-3.129-1.131-2.475-1.517A9.841,9.841,0,0,0,10.335,15.2ZM3.045,12.448a10.665,10.665,0,0,0-.734,2.823l4.575,2.768a17.232,17.232,0,0,1,1.285-3.194.175.175,0,0,0,.011-.018c.076-.164.164-.337.264-.515a12.885,12.885,0,0,1,.7-1.109L4.3,10.231A10.19,10.19,0,0,0,3.045,12.448Zm16.13,1.379c-.029.256-.069.548-.118.861l4.6,1.673a11.907,11.907,0,0,0-4.315-7.616A29.563,29.563,0,0,1,19.175,13.827Zm-6.5-1.95,2.047,1.238,2.228.81a57.941,57.941,0,0,0,.155-6.479A51.818,51.818,0,0,0,12.678,11.876ZM6.461,8.115l4.509,2.728c1.336-1.611,2.833-3.234,3.863-4.317a10.617,10.617,0,0,0-2.457-.291A10.141,10.141,0,0,0,6.461,8.115Z" transform="translate(1485.026 735.33)" fill="#1b7b92"/>
  </g>
</svg>
