<svg xmlns="http://www.w3.org/2000/svg" width="36.476" height="28.487" viewBox="0 0 36.476 28.487">
  <g id="Group_18456" data-name="Group 18456" transform="translate(-1521.247 -789.575)">
    <path id="Union_25" data-name="Union 25" d="M24.771,26.4V13.543h-9.6q.092.1.181.214a6,6,0,0,1,1.291,3.879,7.524,7.524,0,0,1-2.41,5.622,8.3,8.3,0,0,1-6,2.325A8.256,8.256,0,0,1,2.6,23.626,7.686,7.686,0,0,1,0,18.508l4.648-.563a4.4,4.4,0,0,0,1.2,2.717A3.272,3.272,0,0,0,8.2,21.6a3.237,3.237,0,0,0,2.5-1.128,4.373,4.373,0,0,0,1.017-3.042,4.08,4.08,0,0,0-.974-2.871A3.107,3.107,0,0,0,8.374,13.5a8.4,8.4,0,0,0-2.2.358L6.7,9.946A4.207,4.207,0,0,0,9.672,9.1,3.01,3.01,0,0,0,10.7,6.716,2.726,2.726,0,0,0,9.946,4.7a2.7,2.7,0,0,0-2-.752,2.892,2.892,0,0,0-2.1.854,4.019,4.019,0,0,0-1.06,2.5L.358,6.545A9.9,9.9,0,0,1,1.751,2.913,6.289,6.289,0,0,1,4.349.778,8.729,8.729,0,0,1,8.083,0a7.45,7.45,0,0,1,5.675,2.255,5.891,5.891,0,0,1,1.759,4.17,5.146,5.146,0,0,1-1.246,3.418h10.5V2.613H18.4v-3.7H35.423v3.7H28.6V26.4Z" transform="translate(1521.799 791.163)" fill="#112b8d" stroke="rgba(0,0,0,0)" stroke-miterlimit="10" stroke-width="1"/>
  </g>
</svg>
