<svg xmlns="http://www.w3.org/2000/svg" width="30.078" height="36.265" viewBox="0 0 30.078 36.265">
  <g id="History" transform="translate(-499.416 -343.073)">
    <path id="Subtraction_38" data-name="Subtraction 38" d="M1.327,36.265C.508,36.265,0,35.959,0,34.44V4.3C0,1.931,1.227,0,2.734,0h24.61c1.508,0,2.734,1.931,2.734,4.3V28.7l-.062.248H3.355l-.621,4.608H28.862c0,2.335,0,2.634-1.518,2.634H2.734c-.267,0-.523.019-.771.038H1.953C1.73,36.248,1.52,36.265,1.327,36.265ZM13.827,23.2a.091.091,0,0,0-.068.028.092.092,0,0,0-.028.068V23.5a1.5,1.5,0,0,0,.216.8,1.414,1.414,0,0,0,.616.535,2.138,2.138,0,0,0,.92.188,1.842,1.842,0,0,0,1.265-.419,1.43,1.43,0,0,0,.472-1.116,1.3,1.3,0,0,0-.188-.716,1.632,1.632,0,0,0-.46-.476c-.183-.124-.468-.3-.848-.512-.289-.147-.5-.262-.636-.352a1.074,1.074,0,0,1-.316-.288.637.637,0,0,1-.1-.368.647.647,0,0,1,.2-.5.772.772,0,0,1,.54-.18.862.862,0,0,1,.628.224.763.763,0,0,1,.228.568v.152a.093.093,0,0,0,.029.067.091.091,0,0,0,.067.028h.728a.092.092,0,0,0,.068-.028.1.1,0,0,0,.028-.067v-.168a1.557,1.557,0,0,0-.22-.824,1.466,1.466,0,0,0-.62-.555,2.064,2.064,0,0,0-.92-.2,1.775,1.775,0,0,0-1.208.4,1.534,1.534,0,0,0-.257,1.849,1.81,1.81,0,0,0,.5.516,7.051,7.051,0,0,0,.784.452c.285.148.5.268.635.356a1.127,1.127,0,0,1,.316.288.621.621,0,0,1,.113.372.663.663,0,0,1-.2.5.805.805,0,0,1-.572.192.922.922,0,0,1-.64-.216.721.721,0,0,1-.24-.56v-.16a.1.1,0,0,0-.1-.1Zm3.944-3.832a.1.1,0,0,0-.1.1v.616a.092.092,0,0,0,.028.068.1.1,0,0,0,.068.028h1.192a.035.035,0,0,1,.04.04v4.656a.1.1,0,0,0,.028.068.092.092,0,0,0,.068.028h.736a.091.091,0,0,0,.067-.028.092.092,0,0,0,.028-.068V20.211a.035.035,0,0,1,.04-.04h1.24a.094.094,0,0,0,.068-.028.092.092,0,0,0,.028-.068V19.46a.092.092,0,0,0-.028-.068.091.091,0,0,0-.068-.028Zm-5.711,0a.092.092,0,0,0-.068.028.1.1,0,0,0-.028.068v5.407a.1.1,0,0,0,.028.068.092.092,0,0,0,.068.028H12.8a.1.1,0,0,0,.1-.1V19.46a.1.1,0,0,0-.1-.1ZM8.475,22.556H9.995a.035.035,0,0,1,.04.04v2.272a.1.1,0,0,0,.1.1h.735a.1.1,0,0,0,.1-.1V19.46a.1.1,0,0,0-.1-.1h-.735a.1.1,0,0,0-.1.1v2.247a.036.036,0,0,1-.04.04H8.475a.036.036,0,0,1-.04-.04V19.46a.1.1,0,0,0-.1-.1H7.6a.1.1,0,0,0-.1.1v5.407a.1.1,0,0,0,.1.1h.735a.1.1,0,0,0,.1-.1V22.6A.035.035,0,0,1,8.475,22.556Zm-.1-7.818v2.054H21.7V14.738Zm9.814-6.156V13.37h2.1V8.582Zm-4.207,0V13.37h2.1V8.582Zm-4.206,0V13.37h2.1V8.582Zm5.257-6.158h0L8.38,5.845V7.213H21.7V5.845L15.039,2.424ZM28.92,33.34h0l1.1-4.389h.062L28.92,33.339Z" transform="translate(499.416 343.073)" fill="#84858a"/>
  </g>
</svg>
