<svg xmlns="http://www.w3.org/2000/svg" width="39.784" height="44.639" viewBox="0 0 39.784 44.639">
  <g id="History32" transform="translate(-567.564 -437.183)">
    <path id="Union_48" data-name="Union 48" d="M31.386,44.627,21.048,43.509a2.049,2.049,0,0,1-1.572-1.1,1.867,1.867,0,0,1-1.469,1.066l-9.78.98a2.162,2.162,0,0,1-2.206-2.061l-.25-2.256a1.411,1.411,0,0,1,.464-1.074c-1.49-1.856-1.318-1.58-3.894-7.813C-.532,24.3.261,11.953,0,9.815c4.334.656.789,10.007,6.2,15.767,2.064,2.2,3.511,3.832,4.511,5.012L6.5,23.5s-1.6-7.415,1.057-3.638c.375.535,4.136,3.952,4.4,5.932,3.983,3.224,5.378,9.484,5.743,11.562.876.307,1.633.76,1.75,1.331.117-.568.9-1.011,1.82-1.3.365-2.062,1.789-8.346,5.989-11.563.265-1.98,4.216-5.38,4.608-5.918,2.777-3.766,1.146,3.645,1.146,3.645l-4.4,7.077c1.049-1.178,2.566-2.807,4.73-4.994,5.677-5.738,1.858-15.111,6.436-15.749-.26,2.137.672,14.5-2.315,21.436-2.822,6.562-3.3,4.945-5.249,7.059.94.522,1.767,1.248,1.695,1.951l-.23,2.259a2.19,2.19,0,0,1-2.091,2.048C31.525,44.638,31.456,44.634,31.386,44.627ZM25.336,19.36,24.348,19l-.987-.36a.39.39,0,0,1-.239-.566c.1-.284.206-.571.312-.854a.1.1,0,0,0-.03-.132c-.15-.139-.3-.282-.441-.428a.088.088,0,0,0-.125-.023c-.259.138-.519.269-.78.4a.358.358,0,0,1-.557-.2q-.425-1-.849-2.012a.425.425,0,0,1,.229-.611c.25-.129.5-.259.755-.382a.124.124,0,0,0,.078-.144c-.011-.208-.014-.418-.01-.625a.106.106,0,0,0-.082-.123c-.261-.09-.518-.185-.777-.281a.392.392,0,0,1-.246-.571q.386-1.065.774-2.128a.4.4,0,0,1,.549-.282l.318.114q.238.088.476.172a.123.123,0,0,0,.108-.023c.164-.184.322-.374.49-.572-.114-.269-.233-.551-.352-.834a.436.436,0,0,1,.234-.649l1.918-.981a.356.356,0,0,1,.559.206c.112.266.223.534.338.8.014.031.049.072.076.071.24-.014.481-.037.729-.057l.333-.916a.389.389,0,0,1,.545-.285q.994.358,1.984.722a.392.392,0,0,1,.239.568c-.1.283-.2.565-.31.845A.11.11,0,0,0,29.644,9c.147.134.289.272.428.414a.1.1,0,0,0,.135.024c.258-.138.519-.269.78-.4a.352.352,0,0,1,.548.2q.429,1.014.856,2.03a.423.423,0,0,1-.216.593c-.256.132-.514.266-.773.393a.127.127,0,0,0-.078.144c.011.208.013.418.011.626a.1.1,0,0,0,.072.111c.259.091.517.185.775.28a.4.4,0,0,1,.252.6q-.379,1.045-.76,2.087c-.11.3-.3.4-.574.3l-.836-.305c-.173.2-.339.378-.5.567a.132.132,0,0,0-.015.113c.11.271.227.539.34.808a.422.422,0,0,1-.216.6q-.975.5-1.952,1a.358.358,0,0,1-.554-.205c-.113-.266-.227-.532-.336-.8a.093.093,0,0,0-.116-.071c-.2.021-.4.034-.6.045a.108.108,0,0,0-.117.085c-.1.284-.2.564-.306.847-.077.211-.2.318-.374.318A.532.532,0,0,1,25.336,19.36Zm-2.193-3.613a.484.484,0,0,1,.2.16,4.149,4.149,0,0,0,.753.728.4.4,0,0,1,.144.516c-.086.246-.177.49-.266.735-.014.035-.026.071-.041.111l1.382.5c.016-.042.029-.077.042-.114.086-.238.172-.476.26-.715a.4.4,0,0,1,.451-.319,4.224,4.224,0,0,0,1.047-.073.361.361,0,0,1,.471.253c.108.261.213.522.315.771l1.371-.7c-.008-.02-.02-.051-.033-.083-.1-.238-.2-.474-.3-.714a.415.415,0,0,1,.105-.5,4.973,4.973,0,0,0,.786-.905.36.36,0,0,1,.433-.152c.241.085.48.174.72.261l.1.036.543-1.49c-.269-.1-.53-.193-.79-.289a.368.368,0,0,1-.261-.418,4.989,4.989,0,0,0-.022-1.2.407.407,0,0,1,.2-.417c.043-.027.089-.05.135-.073l.676-.339c-.2-.481-.4-.945-.6-1.428a.961.961,0,0,1-.085.058c-.229.12-.458.238-.689.353a.337.337,0,0,1-.441-.076,4.679,4.679,0,0,0-.824-.8.389.389,0,0,1-.128-.487c.018-.053.039-.106.058-.159l.255-.7-1.383-.5c-.013.036-.026.072-.039.107-.088.242-.175.484-.265.725a.393.393,0,0,1-.445.311,3.892,3.892,0,0,0-1.065.076.351.351,0,0,1-.441-.224c-.108-.242-.209-.488-.313-.732-.012-.027-.026-.053-.031-.061l-1.354.688c.108.259.221.526.33.794a.417.417,0,0,1-.113.512,4.835,4.835,0,0,0-.77.89.368.368,0,0,1-.458.159c-.136-.047-.271-.1-.406-.147l-.231-.083-.165-.06-.543,1.49c.264.1.518.187.772.281a.38.38,0,0,1,.274.466,4.731,4.731,0,0,0,.02,1.094.436.436,0,0,1-.267.518l-.654.333c-.032.016-.063.035-.082.046.2.473.4.934.6,1.419.239-.127.487-.263.737-.392a.514.514,0,0,1,.229-.067A.276.276,0,0,1,23.143,15.747ZM11.931,17.653c-.082-.419-.166-.84-.243-1.261a.144.144,0,0,0-.133-.138c-.283-.059-.567-.124-.848-.2a.127.127,0,0,0-.169.064c-.215.355-.437.7-.658,1.055a.508.508,0,0,1-.823.163q-1.251-.907-2.5-1.816a.6.6,0,0,1-.169-.905c.213-.338.423-.679.642-1.012a.174.174,0,0,0-.01-.23c-.164-.244-.32-.495-.468-.751a.15.15,0,0,0-.191-.088c-.382.08-.765.152-1.148.226a.557.557,0,0,1-.717-.513q-.306-1.569-.609-3.137a.558.558,0,0,1,.463-.74c.149-.031.3-.058.448-.088.243-.047.485-.095.727-.146a.167.167,0,0,0,.114-.1c.065-.343.119-.688.178-1.049L4.78,6.231a.614.614,0,0,1-.189-.957L6.207,2.69a.506.506,0,0,1,.832-.157c.331.238.661.481.994.718.039.027.113.049.143.03.283-.192.558-.394.846-.6L8.759,1.33C8.68.92,8.832.663,9.213.588Q10.683.3,12.155.015a.555.555,0,0,1,.7.514c.083.415.166.831.24,1.247a.157.157,0,0,0,.151.151c.275.055.549.119.823.187a.136.136,0,0,0,.182-.068c.214-.354.436-.7.657-1.055A.5.5,0,0,1,15.722.83q1.264.915,2.525,1.832a.6.6,0,0,1,.168.874c-.215.348-.431.7-.653,1.039a.173.173,0,0,0,.01.23c.165.244.319.5.47.751a.135.135,0,0,0,.167.082c.382-.079.767-.152,1.149-.226.411-.079.655.1.741.538q.3,1.54.6,3.079c.086.446-.071.695-.484.775l-1.239.242c-.068.362-.137.7-.194,1.048a.192.192,0,0,0,.064.149c.332.248.67.487,1.005.729a.6.6,0,0,1,.174.883q-.822,1.318-1.646,2.633a.51.51,0,0,1-.825.154c-.332-.24-.664-.478-.993-.723a.133.133,0,0,0-.192,0c-.229.173-.463.336-.7.494a.153.153,0,0,0-.077.188c.085.415.165.83.245,1.246a.559.559,0,0,1-.468.749l-2.928.57a.834.834,0,0,1-.159.016C12.188,18.18,12,18,11.931,17.653ZM10.617,14.87a5.88,5.88,0,0,0,1.45.331.563.563,0,0,1,.552.52c.073.361.14.723.211,1.084.01.053.02.1.031.164l2.049-.4c-.012-.063-.022-.114-.032-.167q-.1-.528-.2-1.056a.572.572,0,0,1,.317-.715,6.009,6.009,0,0,0,1.22-.851.514.514,0,0,1,.758-.036c.321.236.641.476.945.7L19.069,12.6l-.1-.077c-.3-.214-.6-.425-.89-.644a.583.583,0,0,1-.233-.676,7.03,7.03,0,0,0,.3-1.668.51.51,0,0,1,.416-.5c.355-.074.711-.139,1.066-.208l.149-.029-.427-2.2c-.4.077-.785.155-1.173.228a.52.52,0,0,1-.621-.316,7.02,7.02,0,0,0-.9-1.434.576.576,0,0,1-.059-.653c.033-.064.073-.125.112-.185.2-.308.391-.616.575-.9L15.5,2.047a1.054,1.054,0,0,1-.06.131c-.193.311-.384.623-.581.931a.478.478,0,0,1-.592.227,6.636,6.636,0,0,0-1.586-.365.549.549,0,0,1-.511-.5c-.016-.077-.031-.156-.046-.235-.067-.34-.133-.681-.2-1.03l-2.049.4c.01.054.021.107.031.158.069.357.14.714.208,1.07a.556.556,0,0,1-.314.7,5.5,5.5,0,0,0-1.24.869.5.5,0,0,1-.7.049c-.307-.216-.609-.438-.914-.658-.034-.024-.07-.045-.082-.052L5.72,5.566c.32.236.652.477.981.721a.586.586,0,0,1,.235.7,6.891,6.891,0,0,0-.287,1.64.523.523,0,0,1-.441.526c-.314.065-.629.123-.944.185l-.245.048.427,2.2c.39-.076.768-.151,1.146-.223a.538.538,0,0,1,.672.364,6.705,6.705,0,0,0,.822,1.311.612.612,0,0,1,.053.822c-.183.293-.369.586-.553.88-.028.042-.051.087-.067.114l1.77,1.279c.2-.33.4-.674.61-1.013a.562.562,0,0,1,.359-.3.456.456,0,0,1,.087-.008A.8.8,0,0,1,10.617,14.87Zm14.931.95-.01,0a2.7,2.7,0,0,1-1.277-3.559,2.707,2.707,0,0,1,3.271-1.906,2.711,2.711,0,0,1,1.282,3.562,2.886,2.886,0,0,1-2.564,2.028A2.07,2.07,0,0,1,25.548,15.82Zm-.633-3.332a1.927,1.927,0,0,0,.9,2.549,1.92,1.92,0,0,0,2.339-1.346,1.931,1.931,0,0,0-.9-2.551l-.032-.012a1.41,1.41,0,0,0-.484-.085A2.07,2.07,0,0,0,24.916,12.488ZM8.989,9.724C8.562,7.5,9.721,5.4,11.579,5.036S15.3,6.194,15.737,8.411s-.716,4.316-2.583,4.687l-.012,0a2.9,2.9,0,0,1-.553.053A3.961,3.961,0,0,1,8.989,9.724Zm2.834-3.537-.048.008A2.726,2.726,0,0,0,9.953,9.526a2.725,2.725,0,0,0,2.958,2.427,2.716,2.716,0,0,0,1.863-3.334,2.811,2.811,0,0,0-2.589-2.463A2.177,2.177,0,0,0,11.823,6.187Zm14.606,5.658-.086-.031s-.006,0-.006-.006,0-.005,0-.009l.231-.636a.012.012,0,0,1,.006-.007h.009l.218.079a.2.2,0,0,1,.087.059.181.181,0,0,1,.039.093.245.245,0,0,1-.073.2.189.189,0,0,1-.089.044.2.2,0,0,1-.1-.012l-.116-.041s0,0-.005,0l-.094.256a.009.009,0,0,1-.006.006h-.009Zm.215-.556-.071.2s0,.006,0,.007l.1.036a.085.085,0,0,0,.076,0,.105.105,0,0,0,.052-.064.111.111,0,0,0,0-.085.089.089,0,0,0-.055-.053l-.1-.036h0A.005.005,0,0,0,26.645,11.289ZM11.608,8.309a.024.024,0,0,1-.01-.016L11.34,6.966a.024.024,0,0,1,0-.018.022.022,0,0,1,.015-.01L11.54,6.9a.027.027,0,0,1,.018,0,.023.023,0,0,1,.01.015l.257,1.327a.021.021,0,0,1,0,.018.026.026,0,0,1-.015.011l-.181.035h0A.022.022,0,0,1,11.608,8.309Z" transform="translate(567.564 437.184)" fill="#454162"/>
  </g>
</svg>
