<svg xmlns="http://www.w3.org/2000/svg" width="29.749" height="35.868" viewBox="0 0 29.749 35.868">
  <g id="English44" transform="translate(-1069.075 -339.614)">
    <path id="Subtraction_44" data-name="Subtraction 44" d="M1.312,35.868h0c-.81,0-1.312-.3-1.312-1.8V4.258C0,1.91,1.213,0,2.7,0h24.34c1.491,0,2.7,1.91,2.7,4.258V28.389l-.061.245H3.318L2.7,33.191H28.546c0,2.309,0,2.605-1.5,2.605H2.7c-.268,0-.525.02-.773.039C1.712,35.852,1.5,35.868,1.312,35.868ZM9.25,22.846a.723.723,0,0,0,0,1.446H20.823a.723.723,0,1,0,0-1.446H15.76V8.38h5.945L19.5,14.413h-.05a3.773,3.773,0,0,0,2.5,3.623.012.012,0,0,0,0,.012,2.208,2.208,0,0,0,.763.079,1.476,1.476,0,0,0,.549-.057.012.012,0,0,0,0-.011,3.7,3.7,0,0,0,2.582-3.163.1.1,0,0,0,.011-.076c.014-.109.024-.2.031-.294l-.162,0L22.854,8.38h.863a.724.724,0,0,0,0-1.447H4.91a.724.724,0,0,0,0,1.447H6.118L3.911,14.413h-.05a3.773,3.773,0,0,0,2.5,3.623.012.012,0,0,0,0,.012,2.208,2.208,0,0,0,.763.079,1.474,1.474,0,0,0,.55-.057.012.012,0,0,0,0-.011,3.7,3.7,0,0,0,2.582-3.163.1.1,0,0,0,.011-.076c.013-.093.023-.19.031-.294l-.162,0L7.267,8.38h7.047V22.846Zm19.336,10.2h0l1.1-4.407h.061Zm-3.4-18.527h0l-5.028-.088,2.142-5.58,2.886,5.667Zm-15.587,0h0l-5.028-.088,2.142-5.58,2.886,5.667Z" transform="translate(1069.075 339.614)" fill="#a09997"/>
  </g>
</svg>
