<svg xmlns="http://www.w3.org/2000/svg" width="40.316" height="46.56" viewBox="0 0 40.316 46.56">
  <g id="Group_18455" data-name="Group 18455" transform="translate(-1480.704 -731.555)">
    <path id="Union_24" data-name="Union 24" d="M14.325,19.6c0-3.616,2.138-6.533,4.788-6.533a3.612,3.612,0,0,1,1.6.406V0h3.138L23.9,20.325h-.052c-.265,3.268-2.276,5.809-4.734,5.809C16.463,26.134,14.325,23.216,14.325,19.6ZM0,19.6c0-3.616,2.139-6.533,4.787-6.533a3.61,3.61,0,0,1,1.6.406V0H20.709V4.355H9.576v15.97H9.522c-.266,3.268-2.276,5.809-4.735,5.809C2.139,26.134,0,23.216,0,19.6Z" transform="matrix(0.996, -0.087, 0.087, 0.996, 1494.934, 752.08)" fill="#8d1153"/>
    <path id="ic_audiotrack_24px" d="M7.878,0V13.474a5.28,5.28,0,0,0-1.97-.407C2.639,13.067,0,15.985,0,19.6s2.639,6.533,5.909,6.533a6.143,6.143,0,0,0,5.843-5.808h.066V4.356H17.07V0Z" transform="matrix(0.995, 0.105, -0.105, 0.995, 1483.436, 731.555)" fill="#8d1153"/>
  </g>
</svg>
