<svg xmlns="http://www.w3.org/2000/svg" width="55.532" height="44.345" viewBox="0 0 55.532 44.345">
  <g id="History42" transform="translate(-623.456 -332.785)">
    <path id="Union_30" data-name="Union 30" d="M6.15,31.867,8,29.2a3.239,3.239,0,0,1-1.336-1.175c-.422-.589,3.723.348,2.1-3.049S1.4,20.633.18,14.439C-1.242,7.186,6,0,13.179,0,15.8,0,17.66,1.354,19.72,3.175c.329.288.958.884,1.6,1.446,2.393,2.081.641,5.065,1.2,6.057.593,1.038,3.251,2.621,3.512,4.155.136.8-.639.688-1.409.571-.7-.1-1.4-.209-1.4.381l.742,1.3-2.648.453c-.013.338,2.689.241,2.648,1.021-.024.5-2.5,1.578-2.648,2.482,4.247,1.609.7,4.23-4.115,4.994a.741.741,0,0,1,.089.9c-1.132,2.613,4.006,6.194,4.006,6.194Z" transform="translate(623.456 344.004)" fill="#1f3849"/>
    <path id="Union_31" data-name="Union 31" d="M19.906,31.867,18.054,29.2a3.237,3.237,0,0,0,1.336-1.175c.422-.589-3.723.348-2.1-3.049s7.371-4.346,8.587-10.54C27.3,7.186,20.055,0,12.877,0,9.284,0,7.126,2.54,4.731,4.621s-.641,5.065-1.2,6.057C2.934,11.716.277,13.3.016,14.834c-.136.8.639.688,1.409.571.7-.1,1.4-.209,1.4.381l-.743,1.3,2.648.453c.013.338-2.689.241-2.648,1.021.024.5,2.5,1.578,2.648,2.482-4.248,1.609-.7,4.23,4.114,4.994a.741.741,0,0,0-.089.9c1.132,2.613-4.006,6.194-4.006,6.194Z" transform="translate(652.933 344.004)" fill="#1f3849"/>
    <path id="ic_extension_24px" d="M7.94,4.292H7.3V2.575a.861.861,0,0,0-.858-.858H4.721V1.073a1.073,1.073,0,1,0-2.146,0v.644H.858A.857.857,0,0,0,0,2.575V4.206H.644a1.159,1.159,0,0,1,0,2.318H0V8.154a.861.861,0,0,0,.858.858H2.489V8.369a1.159,1.159,0,0,1,2.318,0v.644H6.438A.861.861,0,0,0,7.3,8.154V6.438H7.94a1.073,1.073,0,1,0,0-2.146Z" transform="translate(645.668 338.56) rotate(14)" fill="#1f3849"/>
    <path id="ic_extension_24px-2" data-name="ic_extension_24px" d="M7.94,4.292H7.3V2.575a.861.861,0,0,0-.858-.858H4.721V1.073a1.073,1.073,0,1,0-2.146,0v.644H.858A.857.857,0,0,0,0,2.575V4.206H.644a1.159,1.159,0,0,1,0,2.318H0V8.154a.861.861,0,0,0,.858.858H2.489V8.369a1.159,1.159,0,0,1,2.318,0v.644H6.438A.861.861,0,0,0,7.3,8.154V6.438H7.94a1.073,1.073,0,1,0,0-2.146Z" transform="translate(662.47 341.404) rotate(163)" fill="#1f3849"/>
  </g>
</svg>
