<svg xmlns="http://www.w3.org/2000/svg" width="37.17" height="40.36" viewBox="0 0 37.17 40.36">
  <g id="History43" transform="translate(-555.529 -278.917)">
    <path id="Union_30" data-name="Union 30" d="M0,40.36v-2.49H37.17v2.49Zm33.326-3.736V19.192h2.563V36.625Zm-6.409,0V19.192H29.48V36.625Zm-6.409,0V19.192h2.565V36.625Zm-6.409,0V19.192h2.565V36.625Zm-6.407,0V19.192h2.563V36.625Zm-6.409,0V19.192H3.844V36.625ZM0,16.7,17.945,5.88V0h7.414a3.467,3.467,0,0,0-1.283,1.858,4.467,4.467,0,0,0,.542,2.392H19.226V5.88L37.17,16.7Z" transform="translate(555.529 278.917)" fill="#503395"/>
  </g>
</svg>
