<svg xmlns="http://www.w3.org/2000/svg" width="35.76" height="37.396" viewBox="0 0 35.76 37.396">
  <g id="Group_19145" data-name="Group 19145" transform="translate(-1561.638 -749.471)">
    <path id="Union_25" data-name="Union 25" d="M2.672,34.383A7.906,7.906,0,0,1,0,29.119l4.781-.58a4.53,4.53,0,0,0,1.231,2.8,3.365,3.365,0,0,0,2.425.967,3.332,3.332,0,0,0,2.575-1.16,4.5,4.5,0,0,0,1.046-3.129,4.194,4.194,0,0,0-1-2.953,3.2,3.2,0,0,0-2.444-1.09,8.627,8.627,0,0,0-2.267.369l.544-4.026a4.329,4.329,0,0,0,3.059-.869A3.1,3.1,0,0,0,11,16.989a2.8,2.8,0,0,0-.773-2.074,2.78,2.78,0,0,0-2.056-.773,2.975,2.975,0,0,0-2.162.879,4.127,4.127,0,0,0-1.09,2.566L.369,16.814A10.184,10.184,0,0,1,1.8,13.078a6.458,6.458,0,0,1,2.672-2.2,8.978,8.978,0,0,1,3.84-.8,7.666,7.666,0,0,1,5.837,2.32,6.058,6.058,0,0,1,1.81,4.289q0,3.393-3.709,5.414.294.063.572.147V22A7.385,7.385,0,0,0,19,19.469l2-1.92a7.032,7.032,0,0,1,4.927-2.018,8.627,8.627,0,1,1,.025,17.252V28.477a4.308,4.308,0,1,0,0-8.614,4.51,4.51,0,0,0-3.1,1.255L20.1,23.8a8.738,8.738,0,0,1-3.381,2.061,6.734,6.734,0,0,1,.4,2.361A7.737,7.737,0,0,1,14.642,34,8.537,8.537,0,0,1,8.473,36.4,8.493,8.493,0,0,1,2.672,34.383ZM14.641,6.025,16.685,4.8c1.572,3.238,4.791,5.216,8.063,4.639A6.9,6.9,0,0,0,29.128,6.6l1.981,1.612a9.106,9.106,0,0,1-5.89,3.9,8.589,8.589,0,0,1-1.493.131C19.971,12.247,16.474,9.781,14.641,6.025ZM20.81,2.957a2.956,2.956,0,1,1,2.956,2.956A2.957,2.957,0,0,1,20.81,2.957Z" transform="translate(1562.191 749.971)" fill="#bc4b0a" stroke="rgba(0,0,0,0)" stroke-linecap="round" stroke-miterlimit="10" stroke-width="1"/>
  </g>
</svg>
