<svg xmlns="http://www.w3.org/2000/svg" width="54.366" height="48.117" viewBox="0 0 54.366 48.117">
  <g id="Sports" transform="translate(22.21 -459.49)">
    <g id="Group_18096" data-name="Group 18096" transform="matrix(0.985, -0.174, 0.174, 0.985, 37.849, 451.565)">
      <g id="Group_19147" data-name="Group 19147" transform="translate(-65.806 4.643)">
        <path id="Sports-2" data-name="Sports" d="M10.191,20.961A25.335,25.335,0,0,1,.11,12.268,25.376,25.376,0,0,1,10.2,3.562,33.2,33.2,0,0,1,24.873.221,33.142,33.142,0,0,1,39.541,3.547a25.327,25.327,0,0,1,10.083,8.7,23.69,23.69,0,0,1-5.437,5.809.14.14,0,0,1,.03.117c-.017.047-.086.069-.211.069h-.062a28.241,28.241,0,0,1-4.412,2.71,33.161,33.161,0,0,1-14.671,3.343A33.121,33.121,0,0,1,10.191,20.961ZM9.709,7.237c2.079,1.08,3.111,3.119,2.96,5.976a4.887,4.887,0,0,1-1.488,3.45,6.128,6.128,0,0,1-1.135.849,27.554,27.554,0,0,0,14.817,4.1,27.482,27.482,0,0,0,15.084-4.291c-1.837-1.036-2.812-2.932-2.81-5.581A4.885,4.885,0,0,1,38.442,8.22a6.527,6.527,0,0,1,1.415-1.112A27.469,27.469,0,0,0,24.872,2.894,27.464,27.464,0,0,0,9.709,7.237ZM4.527,12.266A18.191,18.191,0,0,0,7.6,15.679a3.889,3.889,0,0,0,1.348-2.693,4.07,4.07,0,0,0-1.96-3.578A17.949,17.949,0,0,0,4.527,12.266Zm36.34-.491a4.022,4.022,0,0,0,1.9,3.315A17.992,17.992,0,0,0,45.2,12.245a18.193,18.193,0,0,0-3-3.355A3.922,3.922,0,0,0,40.867,11.775Z" transform="translate(0.16 20.548) rotate(-25)" fill="#409da7"/>
        <path id="Union_22" data-name="Union 22" d="M2.381,10.655.018,11.794l2.363-1.14L0,6.19l2.378,4.464L6.75,8.547,4.4,4.128,6.75,8.547l1.3-.626L11.12,6.439,8.791,2.067l2.33,4.373,4.371-2.107L13.185,0l2.306,4.327,2.884-1.391L15.491,4.332l2.09,3.922-2.09-3.922L11.121,6.44l2.065,3.876L11.121,6.44,6.751,8.547l2.041,3.83L6.751,8.547l-4.37,2.107L4.4,14.439Z" transform="translate(18.673 14.649)" fill="#409da7" stroke="#409da7" stroke-width="1"/>
      </g>
    </g>
  </g>
</svg>
