<svg xmlns="http://www.w3.org/2000/svg" width="49.912" height="69" viewBox="0 0 49.912 69">
  <g id="Group_18483" data-name="Group 18483" transform="translate(-1104.859 -294.574)">
    <g id="Group_18456" data-name="Group 18456" transform="translate(-439.685 -429.426)">
      <path id="Path_12132" data-name="Path 12132" d="M24.956,0A24.956,24.956,0,1,1,0,24.956,24.956,24.956,0,0,1,24.956,0Z" transform="translate(1544.544 724)" fill="#112b8d"/>
      <path id="Union_25" data-name="Union 25" d="M2829.885,5369.774a5.714,5.714,0,0,1-1.929-3.8l3.453-.419a3.268,3.268,0,0,0,.888,2.019,2.512,2.512,0,0,0,3.611-.14,3.244,3.244,0,0,0,.756-2.259,3.031,3.031,0,0,0-.724-2.134,2.307,2.307,0,0,0-1.764-.787,6.227,6.227,0,0,0-1.638.267l.394-2.906a3.127,3.127,0,0,0,2.208-.629,2.234,2.234,0,0,0,.763-1.77,2.029,2.029,0,0,0-.56-1.5,2.007,2.007,0,0,0-1.485-.558,2.148,2.148,0,0,0-1.561.635,2.981,2.981,0,0,0-.787,1.854l-3.288-.56a7.333,7.333,0,0,1,1.034-2.7,4.676,4.676,0,0,1,1.93-1.587,6.478,6.478,0,0,1,2.774-.578,5.531,5.531,0,0,1,4.214,1.677,4.372,4.372,0,0,1,1.308,3.1,3.812,3.812,0,0,1-.82,2.409h6.828v-4.9h-4.519V5352h12.078v2.506h-4.843v16.11h-2.716v-8.707h-6.635a4.287,4.287,0,0,1,.507.533,4.457,4.457,0,0,1,.958,2.882,5.593,5.593,0,0,1-1.79,4.176,6.686,6.686,0,0,1-8.646.273Z" transform="translate(-1271.003 -4612.658)" fill="#fff" stroke="rgba(0,0,0,0)" stroke-miterlimit="10" stroke-width="1"/>
    </g>
    <text id="Hindi" transform="translate(1115.365 360.574)" fill="#2e2e2e" font-size="14" font-family="BarlowSemiCondensed-SemiBold, Barlow" font-weight="600"><tspan x="0" y="0">Hindi</tspan></text>
  </g>
</svg>
