<svg xmlns="http://www.w3.org/2000/svg" width="49.912" height="90" viewBox="0 0 49.912 90">
  <g id="Group_18486" data-name="Group 18486" transform="translate(-1358.957 -291.122)">
    <text id="Political_Science" data-name="Political
Science" transform="translate(1362.518 358.122)" fill="#2e2e2e" font-size="14" font-family="BarlowSemiCondensed-SemiBold, Barlow" font-weight="600"><tspan x="0" y="0">Political</tspan><tspan x="0" y="20">Science</tspan></text>
    <g id="History43" transform="translate(807.501 -30.878)">
      <path id="Path_12132" data-name="Path 12132" d="M24.956,0A24.956,24.956,0,1,1,0,24.956,24.956,24.956,0,0,1,24.956,0Z" transform="translate(551.456 322)" fill="rgba(71,41,144,0.95)"/>
      <path id="Union_30" data-name="Union 30" d="M1577.863,4974.453v-1.742h26v1.742Zm23.311-2.613v-12.193h1.793v12.193Zm-4.483,0v-12.193h1.793v12.193Zm-4.483,0v-12.193H1594v12.193Zm-4.483,0v-12.193h1.794v12.193Zm-4.482,0v-12.193h1.793v12.193Zm-4.483,0v-12.193h1.793v12.193Zm-.9-13.936,12.552-7.568v-4.113h5.186a2.425,2.425,0,0,0-.9,1.3,3.125,3.125,0,0,0,.38,1.673h-3.771v1.141l12.552,7.568Z" transform="translate(-1014 -4614)" fill="#fff"/>
    </g>
  </g>
</svg>
