<svg xmlns="http://www.w3.org/2000/svg" width="49.912" height="70" viewBox="0 0 49.912 70">
  <g id="Group_18476" data-name="Group 18476" transform="translate(-544.821 -293.574)">
    <text id="History" transform="translate(548.381 360.574)" fill="#2e2e2e" font-size="14" font-family="BarlowSemiCondensed-SemiBold, Barlow" font-weight="600"><tspan x="0" y="0">History</tspan></text>
    <g id="History-2" data-name="History" transform="translate(-6.635 -28.426)">
      <path id="Path_12132" data-name="Path 12132" d="M24.956,0A24.956,24.956,0,1,1,0,24.956,24.956,24.956,0,0,1,24.956,0Z" transform="translate(551.456 322)" fill="#84858a"/>
      <path id="Subtraction_38" data-name="Subtraction 38" d="M2392.907,4969.794c-.56,0-.907-.208-.907-1.247v-20.6c0-1.623.838-2.942,1.868-2.942H2410.7c1.031,0,1.87,1.32,1.87,2.942v16.682l-.042.168h.042l-.792,3h0l.752-3h-18.229l-.425,3.152h17.865c0,1.6,0,1.8-1.038,1.8h-16.827c-.191,0-.377.013-.534.026l-.028,0C2393.154,4969.786,2393.027,4969.794,2392.907,4969.794Zm9-8.522a.07.07,0,0,0-.051.021.069.069,0,0,0-.021.051v.156a1.127,1.127,0,0,0,.162.6,1.054,1.054,0,0,0,.463.4,1.608,1.608,0,0,0,.69.141,1.38,1.38,0,0,0,.948-.315,1.07,1.07,0,0,0,.354-.837.98.98,0,0,0-.141-.538,1.226,1.226,0,0,0-.345-.357c-.139-.093-.359-.226-.636-.383-.212-.109-.368-.2-.477-.264a.853.853,0,0,1-.237-.216.478.478,0,0,1-.079-.277.491.491,0,0,1,.147-.375.582.582,0,0,1,.405-.135.648.648,0,0,1,.471.168.576.576,0,0,1,.171.425v.115a.07.07,0,0,0,.02.051.073.073,0,0,0,.051.021h.546a.071.071,0,0,0,.051-.021.07.07,0,0,0,.021-.051v-.126a1.165,1.165,0,0,0-.166-.619,1.108,1.108,0,0,0-.464-.417,1.556,1.556,0,0,0-.69-.147,1.332,1.332,0,0,0-.907.3,1.15,1.15,0,0,0-.192,1.386,1.361,1.361,0,0,0,.372.388,5.347,5.347,0,0,0,.589.338c.213.111.374.2.477.267a.881.881,0,0,1,.237.216.466.466,0,0,1,.085.279.5.5,0,0,1-.154.377.6.6,0,0,1-.429.145.7.7,0,0,1-.48-.162.543.543,0,0,1-.18-.42v-.12a.073.073,0,0,0-.072-.072Zm2.958-2.874a.074.074,0,0,0-.051.02.073.073,0,0,0-.021.052v.461a.07.07,0,0,0,.072.071h.894a.027.027,0,0,1,.03.031v3.492a.072.072,0,0,0,.071.071h.552a.073.073,0,0,0,.072-.071v-3.492a.027.027,0,0,1,.03-.031h.929a.069.069,0,0,0,.051-.02.064.064,0,0,0,.021-.051v-.461a.07.07,0,0,0-.021-.052.073.073,0,0,0-.051-.02Zm-4.284,0a.073.073,0,0,0-.051.02.075.075,0,0,0-.021.052v4.056a.067.067,0,0,0,.021.05.065.065,0,0,0,.051.021h.552a.073.073,0,0,0,.071-.071v-4.056a.07.07,0,0,0-.021-.052.072.072,0,0,0-.05-.02Zm-2.688,2.394h1.14a.026.026,0,0,1,.03.03v1.705a.067.067,0,0,0,.021.05.065.065,0,0,0,.051.021h.551a.073.073,0,0,0,.073-.071v-4.056a.075.075,0,0,0-.021-.052.073.073,0,0,0-.051-.02h-.551a.073.073,0,0,0-.051.02.075.075,0,0,0-.021.052v1.685a.026.026,0,0,1-.03.03h-1.14a.026.026,0,0,1-.03-.03v-1.685a.075.075,0,0,0-.021-.052.073.073,0,0,0-.051-.02h-.551a.074.074,0,0,0-.051.02.073.073,0,0,0-.021.052v4.056a.073.073,0,0,0,.072.071h.551a.073.073,0,0,0,.072-.071v-1.705A.026.026,0,0,1,2397.893,4960.792Zm-.163-5.716v1.4h9.107v-1.4Zm6.71-4.208v3.274h1.438v-3.274Zm-2.876,0v3.274H2403v-3.274Zm-2.875,0v3.274h1.437v-3.274Zm3.594-4.212h0l-4.554,2.34v.934h9.107V4949l-4.554-2.34Z" transform="translate(-1825.871 -4611)" fill="#fff"/>
    </g>
  </g>
</svg>
