<svg xmlns="http://www.w3.org/2000/svg" width="49.912" height="70" viewBox="0 0 49.912 70">
  <g id="Group_18475" data-name="Group 18475" transform="translate(-462.365 -294.574)">
    <text id="Drawing" transform="translate(465.926 361.574)" fill="#2e2e2e" font-size="14" font-family="BarlowSemiCondensed-SemiBold, Barlow" font-weight="600"><tspan x="0" y="0">Drawing</tspan></text>
    <g id="Drawing-2" data-name="Drawing" transform="translate(-6.635 -28.426)">
      <path id="Path_12132" data-name="Path 12132" d="M24.956,0A24.956,24.956,0,1,1,0,24.956,24.956,24.956,0,0,1,24.956,0Z" transform="translate(469 323)" fill="#798ed1"/>
      <path id="Union_19" data-name="Union 19" d="M3415.814,5366.024a1.809,1.809,0,0,0,1.376-2.215,2.651,2.651,0,0,1,2.063-3.322,3.668,3.668,0,0,1,1.465-.119l.112-1.6,6.035-10.207a5,5,0,0,1,2.954-1.116c.5.208.855,2.159.587,2.59l-6.164,9.923-1.74,1.221a2.4,2.4,0,0,1,.612.922c.664,1.815-.568,3.8-2.75,4.429a5.985,5.985,0,0,1-1.657.228A5.864,5.864,0,0,1,3415.814,5366.024Zm8.269-3.8a3.015,3.015,0,0,0-.726-1.152l1.635-1.065,5.9-9.271a2.4,2.4,0,0,1,.4,1.979l-.4,1.441.256.773,2.086,1.041a5.548,5.548,0,0,0,1.193.136,4.126,4.126,0,0,0,.664-.051,4.32,4.32,0,0,1,.688-.053,5.6,5.6,0,0,1,1.206.136,4.669,4.669,0,0,1,1.8.778c.442.342.634.711.543,1.037-.392,1.4-1.642,2.564-3.615,3.374a19.637,19.637,0,0,1-7.275,1.2A32.092,32.092,0,0,1,3424.083,5362.225Zm1.453-2.084c0,.692,1.267,1.257,2.824,1.257s2.826-.564,2.826-1.257-1.267-1.259-2.826-1.259S3425.537,5359.446,3425.537,5360.141Zm-7.788.62a24.887,24.887,0,0,1-7.35-3.728c-2.654-2.058-3.813-4.269-3.266-6.224.819-2.92,4.94-4.806,10.5-4.806a27.087,27.087,0,0,1,5.862.662,18.5,18.5,0,0,1,3.3,1.053l-5.913,9.758a5.438,5.438,0,0,0-1.245-.435,5.648,5.648,0,0,0-1.214-.139c-.986,0-1.68.292-1.81.762-.093.328.1.7.543,1.039a4.642,4.642,0,0,0,1.8.779,5.668,5.668,0,0,0,1.214.139c.1,0,.194,0,.287-.01l-.016.191c-.09-.011-.191-.023-.3-.032a.915.915,0,0,0-.093,0,3.235,3.235,0,0,0-1.534.521c-.273.159-.531.319-.762.474Zm-7.609-7.124c-.092.326.1.7.543,1.038a4.639,4.639,0,0,0,1.8.778,5.616,5.616,0,0,0,1.213.139c.985,0,1.68-.292,1.812-.762a.71.71,0,0,0-.1-.564,3.622,3.622,0,0,0-2.239-1.252,5.641,5.641,0,0,0-1.212-.138C3410.968,5352.875,3410.273,5353.167,3410.14,5353.637Zm1.14-4.067c-.09.327.1.695.544,1.037a4.642,4.642,0,0,0,1.8.778,5.634,5.634,0,0,0,1.212.139c.986,0,1.68-.293,1.813-.764.09-.326-.1-.693-.545-1.036a4.625,4.625,0,0,0-1.8-.78,5.615,5.615,0,0,0-1.212-.139C3412.106,5348.806,3411.411,5349.1,3411.279,5349.569Zm7.84-.853a.731.731,0,0,0,.136.62,3.725,3.725,0,0,0,2.2,1.2,5.683,5.683,0,0,0,1.212.137c.987,0,1.682-.292,1.813-.762.093-.326-.1-.695-.543-1.039a4.636,4.636,0,0,0-1.8-.777,5.557,5.557,0,0,0-1.214-.139C3419.944,5347.954,3419.25,5348.247,3419.12,5348.717Z" transform="translate(-2250.927 -5385.677) rotate(7)" fill="#fff"/>
    </g>
  </g>
</svg>
