<svg xmlns="http://www.w3.org/2000/svg" width="62" height="68.952" viewBox="0 0 62 68.952">
  <g id="Group_18488" data-name="Group 18488" transform="translate(-1537.969 -292.17)">
    <text id="Economics" transform="translate(1537.969 358.122)" fill="#2e2e2e" font-size="14" font-family="BarlowSemiCondensed-SemiBold, Barlow" font-weight="600"><tspan x="0" y="0">Economics</tspan></text>
    <g id="History41" transform="translate(992.057 -29.83)">
      <path id="Path_12132" data-name="Path 12132" d="M24.956,0A24.956,24.956,0,1,1,0,24.956,24.956,24.956,0,0,1,24.956,0Z" transform="translate(551.456 322)" fill="rgba(45,121,17,0.95)"/>
      <path id="Union_32" data-name="Union 32" d="M1414.886,4967.505v-13.281h2.546v13.281Zm-5.094,0v-11.72h2.547v11.72Zm-5.093,0v-13.281h2.547v13.281Zm-5.093,0v-8.854h2.546v8.854Zm-5.094,0v-7.451h2.547v7.451Zm-.919-13.883a3.91,3.91,0,0,1,4.057-3.74,4.127,4.127,0,0,1,3.525,1.887l5-3.3,3.958,2.606,4.83-3.18-2.266-1.492h5.938v3.911l-2.266-1.492-6.235,4.1-3.958-2.607-4.487,2.955a3.48,3.48,0,0,1,.018.353,4.071,4.071,0,0,1-8.115,0Zm3.546,2.27v.722h1.083v-.714c.707-.124,1.262-.5,1.267-1.182,0-.942-.876-1.268-1.7-1.462s-1.083-.4-1.083-.714c0-.359.365-.613.974-.613.642,0,.881.284.9.7h.8a1.355,1.355,0,0,0-1.157-1.268v-.729h-1.083v.722c-.7.138-1.262.557-1.262,1.2,0,.767.689,1.148,1.7,1.373.9.2,1.083.49,1.083.8,0,.228-.18.594-.975.594-.742,0-1.034-.307-1.075-.7h-.8A1.449,1.449,0,0,0,1397.139,4955.893Z" transform="translate(-829.561 -4609.999)" fill="#fff"/>
    </g>
  </g>
</svg>
