<svg xmlns="http://www.w3.org/2000/svg" width="67" height="90" viewBox="0 0 67 90">
  <g id="Group_18493" data-name="Group 18493" transform="translate(-332.555 -406.035)">
    <text id="Engineering_Graphics" data-name="Engineering
   Graphics" transform="translate(332.555 473.035)" fill="#2e2e2e" font-size="14" font-family="BarlowSemiCondensed-SemiBold, Barlow" font-weight="600"><tspan x="0" y="0">Engineering</tspan><tspan x="0" y="20" xml:space="preserve">   Graphics</tspan></text>
    <g id="History37" transform="translate(-209.813 84.035)">
      <path id="Path_12132" data-name="Path 12132" d="M24.956,0A24.956,24.956,0,1,1,0,24.956,24.956,24.956,0,0,1,24.956,0Z" transform="translate(551.456 322)" fill="rgba(80,85,9,0.95)"/>
      <path id="Subtraction_57" data-name="Subtraction 57" d="M2597.549,4895.35h-10.59v-11.381h-3.971v-8.346c0-1.674,2.375-3.036,5.3-3.036h7.943c2.92,0,5.3,1.362,5.3,3.036v8.346h-3.972v11.38Zm-.136-20.524a2.924,2.924,0,0,0-2.277,1.229,5.217,5.217,0,0,0-.819,4.489l-4.6,5.859a.78.78,0,0,0-.016.914l1.111,1.52a.465.465,0,0,0,.388.262.349.349,0,0,0,.3-.183l4.6-5.86a2.452,2.452,0,0,0,1.175.3,2.9,2.9,0,0,0,2.253-1.223,5.373,5.373,0,0,0,.727-4.817l-2.175,2.77-1.448-1.983,2.176-2.834A2.47,2.47,0,0,0,2597.412,4874.826Zm-10.947,6.268a.139.139,0,0,1,.041.01l.005,0c.138.062.289.124.459.188a.077.077,0,0,1,.059.085c0,.221,0,.446,0,.673a.3.3,0,0,0,.344.333h1.721a.307.307,0,0,0,.346-.339c0-.217,0-.441,0-.666,0-.054.022-.069.068-.09.157-.058.309-.12.451-.185a.111.111,0,0,1,.045-.011.093.093,0,0,1,.063.032c.114.114.231.229.345.34l.034.033.1.1a.36.36,0,0,0,.244.115.348.348,0,0,0,.24-.115c.222-.214.445-.43.679-.66l.107-.1.16-.155.276-.271a.293.293,0,0,0,0-.472l-.077-.076-.025-.022-.02-.02,0,0c-.119-.115-.242-.233-.362-.354a.1.1,0,0,1-.019-.083c.046-.11.094-.219.14-.324l0-.006.032-.073.052-.116h.729c.244,0,.358-.112.358-.352,0-.544,0-1.1,0-1.644,0-.235-.118-.35-.36-.35h-.261c-.135,0-.275,0-.414,0a.079.079,0,0,1-.086-.059c-.071-.185-.128-.319-.183-.435a.086.086,0,0,1,.021-.119c.16-.151.313-.3.483-.467a.346.346,0,0,0,.117-.238.327.327,0,0,0-.117-.23c-.418-.41-.835-.816-1.227-1.2a.347.347,0,0,0-.235-.113.353.353,0,0,0-.241.116c-.152.146-.313.3-.443.431l-.046.046a.08.08,0,0,1-.059.031.153.153,0,0,1-.051-.012c-.154-.067-.311-.128-.446-.181-.048-.016-.07-.034-.07-.091,0-.226,0-.45,0-.666a.3.3,0,0,0-.344-.333h-1.727a.3.3,0,0,0-.34.335v.721l-.128.053c-.135.057-.274.116-.417.171l-.009,0a.133.133,0,0,1-.069-.032l-.211-.206-.1-.093-.006-.006-.008-.008-.164-.158a.31.31,0,0,0-.488,0l-.451.44q-.243.238-.488.474l-.052.051-.208.2a.37.37,0,0,0-.137.254.375.375,0,0,0,.139.257l.132.128.145.141.227.221-.037.092-.031.073-.011.028-.031.075c-.034.082-.069.167-.107.253a.1.1,0,0,1-.075.042h-.693a.308.308,0,0,0-.344.335v1.673a.306.306,0,0,0,.35.336h.684a.082.082,0,0,1,.09.062c.052.136.113.282.182.434a.086.086,0,0,1-.018.121c-.1.088-.191.181-.276.262l-.047.046-.007.006-.073.071-.073.07a.351.351,0,0,0-.126.246.336.336,0,0,0,.122.236l.186.182.3.292.218.212q.257.25.515.5a.351.351,0,0,0,.241.117.358.358,0,0,0,.243-.117l.141-.138.049-.047c.1-.1.2-.193.3-.292A.077.077,0,0,1,2586.466,4881.094Zm2.371.7h-1.205v-.665a.3.3,0,0,0-.257-.323,3.672,3.672,0,0,1-.784-.317.423.423,0,0,0-.2-.06.331.331,0,0,0-.235.118l-.346.345-.036.037-.076.076-.311-.3-.223-.216-.184-.178-.145-.14.014-.014.012-.012.025-.025.053-.053.09-.087.084-.082.006-.006.177-.171a.3.3,0,0,0,.06-.429,3.386,3.386,0,0,1-.321-.757.3.3,0,0,0-.342-.254h-.672v-1.174h.7a.3.3,0,0,0,.307-.226,3.442,3.442,0,0,1,.344-.816.287.287,0,0,0-.058-.383l-.07-.07c-.136-.135-.273-.268-.407-.4l.3-.292.294-.284.122-.118.131-.127.031.025.01.008.1.094.114.111.017.016c.073.07.145.14.218.209a.323.323,0,0,0,.222.1.354.354,0,0,0,.179-.054,3.353,3.353,0,0,1,.8-.323.3.3,0,0,0,.257-.33v-.656h1.205v.593c0,.028,0,.055,0,.083a.291.291,0,0,0,.235.3,3.946,3.946,0,0,1,.859.347.284.284,0,0,0,.139.038.322.322,0,0,0,.221-.1l.225-.217.046-.044.1-.1.062-.061a.509.509,0,0,0,.039-.049l.009-.011.15.146.13.126.138.134.114.11.114.11.22.213c-.089.083-.184.175-.273.262l-.154.146a.817.817,0,0,0-.083.083.282.282,0,0,0-.038.341,3.523,3.523,0,0,1,.353.828.3.3,0,0,0,.317.224h.689v1.174h-.087c-.205,0-.418,0-.628,0a.283.283,0,0,0-.289.214,3.567,3.567,0,0,1-.352.83.286.286,0,0,0,.057.372l.2.2.008.007.031.031c.037.034.073.069.109.1l.012.012.066.063,0,0a.35.35,0,0,1,.048.049c-.132.126-.261.252-.393.38l-.128.125-.2.193-.077.075-.061.06-.06-.061-.062-.062-.126-.126c-.069-.069-.14-.139-.21-.208a.335.335,0,0,0-.237-.117.431.431,0,0,0-.2.059,3.66,3.66,0,0,1-.784.317.3.3,0,0,0-.258.335v.651Zm-.6-5.638a1.475,1.475,0,0,0-1.4,1.536,1.6,1.6,0,0,0,.408,1.083,1.319,1.319,0,0,0,.988.452h.006a1.543,1.543,0,0,0,0-3.071Zm.01,2.635h-.015a1.1,1.1,0,0,1-.006-2.2h.02a1.046,1.046,0,0,1,.989,1.1A1.057,1.057,0,0,1,2588.243,4878.789Zm4.01-7.719a7.669,7.669,0,0,1-3.75-.886,2.267,2.267,0,0,1,0-4.3,8.375,8.375,0,0,1,7.5,0,2.267,2.267,0,0,1,0,4.3A7.669,7.669,0,0,1,2592.253,4871.07Z" transform="translate(-2015.842 -4534.429)" fill="#fff"/>
    </g>
  </g>
</svg>
