<svg xmlns="http://www.w3.org/2000/svg" width="51" height="70" viewBox="0 0 51 70">
  <g id="Group_18490" data-name="Group 18490" transform="translate(-52.555 -406.035)">
    <text id="Bio_Tech." data-name="Bio Tech." transform="translate(52.555 473.035)" fill="#2e2e2e" font-size="14" font-family="BarlowSemiCondensed-SemiBold, Barlow" font-weight="600"><tspan x="0" y="0">Bio Tech.</tspan></text>
    <g id="Maths39" transform="translate(-1491.445 -57.965)">
      <ellipse id="Ellipse_261" data-name="Ellipse 261" cx="24.956" cy="24.956" rx="24.956" ry="24.956" transform="translate(1545 464)" fill="#1f05c5"/>
      <path id="Union_36" data-name="Union 36" d="M3890.006,5034.777a.91.91,0,0,1-1.04-.986c0-.665,0-1.329,0-1.993a.227.227,0,0,0-.183-.25q-.7-.259-1.391-.552a.237.237,0,0,0-.311.049c-.488.475-.984.941-1.481,1.41a.955.955,0,0,1-1.467,0q-1.848-1.75-3.69-3.505a.863.863,0,0,1,.014-1.428c.478-.452.951-.908,1.439-1.352a.25.25,0,0,0,.059-.354c-.2-.421-.385-.849-.553-1.283a.259.259,0,0,0-.3-.189c-.682.01-1.366,0-2.048,0s-1.059-.341-1.06-.993q0-2.479,0-4.957a.919.919,0,0,1,1.042-.991c.273,0,.546,0,.82,0,.425,0,.85,0,1.276,0a.3.3,0,0,0,.231-.126c.225-.5.432-1.012.656-1.544l-1.529-1.452a.89.89,0,0,1,0-1.513q1.818-1.729,3.638-3.455a.95.95,0,0,1,1.48,0c.489.462.974.93,1.467,1.389.058.053.178.11.236.087.548-.207,1.089-.433,1.652-.661,0-.7,0-1.419,0-2.135a.9.9,0,0,1,1.029-1q2.621-.008,5.241,0a.911.911,0,0,1,1.04.99c0,.656.008,1.313,0,1.969,0,.162.058.22.21.275.455.163.9.341,1.348.528a.26.26,0,0,0,.336-.052c.486-.475.984-.943,1.479-1.412a.942.942,0,0,1,1.444,0q1.863,1.767,3.724,3.538a.855.855,0,0,1,0,1.38c-.485.467-.972.934-1.468,1.39a.25.25,0,0,0-.059.354c.2.419.382.85.556,1.281a.233.233,0,0,0,.26.173c.682-.006,1.366,0,2.048,0,.734,0,1.093.341,1.093,1.039q0,2.434,0,4.865c0,.7-.352,1.038-1.089,1.038h-2.209c-.239.53-.47,1.03-.684,1.537a.272.272,0,0,0,.06.248c.488.475.987.939,1.482,1.408a.857.857,0,0,1,0,1.4q-1.852,1.763-3.706,3.521a.958.958,0,0,1-1.468-.009c-.489-.462-.98-.925-1.463-1.4a.251.251,0,0,0-.33-.06c-.45.195-.907.373-1.368.545-.14.052-.2.112-.2.263.01.656.006,1.313,0,1.969a.92.92,0,0,1-1.054,1h-5.217Zm-2.367-5.613a10.942,10.942,0,0,0,2.378.934.891.891,0,0,1,.773.954c.005.571,0,1.144,0,1.713v.258h3.653v-.264c0-.556,0-1.112,0-1.668a.9.9,0,0,1,.783-.994,11.251,11.251,0,0,0,2.378-.934.975.975,0,0,1,1.314.169c.474.455.941.915,1.389,1.35.885-.84,1.739-1.65,2.6-2.47-.035-.036-.09-.092-.145-.146-.438-.415-.88-.825-1.313-1.243a.831.831,0,0,1-.174-1.1,10.178,10.178,0,0,0,1.064-2.451.873.873,0,0,1,.879-.638c.634-.007,1.269,0,1.9,0h.265v-3.475c-.709,0-1.4,0-2.09,0a.9.9,0,0,1-.96-.665,10.252,10.252,0,0,0-1.069-2.45.814.814,0,0,1,.115-1.011c.08-.087.168-.168.254-.249l1.289-1.208-2.618-2.486a1.688,1.688,0,0,1-.146.182c-.435.417-.868.834-1.309,1.245a.914.914,0,0,1-1.093.171,12.426,12.426,0,0,0-2.6-1.025.869.869,0,0,1-.713-.906c0-.124,0-.246,0-.37v-1.63h-3.652V5009c0,.563,0,1.127,0,1.69a.876.876,0,0,1-.773.973,10.4,10.4,0,0,0-2.42.957.953.953,0,0,1-1.218-.131c-.456-.419-.9-.849-1.351-1.272-.051-.047-.106-.088-.123-.1l-2.573,2.432c.473.454.96.919,1.443,1.386a.835.835,0,0,1,.17,1.137,9.966,9.966,0,0,0-1.041,2.41.893.893,0,0,1-.933.672c-.56.007-1.121,0-1.682,0h-.436v3.475h2.041a.919.919,0,0,1,1.034.753,9.671,9.671,0,0,0,.974,2.239.878.878,0,0,1-.183,1.268c-.413.392-.83.783-1.245,1.175-.061.058-.116.12-.153.155l2.614,2.471c.45-.442.914-.906,1.387-1.362a1.023,1.023,0,0,1,.714-.346A1.286,1.286,0,0,1,3887.64,5029.164Zm3.7-1.04-.778-.2a3.341,3.341,0,0,0,.379-.4,2.628,2.628,0,0,0,.272-.418l-4.9-1.764a3.415,3.415,0,0,0-.494.5,2.451,2.451,0,0,0-.409.742l-.767-.2a2.863,2.863,0,0,1,.445-.78,5.059,5.059,0,0,1,2.367-1.542,9.557,9.557,0,0,1,2.92-.488,3.5,3.5,0,0,1-.994-1.7,2.532,2.532,0,0,1,.543-2.143,5.1,5.1,0,0,1,2.367-1.542,8.968,8.968,0,0,1,2.044-.436,3.33,3.33,0,0,1-.82-1.518,2.538,2.538,0,0,1,.542-2.146,3.7,3.7,0,0,1,.406-.431l.681.294a3.374,3.374,0,0,0-.355.38,2.709,2.709,0,0,0-.2.283l4.636,2.042a3.432,3.432,0,0,0,.677-.641l.685.3a5.145,5.145,0,0,1-2.319,1.482,9.1,9.1,0,0,1-2.044.436,3.345,3.345,0,0,1,.82,1.52,2.525,2.525,0,0,1-.542,2.142,5.088,5.088,0,0,1-2.367,1.54,9.582,9.582,0,0,1-2.919.488,3.49,3.49,0,0,1,.993,1.7,2.506,2.506,0,0,1-.543,2.138,3.605,3.605,0,0,1-.33.365Zm-4.452-3.178,4.515,1.643a2.026,2.026,0,0,0,.019-.845l-3.443-1.272A5.553,5.553,0,0,0,3886.89,5024.946Zm2.005-.7,2.29.829a3.352,3.352,0,0,0-.786-.95h-.092A8.116,8.116,0,0,0,3888.9,5024.246Zm2.306-.883h.091a8.127,8.127,0,0,0,1.552-.147l-2.619-1.27A3,3,0,0,0,3891.2,5023.363Zm-1.059-2.069,3.484,1.721a5.61,5.61,0,0,0,1-.424l-4.292-2.094A2.1,2.1,0,0,0,3890.143,5021.293Zm.519-1.326c-.016.019-.031.039-.047.06l4.565,2.2a3.335,3.335,0,0,0,.6-.58l.02-.025-4.546-2.235A3.365,3.365,0,0,0,3890.662,5019.968Zm1.118-.926,4.3,2.137a2.078,2.078,0,0,0,.218-.865l-3.514-1.7A5.571,5.571,0,0,0,3891.781,5019.042Zm1.819-.642,2.617,1.291a2.971,2.971,0,0,0-.951-1.411h-.134l-.236,0-.012-.011-.009-.008A8.037,8.037,0,0,0,3893.6,5018.4Zm1.706-.7h.1c.094,0,.181,0,.267,0l.013.01.013.01a8.05,8.05,0,0,0,1.018-.1l-2.236-.988A3.187,3.187,0,0,0,3895.306,5017.7Zm-1.02-1.749,3.294,1.487a5.88,5.88,0,0,0,1.069-.421l-4.28-1.905A2.014,2.014,0,0,0,3894.286,5015.947Z" transform="translate(-2322.665 -4531.934)" fill="#fff" stroke="rgba(0,0,0,0)" stroke-miterlimit="10" stroke-width="1"/>
    </g>
  </g>
</svg>
