<svg xmlns="http://www.w3.org/2000/svg" width="49.912" height="70" viewBox="0 0 49.912 70">
  <g id="Group_18494" data-name="Group 18494" transform="translate(-439.643 -406.035)">
    <text id="Dance" transform="translate(447.555 473.035)" fill="#2e2e2e" font-size="14" font-family="BarlowSemiCondensed-SemiBold, Barlow" font-weight="600"><tspan x="0" y="0">Dance</tspan></text>
    <g id="History36" transform="translate(-111.813 84.035)">
      <path id="Path_12132" data-name="Path 12132" d="M24.956,0A24.956,24.956,0,1,1,0,24.956,24.956,24.956,0,0,1,24.956,0Z" transform="translate(551.456 322)" fill="rgba(180,23,23,0.95)"/>
      <path id="Union_38" data-name="Union 38" d="M2505.368,4889.294v-5.5h-2.663l-1.237,5.5h-2.1l1.092-5.5h-.036a1,1,0,0,1-.786-1.619l1.87-3.663.659-3.32-1.8.7v3.4h-2v-4.7l5.2-2.2c.3,0,.5-.1.8-.1a2.06,2.06,0,0,1,1.7,1l1,1.6a4.92,4.92,0,0,0,4.3,2.4v2a7.328,7.328,0,0,1-5.5-2.5l-.405,2.028,2.635,3.354a1,1,0,0,1-.729,1.616v5.5Zm9.23-.707v-8.229l1.7-2.194-.485-3.291a5.423,5.423,0,0,1-4.441,2.742v-2.194a3.921,3.921,0,0,0,3.471-2.633l.809-1.756a1.66,1.66,0,0,1,1.372-1.1c.243,0,.4.109.647.109l4.2,2.415v5.156h-1.615v-3.73l-1.454-.769,1.292,8.887,3.956-1.1.324,2.194-5.653,1.537-.807-4.828-1.7,2.194v6.583Zm-10.731-18.793a2,2,0,1,1,2,2A2.007,2.007,0,0,1,2503.867,4869.794Zm10.327-2.6c0-1.208.727-2.194,1.615-2.194s1.615.987,1.615,2.194-.727,2.194-1.615,2.194S2514.194,4868.4,2514.194,4867.194Z" transform="translate(-1934.957 -4529.794)" fill="#fff"/>
      <path id="ic_audiotrack_24px" d="M8.33,3V7.45a1.423,1.423,0,0,0-.583-.134A1.983,1.983,0,0,0,6,9.474a1.983,1.983,0,0,0,1.748,2.158A1.927,1.927,0,0,0,9.476,9.714H9.5V4.439h1.554V3Z" transform="translate(564.615 323.213) rotate(33)" fill="#fff"/>
      <path id="ic_audiotrack_24px-2" data-name="ic_audiotrack_24px" d="M8.33,3V7.45a1.423,1.423,0,0,0-.583-.134A1.983,1.983,0,0,0,6,9.474a1.983,1.983,0,0,0,1.748,2.158A1.927,1.927,0,0,0,9.476,9.714H9.5V4.439h1.554V3Z" transform="translate(579.88 343.77) rotate(-147)" fill="#fff"/>
    </g>
  </g>
</svg>
