<svg xmlns="http://www.w3.org/2000/svg" width="50.912" height="90" viewBox="0 0 50.912 90">
  <g id="Group_18491" data-name="Group 18491" transform="translate(-130.555 -406.035)">
    <text id="Business_Study" data-name="Business
   Study" transform="translate(130.555 473.035)" fill="#2e2e2e" font-size="14" font-family="BarlowSemiCondensed-SemiBold, Barlow" font-weight="600"><tspan x="0" y="0">Business</tspan><tspan x="0" y="20" xml:space="preserve">   Study</tspan></text>
    <g id="Maths" transform="translate(-1413.445 -57.965)">
      <ellipse id="Ellipse_261" data-name="Ellipse 261" cx="24.956" cy="24.956" rx="24.956" ry="24.956" transform="translate(1545 464)" fill="#097066"/>
      <path id="Subtraction_54" data-name="Subtraction 54" d="M3800.907,5031.8c-.56,0-.906-.209-.906-1.249v-20.6c0-1.623.838-2.943,1.869-2.943H3818.7c1.031,0,1.869,1.32,1.869,2.943v16.682l-.042.167h.042l-.793,3h0l.753-3h-18.229l-.424,3.152h17.863c0,1.6,0,1.8-1.037,1.8H3801.87c-.179,0-.351.013-.5.024h-.031C3801.21,5031.785,3801.048,5031.8,3800.907,5031.8Zm16.5-8.238a.05.05,0,0,0-.034.014.049.049,0,0,0-.014.034v.1a.752.752,0,0,0,.109.4.7.7,0,0,0,.308.268,1.074,1.074,0,0,0,.46.095.913.913,0,0,0,.631-.211.713.713,0,0,0,.236-.558.656.656,0,0,0-.094-.357.849.849,0,0,0-.23-.239c-.1-.064-.243-.152-.424-.255-.151-.078-.252-.134-.318-.177a.531.531,0,0,1-.158-.144.311.311,0,0,1-.052-.183.324.324,0,0,1,.1-.25.385.385,0,0,1,.27-.091.43.43,0,0,1,.314.112.383.383,0,0,1,.114.284v.076a.051.051,0,0,0,.014.034.05.05,0,0,0,.034.014h.364a.048.048,0,0,0,.034-.014.046.046,0,0,0,.014-.034v-.084a.778.778,0,0,0-.11-.412.736.736,0,0,0-.309-.278,1.022,1.022,0,0,0-.461-.1.886.886,0,0,0-.6.2.768.768,0,0,0-.127.924.917.917,0,0,0,.248.258,3.5,3.5,0,0,0,.393.226c.141.073.248.132.317.178a.591.591,0,0,1,.159.144.317.317,0,0,1,.056.186.329.329,0,0,1-.1.253.407.407,0,0,1-.285.1.469.469,0,0,1-.321-.108.363.363,0,0,1-.12-.28v-.08a.045.045,0,0,0-.014-.034.046.046,0,0,0-.034-.014Zm-2.06,0a.048.048,0,0,0-.034.014.045.045,0,0,0-.014.034v.1a.751.751,0,0,0,.107.4.712.712,0,0,0,.308.268,1.082,1.082,0,0,0,.46.095.92.92,0,0,0,.633-.211.711.711,0,0,0,.236-.558.658.658,0,0,0-.093-.357.837.837,0,0,0-.231-.239c-.069-.046-.2-.128-.423-.255-.153-.079-.251-.134-.318-.177a.531.531,0,0,1-.158-.144.312.312,0,0,1-.053-.183.321.321,0,0,1,.1-.25.385.385,0,0,1,.27-.091.428.428,0,0,1,.314.112.384.384,0,0,1,.114.284v.076a.051.051,0,0,0,.014.034.048.048,0,0,0,.034.014h.364a.049.049,0,0,0,.034-.014.051.051,0,0,0,.014-.034v-.084a.778.778,0,0,0-.11-.412.734.734,0,0,0-.311-.278,1.025,1.025,0,0,0-.46-.1.881.881,0,0,0-.6.2.764.764,0,0,0-.128.924.9.9,0,0,0,.248.258,3.5,3.5,0,0,0,.392.226c.14.072.247.132.318.178a.581.581,0,0,1,.158.144.307.307,0,0,1,.057.186.329.329,0,0,1-.1.253.41.41,0,0,1-.287.1.463.463,0,0,1-.319-.108.363.363,0,0,1-.12-.28v-.08a.048.048,0,0,0-.014-.034.05.05,0,0,0-.034-.014Zm-7.408,0a.048.048,0,0,0-.034.014.045.045,0,0,0-.014.034v.1a.749.749,0,0,0,.108.4.7.7,0,0,0,.308.268,1.082,1.082,0,0,0,.46.095.92.92,0,0,0,.633-.211.716.716,0,0,0,.236-.558.644.644,0,0,0-.094-.357.817.817,0,0,0-.23-.239c-.1-.067-.247-.155-.424-.255-.138-.071-.245-.131-.318-.177a.567.567,0,0,1-.158-.144.317.317,0,0,1-.052-.183.322.322,0,0,1,.1-.25.384.384,0,0,1,.27-.091.427.427,0,0,1,.313.112.384.384,0,0,1,.114.284v.076a.047.047,0,0,0,.015.034.048.048,0,0,0,.034.014h.364a.05.05,0,0,0,.034-.014.051.051,0,0,0,.014-.034v-.084a.778.778,0,0,0-.11-.412.731.731,0,0,0-.311-.278,1.025,1.025,0,0,0-.46-.1.881.881,0,0,0-.6.2.681.681,0,0,0-.229.544.7.7,0,0,0,.1.38.927.927,0,0,0,.249.258,3.541,3.541,0,0,0,.392.226c.136.07.246.131.318.178a.582.582,0,0,1,.158.144.3.3,0,0,1,.055.186.333.333,0,0,1-.1.253.409.409,0,0,1-.287.1.463.463,0,0,1-.32-.108.355.355,0,0,1-.12-.28v-.08a.049.049,0,0,0-.014-.034.05.05,0,0,0-.034-.014Zm-2.165-1.916a.042.042,0,0,0-.034.014.046.046,0,0,0-.014.034v1.912a.935.935,0,0,0,.11.458.767.767,0,0,0,.311.306,1.037,1.037,0,0,0,.923,0,.771.771,0,0,0,.311-.306.935.935,0,0,0,.11-.458v-1.912a.046.046,0,0,0-.014-.034.044.044,0,0,0-.034-.014h-.369a.042.042,0,0,0-.033.014.043.043,0,0,0-.015.034v1.936a.454.454,0,0,1-.115.323.4.4,0,0,1-.3.125.389.389,0,0,1-.3-.125.459.459,0,0,1-.115-.323v-1.936a.048.048,0,0,0-.048-.048Zm7.608,0a.048.048,0,0,0-.048.048v2.7a.04.04,0,0,0,.014.033.044.044,0,0,0,.034.015h1.547a.045.045,0,0,0,.034-.014.043.043,0,0,0,.015-.034v-.3a.047.047,0,0,0-.015-.034.048.048,0,0,0-.034-.014h-1.111c-.014,0-.02-.006-.02-.019v-.769a.018.018,0,0,1,.02-.02h.712a.048.048,0,0,0,.048-.047v-.3a.046.046,0,0,0-.014-.034.045.045,0,0,0-.034-.014h-.712a.018.018,0,0,1-.02-.021v-.752c0-.013.007-.019.02-.019h1.111a.041.041,0,0,0,.034-.015.042.042,0,0,0,.015-.034v-.3a.042.042,0,0,0-.015-.034.041.041,0,0,0-.034-.014Zm-1.907,1h0c.006,0,.009,0,.012.014l.88,1.748a.064.064,0,0,0,.057.037h.367a.046.046,0,0,0,.034-.014.048.048,0,0,0,.014-.034v-2.7a.048.048,0,0,0-.014-.034.042.042,0,0,0-.034-.014h-.364a.048.048,0,0,0-.048.048v1.724c0,.01,0,.016-.01.018h0c-.008,0-.011,0-.014-.014l-.876-1.74a.055.055,0,0,0-.056-.036h-.369a.044.044,0,0,0-.034.014.046.046,0,0,0-.014.034v2.7a.048.048,0,0,0,.014.034.051.051,0,0,0,.034.014h.364a.045.045,0,0,0,.034-.014.043.043,0,0,0,.015-.034l0-1.731c0-.007,0-.017.01-.019Zm-1.389-1a.041.041,0,0,0-.034.014.044.044,0,0,0-.015.034v2.7a.044.044,0,0,0,.015.034.045.045,0,0,0,.034.014h.367a.047.047,0,0,0,.034-.014.048.048,0,0,0,.014-.034v-2.7a.046.046,0,0,0-.014-.034.045.045,0,0,0-.034-.014Zm-6.457,0a.047.047,0,0,0-.034.014.046.046,0,0,0-.014.034v2.7a.046.046,0,0,0,.014.034.05.05,0,0,0,.034.014h.853a.915.915,0,0,0,.61-.2.8.8,0,0,0-.13-1.238s-.007-.006-.007-.01,0-.009.011-.014a.61.61,0,0,0,.324-.584.7.7,0,0,0-.226-.566.958.958,0,0,0-.63-.189Zm11.7-9.842a1.035,1.035,0,0,0-1,1.064v7.475h2v-7.475A1.035,1.035,0,0,0,3815.326,5011.8Zm-3,1.322a.955.955,0,0,0-1,.9v6.315h2v-6.315A.956.956,0,0,0,3812.326,5013.123Zm-3,1.474c-.551,0-1,.322-1,.717v5.026h2v-5.026C3810.327,5014.918,3809.877,5014.6,3809.325,5014.6Zm-3,1.474c-.552,0-1,.239-1,.532v3.738h2V5016.6C3807.326,5016.309,3806.877,5016.07,3806.326,5016.07Zm.021-3.744h0l.594.566v1.1l-1.874,1.138.567.739,8.711-5.25-.538-.787-6.3,3.817v-1.178l-.6-.567.17-.85a2.061,2.061,0,0,0,1.56.708v-.566a1.4,1.4,0,0,1-1.22-.682l-.283-.453a.585.585,0,0,0-.483-.283.51.51,0,0,0-.112.014.545.545,0,0,1-.115.014l-1.474.624v1.333h.566v-.965l.511-.2-.794,4h.595l.511-2.27Zm.737-3.829a.568.568,0,1,0,.568.567A.568.568,0,0,0,3807.085,5008.5Zm-2.619,15.542h-.4c-.013,0-.019-.006-.019-.02v-.812a.017.017,0,0,1,.019-.019h.4a.384.384,0,0,1,.292.114.508.508,0,0,1,0,.625A.38.38,0,0,1,3804.466,5024.038Zm-.028-1.212h-.373c-.013,0-.019-.006-.019-.02v-.744a.017.017,0,0,1,.019-.019h.373a.4.4,0,0,1,.294.1.393.393,0,0,1,.106.292.383.383,0,0,1-.106.287A.409.409,0,0,1,3804.438,5022.826Z" transform="translate(-2240.327 -4530.443)" fill="#fff"/>
    </g>
  </g>
</svg>
