<svg xmlns="http://www.w3.org/2000/svg" width="49.912" height="70" viewBox="0 0 49.912 70">
  <g id="Group_18482" data-name="Group 18482" transform="translate(-1024.859 -294.574)">
    <g id="Group_18455" data-name="Group 18455" transform="translate(-519.685 -429.426)">
      <path id="Path_12132" data-name="Path 12132" d="M24.956,0A24.956,24.956,0,1,1,0,24.956,24.956,24.956,0,0,1,24.956,0Z" transform="translate(1544.544 724)" fill="#8d1153"/>
      <path id="Union_24" data-name="Union 24" d="M2914.916,5359.5c0-2.49,1.473-4.5,3.3-4.5a2.484,2.484,0,0,1,1.1.28V5346h2.162l.036,14h-.036c-.183,2.251-1.567,4-3.261,4C2916.389,5364,2914.916,5361.99,2914.916,5359.5Zm-9.866,0c0-2.49,1.473-4.5,3.3-4.5a2.485,2.485,0,0,1,1.1.28V5346h9.866v3h-7.668v11h-.037c-.183,2.251-1.567,4-3.261,4C2906.523,5364,2905.05,5361.99,2905.05,5359.5Z" transform="matrix(0.996, -0.087, 0.087, 0.996, -1795.633, -4324.758)" fill="#fff"/>
      <path id="ic_audiotrack_24px" d="M11.426,3v9.28A3.637,3.637,0,0,0,10.07,12,4.3,4.3,0,0,0,6,16.5,4.3,4.3,0,0,0,10.07,21a4.231,4.231,0,0,0,4.025-4h.045V6h3.618V3Z" transform="matrix(0.995, 0.105, -0.105, 0.995, 1550.612, 729.824)" fill="#fff"/>
    </g>
    <text id="Music" transform="translate(1033.365 361.574)" fill="#2e2e2e" font-size="14" font-family="BarlowSemiCondensed-SemiBold, Barlow" font-weight="600"><tspan x="0" y="0">Music</tspan></text>
  </g>
</svg>
