<svg xmlns="http://www.w3.org/2000/svg" width="49.912" height="69" viewBox="0 0 49.912 69">
  <g id="Group_18484" data-name="Group 18484" transform="translate(-1178.859 -294.574)">
    <g id="Group_18457" data-name="Group 18457" transform="translate(-365.685 -429.426)">
      <path id="Path_12132" data-name="Path 12132" d="M24.956,0A24.956,24.956,0,1,1,0,24.956,24.956,24.956,0,0,1,24.956,0Z" transform="translate(1544.544 724)" fill="#bc4b0a"/>
      <path id="Union_25" data-name="Union 25" d="M2829.885,5369.774a5.721,5.721,0,0,1-1.929-3.8l3.453-.418a3.27,3.27,0,0,0,.889,2.02,2.518,2.518,0,0,0,3.613-.141,3.248,3.248,0,0,0,.754-2.26,3.021,3.021,0,0,0-.724-2.132,2.3,2.3,0,0,0-1.764-.787,6.239,6.239,0,0,0-1.638.266l.393-2.906a3.136,3.136,0,0,0,2.21-.629,2.233,2.233,0,0,0,.762-1.771,1.923,1.923,0,0,0-2.044-2.057,2.157,2.157,0,0,0-1.561.634,2.987,2.987,0,0,0-.787,1.854l-3.287-.559a7.361,7.361,0,0,1,1.032-2.7,4.7,4.7,0,0,1,1.932-1.586,6.465,6.465,0,0,1,2.773-.576,5.538,5.538,0,0,1,4.214,1.674,4.375,4.375,0,0,1,1.308,3.1,3.822,3.822,0,0,1-.936,2.551,5.135,5.135,0,0,0,2.2-1.466l1.355-1.3a4.759,4.759,0,0,1,3.332-1.365,5.837,5.837,0,1,1,.018,11.673v-2.916a2.913,2.913,0,1,0,0-5.825,3.069,3.069,0,0,0-2.1.847l-1.859,1.816a5.913,5.913,0,0,1-2.189,1.36l.057.07a4.451,4.451,0,0,1,.957,2.882,5.592,5.592,0,0,1-1.789,4.176,6.686,6.686,0,0,1-8.646.273Zm7.915-20.788,1.383-.826a5.213,5.213,0,0,0,5.454,3.139,4.666,4.666,0,0,0,2.964-1.924l1.341,1.09a6.154,6.154,0,0,1-3.986,2.641,5.838,5.838,0,0,1-1.012.089A7.054,7.054,0,0,1,2837.8,5348.986Zm4.174-2.077a2,2,0,1,1,2,2A2,2,0,0,1,2841.974,5346.909Z" transform="translate(-1270.165 -4610.987)" fill="#fff" stroke="rgba(0,0,0,0)" stroke-linecap="round" stroke-miterlimit="10" stroke-width="1"/>
    </g>
    <text id="Sankrit" transform="translate(1183.365 360.574)" fill="#2e2e2e" font-size="14" font-family="BarlowSemiCondensed-SemiBold, Barlow" font-weight="600"><tspan x="0" y="0">Sankrit</tspan></text>
  </g>
</svg>
