<svg xmlns="http://www.w3.org/2000/svg" width="62" height="90" viewBox="0 0 62 90">
  <g id="Group_18497" data-name="Group 18497" transform="translate(-709.161 -406.035)">
    <text id="_Carnatic_Percussion" data-name="  Carnatic
Percussion" transform="translate(709.161 473.035)" fill="#2e2e2e" font-size="14" font-family="BarlowSemiCondensed-SemiBold, Barlow" font-weight="600"><tspan x="0" y="0" xml:space="preserve">  Carnatic</tspan><tspan x="0" y="20">Percussion</tspan></text>
    <g id="History33" transform="translate(161.25 84.035)">
      <path id="Path_12132" data-name="Path 12132" d="M24.956,0A24.956,24.956,0,1,1,0,24.956,24.956,24.956,0,0,1,24.956,0Z" transform="translate(551.456 322)" fill="rgba(55,90,90,0.95)"/>
      <path id="Union_42" data-name="Union 42" d="M2247.763,4895.049c-1.832-.561-2.722-3.263-3.146-5.432a17.712,17.712,0,0,1-.329-5.437.753.753,0,0,1,.273-.37.742.742,0,0,1-.019-.459c.322-1.056,3.373-1.061,6.8-.014.259.079.513.163.76.249-.112-1.056,2.064-2.937,5.1-4.353,3.248-1.515,6.27-1.934,6.737-.935a.745.745,0,0,1,.044.457c-.977-.544-3.674-.013-6.415,1.265-2.462,1.148-4.44,2.657-4.968,3.748.467.176.908.363,1.319.557a15.029,15.029,0,0,0,4.974-1.466c2.74-1.278,4.882-3,5.09-4.1a.745.745,0,0,1,.322.329,17.657,17.657,0,0,1,.431,5.428c-.118,2.207-.623,5.009-2.359,5.817-1.71.8-4.134-.563-5.895-1.874a21.582,21.582,0,0,1-3.078,3.847c-1.36,1.356-3.238,2.851-4.908,2.851A2.511,2.511,0,0,1,2247.763,4895.049Zm-3.2-11.238c.359,1.06,2.718,2.469,5.611,3.354a13.79,13.79,0,0,0,5.563.708,17.834,17.834,0,0,1-3.147-3.181c-.477-.188-.979-.364-1.5-.522a16.423,16.423,0,0,0-4.559-.781A3.459,3.459,0,0,0,2244.562,4883.811Zm-10.88,3.179c-2.294-2.55-3.782-5.1-.646-3.579a51.9,51.9,0,0,1,7.5-2.464s20.884-15.452,21.272-14.894l.38.384-20.1,16.744a17.352,17.352,0,0,1-3.29,5.881c.549,1.407.441,1.964-.05,1.964C2237.82,4891.028,2235.5,4889.009,2233.682,4886.99Z" transform="translate(-1673.142 -4533.642)" fill="#fff"/>
    </g>
  </g>
</svg>
