<svg xmlns="http://www.w3.org/2000/svg" width="60" height="70" viewBox="0 0 60 70">
  <g id="Group_18473" data-name="Group 18473" transform="translate(-288.365 -294.574)">
    <g id="Group_18098" data-name="Group 18098" transform="translate(-1251.635 -429.426)">
      <path id="Path_12132" data-name="Path 12132" d="M24.956,0A24.956,24.956,0,1,1,0,24.956,24.956,24.956,0,0,1,24.956,0Z" transform="translate(1544.544 724)" fill="#1b7b92"/>
      <path id="Union_15" data-name="Union 15" d="M2415.527,4976.25l-11.251-.207a1.316,1.316,0,0,1,.043-2.628l4.163.075c0-.011,0-.022,0-.033l-.038-2.281c0-.015,0-.028,0-.043a12.116,12.116,0,0,1-3.6-.226,8.794,8.794,0,0,1-2.437-.926c-.335-.186-.659-.386-.972-.6a1.306,1.306,0,0,1-1.54-1.812l.845-1.819a1.342,1.342,0,0,1,.266-.379,10.466,10.466,0,0,1-4.217-4.809,9.52,9.52,0,0,1-.759-3.089l-.025-.016.021-.047a8.808,8.808,0,0,1,.743-4.152,9,9,0,0,1,5.429-4.872,10.478,10.478,0,0,1,6.956.113,1.316,1.316,0,0,1,.119-.456l1.066-2.292a1.306,1.306,0,0,1,2.457.844,12.171,12.171,0,0,1,1.94,1.133,12.5,12.5,0,0,1,3.318,3.527,12.864,12.864,0,0,1,1.774,4.561,13.249,13.249,0,0,1-2.078,9.8,12.854,12.854,0,0,1-3.471,3.444,12.569,12.569,0,0,1-3.3,1.573l-.017.006a1.431,1.431,0,0,1,.092.483l.038,2.282c0,.043,0,.086,0,.129l4.479.083a1.317,1.317,0,0,1-.022,2.63Zm-10.243-7.535a10.122,10.122,0,0,0,5.067-.223,10.7,10.7,0,0,0,7.284-8.048,10.588,10.588,0,0,0-5.731-11.853l-.262.563a1.3,1.3,0,0,1-.309.418,10.455,10.455,0,0,1,4.027,4.691,8.93,8.93,0,0,1-5.408,12.177,10.456,10.456,0,0,1-6.723-.032,1.3,1.3,0,0,1-.119.452l-.343.738A9.162,9.162,0,0,0,2405.284,4968.715Zm-.347-3.53a8.463,8.463,0,0,0,5.8-.956l-3.5-1.179A21,21,0,0,1,2404.937,4965.185Zm-1.931-.593.032.015c.405-.393,1.286-1.258,2.208-2.229l-1.514-.51-.911-.52C2402.832,4962.755,2402.948,4964.04,2403.006,4964.592Zm-1.76-1a16.477,16.477,0,0,1-.31-3.314l-3.022-1.724A8.527,8.527,0,0,0,2401.246,4963.589Zm8.591-4.555-.016.028a8.619,8.619,0,0,1-.342.8,11.488,11.488,0,0,1-.812,1.4l4.011,1.357a7.281,7.281,0,0,0,1.643-3.561l-4.014-1.353A6.781,6.781,0,0,1,2409.837,4959.034Zm-5.825-3.073a5.7,5.7,0,0,1-.305.523.076.076,0,0,1-.007.042,4.82,4.82,0,0,0-.765,2.376l1.865,1.05,2.016.682a8.117,8.117,0,0,0,1.3-1.873s0,0,0,0a4.91,4.91,0,0,1,.319-.718,4.29,4.29,0,0,0,.331-.854l-2.423-.816-1.917-1.094A7.017,7.017,0,0,0,2404.012,4955.961Zm-5.645-1.986a7.266,7.266,0,0,0-.568,2.036l3.543,2a11.939,11.939,0,0,1,.995-2.3l.009-.013c.059-.119.127-.243.2-.372a9.229,9.229,0,0,1,.546-.8l-3.755-2.143A7.229,7.229,0,0,0,2398.367,4953.975Zm12.492.994c-.022.185-.053.4-.092.621l3.564,1.207a8.463,8.463,0,0,0-3.342-5.492A19.857,19.857,0,0,1,2410.859,4954.969Zm-5.032-1.406,1.585.893,1.726.584a38.905,38.905,0,0,0,.12-4.671A38.837,38.837,0,0,0,2405.827,4953.563Zm-4.814-2.712,3.492,1.967c1.034-1.161,2.194-2.332,2.992-3.113a8.81,8.81,0,0,0-1.9-.209A8.258,8.258,0,0,0,2401.012,4950.851Z" transform="translate(-838.527 -4211.669)" fill="#fff"/>
    </g>
    <text id="Geography" transform="translate(288.365 361.574)" fill="#2e2e2e" font-size="14" font-family="BarlowSemiCondensed-SemiBold, Barlow" font-weight="600"><tspan x="0" y="0">Geography</tspan></text>
  </g>
</svg>
