<svg xmlns="http://www.w3.org/2000/svg" width="49.912" height="68.048" viewBox="0 0 49.912 68.048">
  <g id="Group_18479" data-name="Group 18479" transform="translate(-784.909 -296.526)">
    <path id="Zoology" d="M.591,14.078a.173.173,0,0,1-.033,0A.152.152,0,0,1,.5,14.05a.174.174,0,0,1-.025-.022q-.048-.049-.048-.12V12.741q0-.113.055-.211L4.335,5.72q.041-.084-.055-.084l-3.69,0q-.069,0-.117-.049t-.048-.12V4.393q0-.07.048-.12t.117-.049l5.333.007q.068,0,.116.049t.048.12V5.567q0,.112-.055.211l-3.85,6.806q-.041.084.055.084l3.686,0q.068,0,.116.049t.048.119V13.9q0,.07-.048.12a.174.174,0,0,1-.025.022.152.152,0,0,1-.058.025.173.173,0,0,1-.033,0Zm9.338.1q-1.106,0-1.817-.608t-.861-1.649q-.109-.674-.109-1.447,0-.8.109-1.475.15-1.025.875-1.622t1.817-.6q1.078,0,1.788.6t.859,1.606q.109.7.109,1.472,0,.841-.1,1.445-.15,1.052-.859,1.663T9.929,14.174Zm0-1.4q.45,0,.758-.31t.375-.814q.055-.73.055-1.179t-.055-1.193q-.068-.505-.375-.8t-.758-.295q-.464,0-.765.295t-.369.8q-.055.491-.055,1.193T8.8,11.649q.068.505.369.814T9.929,12.77Zm6.676,1.392q-1.1,0-1.809-.606t-.858-1.646q-.109-.673-.109-1.444,0-.8.109-1.472.15-1.023.871-1.619t1.809-.595q1.074,0,1.78.6t.855,1.6q.109.7.109,1.469,0,.84-.1,1.442-.149,1.05-.855,1.66T16.605,14.162Zm0-1.4q.449,0,.754-.309t.374-.813q.054-.728.054-1.176t-.054-1.19q-.068-.5-.374-.8t-.754-.294q-.462,0-.762.294t-.367.8q-.054.49-.054,1.191t.054,1.177q.068.5.367.812T16.605,12.762Zm4.2,1.281a.17.17,0,0,1-.033,0,.149.149,0,0,1-.058-.024.172.172,0,0,1-.025-.021q-.047-.049-.047-.119V4.419q0-.07.047-.119t.115-.049l1.247,0q.068,0,.115.049t.047.119v9.452q0,.07-.047.119a.173.173,0,0,1-.025.021.15.15,0,0,1-.058.025.17.17,0,0,1-.033,0Zm5.415.1q-1.1,0-1.8-.6T23.565,11.9q-.108-.671-.108-1.439,0-.8.108-1.468.149-1.02.866-1.614t1.8-.593q1.067,0,1.769.594t.85,1.6q.108.7.108,1.465,0,.837-.094,1.437-.148,1.047-.85,1.655T26.216,14.146Zm0-1.4q.446,0,.75-.308t.371-.81q.054-.726.054-1.173t-.054-1.187q-.068-.5-.371-.8t-.75-.293q-.46,0-.757.293t-.365.8q-.054.489-.054,1.187t.054,1.173q.068.5.365.81T26.216,12.749ZM33.9,7.069q0-.07.047-.118t.114-.049H35.3q.067,0,.114.049t.047.118v6.572q0,1.615-.847,2.4t-2.449.793q-.189,0-.593-.026-.162-.014-.162-.181l.04-1.115q0-.167.175-.154.135.014.4.013,1.01,0,1.44-.435t.43-1.394v-.125q0-.042-.027-.056t-.054.028a1.7,1.7,0,0,1-.28.269,1.6,1.6,0,0,1-.329.192,1.788,1.788,0,0,1-.378.116,2.277,2.277,0,0,1-.427.039,2.565,2.565,0,0,1-.421-.033,2.182,2.182,0,0,1-.387-.1,2.042,2.042,0,0,1-.354-.167,2.128,2.128,0,0,1-.32-.234q-.607-.536-.755-1.526-.081-.418-.081-1.506,0-1.158.108-1.59.135-.948.7-1.506t1.455-.557q.929,0,1.467.628.027.028.054.021T33.9,7.39Zm-.04,4.583q.04-.529.04-1.212,0-.794-.054-1.254t-.336-.724q-.283-.279-.713-.279t-.714.279q-.283.279-.35.725-.081.516-.081,1.255,0,.683.067,1.213.067.446.364.724t.727.278q.444,0,.72-.28T33.861,11.652ZM36.7,16.786q-.04,0-.067-.049t-.027-.118v-1q0-.167.148-.167.5-.015.779-.12t.456-.4q.174-.3.282-.87.013-.028,0-.083L36.32,7.084l-.013-.056q0-.139.148-.139h1.329q.134,0,.174.139l1.073,4.757q.013.056.04.056t.04-.056l1.072-4.742q.04-.153.174-.153l1.3.015q.08,0,.114.049t.02.132L39.715,14.4q-.295.988-.6,1.475t-.831.7q-.53.21-1.51.213Z" transform="translate(789.062 347.479)" fill="#2e2e2e"/>
    <g id="Zoology-2" data-name="Zoology" transform="translate(752.409 -136.474)">
      <ellipse id="Ellipse_263" data-name="Ellipse 263" cx="24.956" cy="24.956" rx="24.956" ry="24.956" transform="translate(32.5 433)" fill="#40a74d"/>
      <path id="Union_23" data-name="Union 23" d="M2393.8,4967.224l-1.8-1.888,6.025-6.389.95,0,.338-.344a8.158,8.158,0,0,1-.793-1.162,8.467,8.467,0,0,1-.967-2.714,8.725,8.725,0,0,1,.485-4.715,8.23,8.23,0,0,1,1.676-2.62,7.724,7.724,0,0,1,2.478-1.758,7.365,7.365,0,0,1,2.989-.632h.037a7.378,7.378,0,0,1,3.018.662,7.766,7.766,0,0,1,2.456,1.77,8.269,8.269,0,0,1,1.653,2.613,8.6,8.6,0,0,1,.595,2.767h-2.376a6,6,0,0,0-.4-1.792,5.7,5.7,0,0,0-1.147-1.809,5.318,5.318,0,0,0-1.7-1.224,5.118,5.118,0,0,0-2.092-.454h-.019a5.1,5.1,0,0,0-2.078.44,5.348,5.348,0,0,0-1.713,1.216,5.647,5.647,0,0,0-1.156,1.813,6.04,6.04,0,0,0,0,4.453,5.665,5.665,0,0,0,1.156,1.814,5.327,5.327,0,0,0,1.713,1.219,5.086,5.086,0,0,0,1.8.434,1.8,1.8,0,0,1,.554-2.078c.72-.4,1.74.137,2.279,1.208s.393,2.269-.326,2.673a1.05,1.05,0,0,1-.521.135,2.191,2.191,0,0,1-1.758-1.343,3.163,3.163,0,0,1-.2-.509v2.453a7.345,7.345,0,0,1-1.141-.128,7.533,7.533,0,0,1-1.33-.386,7.625,7.625,0,0,1-1.227-.624,7.991,7.991,0,0,1-1.1-.833l-.325.356v1l-6.023,6.376h0Zm14.857-1.818a2,2,0,0,1-1.289-1.6c-.166-1.4.724-2.4,1.449-3.3.486-.7.889-1.3,1.371-2.006a2.5,2.5,0,0,1,.967-.911.99.99,0,0,1,.182-.061,1.83,1.83,0,0,1,.436-.035,2.13,2.13,0,0,1,.43.029.908.908,0,0,1,.183.061,2.484,2.484,0,0,1,.967.91c.486.7.89,1.3,1.371,2.006.723.9,1.613,1.9,1.442,3.31a2.017,2.017,0,0,1-1.288,1.6c-.4.1-1.692-.3-3.063-.3h-.1c-1.217,0-2.367.319-2.893.319A.717.717,0,0,1,2408.659,4965.406Zm6.541-5.183c-.7-.535-.651-1.856.1-2.951s1.927-1.55,2.624-1.015.652,1.856-.1,2.952a2.567,2.567,0,0,1-1.933,1.238A1.114,1.114,0,0,1,2415.2,4960.223Zm-7.6-4.733c-.14-1.206.44-2.271,1.294-2.382s1.662.775,1.8,1.979-.439,2.272-1.294,2.382a1.127,1.127,0,0,1-.145.01C2408.459,4957.479,2407.735,4956.625,2407.6,4955.489Zm5.584,1.743c-.852-.142-1.4-1.229-1.216-2.428s1.015-2.056,1.866-1.913,1.394,1.229,1.214,2.429c-.167,1.11-.9,1.928-1.679,1.928A1.2,1.2,0,0,1,2413.187,4957.232Z" transform="translate(-2347.754 -4500.061)" fill="#fff"/>
    </g>
  </g>
</svg>
