<svg xmlns="http://www.w3.org/2000/svg" width="49.912" height="90" viewBox="0 0 49.912 90">
  <g id="Group_18496" data-name="Group 18496" transform="translate(-622.365 -406.035)">
    <text id="Carnatic_Melodic" data-name="Carnatic
 Melodic" transform="translate(623.821 473.035)" fill="#2e2e2e" font-size="14" font-family="BarlowSemiCondensed-SemiBold, Barlow" font-weight="600"><tspan x="0" y="0">Carnatic</tspan><tspan x="0" y="20" xml:space="preserve"> Melodic</tspan></text>
    <g id="History34" transform="translate(70.909 84.035)">
      <path id="Path_12132" data-name="Path 12132" d="M24.956,0A24.956,24.956,0,1,1,0,24.956,24.956,24.956,0,0,1,24.956,0Z" transform="translate(551.456 322)" fill="rgba(99,39,220,0.95)"/>
      <path id="Union_41" data-name="Union 41" d="M2235.214,4891.754a6.533,6.533,0,0,1,1.769-10.253c3.453-1.856,9.146-2.741,9.146-2.741s16.025-14.457,16.461-13.935l.412.35-1.045,1.083c1.47.5,4.1.873,4.7,2.052,1.127,2.214.646,4.721-1.076,5.6s-4.892-.289-5.161-2.421a17.551,17.551,0,0,1,.029-3.668l-12.576,13.03s-.12,5.786-2.4,9.137a7.457,7.457,0,0,1-6.17,3.287A5.763,5.763,0,0,1,2235.214,4891.754Z" transform="matrix(0.978, 0.208, -0.208, 0.978, -610.368, -4894.647)" fill="#fff"/>
    </g>
  </g>
</svg>
