<svg xmlns="http://www.w3.org/2000/svg" width="49.912" height="70" viewBox="0 0 49.912 70">
  <g id="Group_18481" data-name="Group 18481" transform="translate(-939.315 -293.122)">
    <text id="English" transform="translate(944.271 360.122)" fill="#2e2e2e" font-size="14" font-family="BarlowSemiCondensed-SemiBold, Barlow" font-weight="600"><tspan x="0" y="0">English</tspan></text>
    <g id="English-2" data-name="English" transform="translate(-6.635 -28.426)">
      <path id="Path_12132" data-name="Path 12132" d="M24.956,0A24.956,24.956,0,1,1,0,24.956,24.956,24.956,0,0,1,24.956,0Z" transform="translate(945.95 321.548)" fill="#b98a80"/>
      <path id="Subtraction_44" data-name="Subtraction 44" d="M2392.906,4969.795c-.56,0-.907-.209-.907-1.248v-20.6c0-1.623.839-2.943,1.87-2.943H2410.7c1.031,0,1.869,1.32,1.869,2.943v16.682l-.042.168h.042l-.792,3h0l.752-3h-18.229l-.425,3.151h17.864c0,1.6,0,1.8-1.037,1.8h-16.826c-.187,0-.367.014-.526.027h-.008l-.026,0C2393.155,4969.786,2393.028,4969.795,2392.906,4969.795Zm13.073-11.444a1.465,1.465,0,0,0-.687.156,1.133,1.133,0,0,0-.462.441,1.3,1.3,0,0,0-.164.656v1.789a1.3,1.3,0,0,0,.164.657,1.133,1.133,0,0,0,.462.441,1.465,1.465,0,0,0,.688.156,1.348,1.348,0,0,0,.959-.339,1.226,1.226,0,0,0,.361-.933v-.937a.074.074,0,0,0-.021-.051.073.073,0,0,0-.051-.021h-1.2a.074.074,0,0,0-.051.021.073.073,0,0,0-.021.051v.438a.071.071,0,0,0,.021.051.073.073,0,0,0,.051.021h.547a.026.026,0,0,1,.03.03v.473a.58.58,0,0,1-.166.436.61.61,0,0,1-.441.159.624.624,0,0,1-.459-.178.635.635,0,0,1-.177-.464v-1.812a.644.644,0,0,1,.172-.466.6.6,0,0,1,.447-.176.611.611,0,0,1,.452.171.6.6,0,0,1,.172.441v.138a.062.062,0,0,0,.021.05.066.066,0,0,0,.051.021h.552a.07.07,0,0,0,.051-.021.065.065,0,0,0,.021-.05v-.138a1.214,1.214,0,0,0-.166-.63,1.126,1.126,0,0,0-.465-.43A1.525,1.525,0,0,0,2405.979,4958.351Zm-4.032,1.55c.008,0,.014.007.018.021l1.32,2.622a.092.092,0,0,0,.083.055h.552a.071.071,0,0,0,.051-.021.074.074,0,0,0,.021-.051v-4.056a.072.072,0,0,0-.072-.072h-.545a.072.072,0,0,0-.051.021.071.071,0,0,0-.021.051v2.585c0,.016,0,.025-.015.027h0c-.011,0-.018-.007-.021-.021l-1.314-2.609a.085.085,0,0,0-.083-.055h-.553a.074.074,0,0,0-.051.021.07.07,0,0,0-.02.051v4.056a.07.07,0,0,0,.071.072h.547a.071.071,0,0,0,.051-.021.074.074,0,0,0,.021-.051l-.006-2.6c0-.016,0-.025.015-.027h0Zm-3.709-1.5a.072.072,0,0,0-.072.072v4.056a.074.074,0,0,0,.021.051.071.071,0,0,0,.051.021h2.323a.072.072,0,0,0,.071-.072v-.456a.068.068,0,0,0-.021-.052.07.07,0,0,0-.05-.021h-1.669a.027.027,0,0,1-.03-.03v-1.152a.026.026,0,0,1,.03-.03h1.069a.073.073,0,0,0,.051-.021.075.075,0,0,0,.021-.051v-.456a.07.07,0,0,0-.021-.051.076.076,0,0,0-.051-.021h-1.069a.026.026,0,0,1-.03-.03v-1.128a.027.027,0,0,1,.03-.03h1.669a.068.068,0,0,0,.05-.021.066.066,0,0,0,.021-.051v-.456a.068.068,0,0,0-.021-.052.07.07,0,0,0-.05-.021Zm.211-4.581h2.66l.478,1.3h.958l-2.338-6.08h-.853l-2.341,6.08h.958l.478-1.3Zm7.745-3.927-3.083,4.542v.685h4.44v-.844h-3.185l3.085-4.563v-.667h-4.319v.848Zm-5.409,3.056h-2.018l1.008-2.749,1.01,2.747Z" transform="translate(-1431.376 -4611.452)" fill="#fff"/>
    </g>
  </g>
</svg>
