<svg xmlns="http://www.w3.org/2000/svg" width="105" height="70" viewBox="0 0 105 70">
  <g id="Group_18492" data-name="Group 18492" transform="translate(-208.555 -406.035)">
    <text id="Entrepreneuerahip" transform="translate(208.555 473.035)" fill="#2e2e2e" font-size="14" font-family="BarlowSemiCondensed-SemiBold, Barlow" font-weight="600"><tspan x="0" y="0">Entrepreneuerahip</tspan></text>
    <g id="History38" transform="translate(-315.857 84.035)">
      <path id="Path_12132" data-name="Path 12132" d="M24.956,0A24.956,24.956,0,1,1,0,24.956,24.956,24.956,0,0,1,24.956,0Z" transform="translate(551.456 322)" fill="rgba(19,46,64,0.95)"/>
      <path id="Subtraction_55" data-name="Subtraction 55" d="M2722.074,4895.942h0l-13.983-1.175,1.709-2.488a3.027,3.027,0,0,1-1.234-1.1.1.1,0,0,1-.022-.1c.037-.085.26-.118.542-.159.531-.078,1.333-.195,1.641-.768a2.092,2.092,0,0,0-.22-1.823,9.35,9.35,0,0,0-3.024-3.1c-1.977-1.509-4.218-3.219-4.9-6.744a9.457,9.457,0,0,1,.274-4.612,11.938,11.938,0,0,1,2.245-4.1,12.777,12.777,0,0,1,9.477-4.778c2.516,0,4.291,1.4,6.037,2.966.122.107.288.262.481.441l.013.012c.282.262.634.588.987.9,1.463,1.288,1.245,2.963,1.086,4.186a2.748,2.748,0,0,0,.025,1.472,6.851,6.851,0,0,0,1.237,1.307c.871.793,1.855,1.69,2,2.574a.534.534,0,0,1-.076.45.631.631,0,0,1-.5.161,5.032,5.032,0,0,1-.719-.077,5.208,5.208,0,0,0-.718-.076c-.394,0-.578.137-.578.432l.686,1.214-2.444.423c0,.125.374.185.852.26.721.113,1.615.254,1.592.693-.01.2-.448.507-.955.861-.661.459-1.409.981-1.489,1.457,1.209.464,1.813,1.056,1.745,1.71-.124,1.2-2.507,2.468-5.542,2.956a.708.708,0,0,1,.083.839c-.53,1.237.474,2.721,1.41,3.749a15.992,15.992,0,0,0,2.284,2.034Zm-15.256-13.017a.1.1,0,0,1,.036.009c.1.042.22.084.364.135.036.012.048.027.048.06,0,.162,0,.323,0,.485s.094.241.273.241h1.364c.179,0,.274-.084.274-.244s0-.318,0-.479c0-.035.012-.051.052-.065.107-.038.232-.082.358-.133a.1.1,0,0,1,.037-.008.072.072,0,0,1,.049.023c.12.109.243.217.362.322l.021.019a.294.294,0,0,0,.194.085.287.287,0,0,0,.189-.083l.434-.384.268-.236.268-.237a.2.2,0,0,0,0-.34l-.079-.068-.037-.033c-.09-.079-.183-.161-.271-.242a.062.062,0,0,1-.015-.062c.039-.086.079-.17.122-.258l.02-.041.037-.075h.578c.191,0,.284-.083.284-.253,0-.394,0-.792,0-1.186,0-.169-.093-.252-.285-.252h-.536a.061.061,0,0,1-.067-.042c-.053-.123-.1-.222-.145-.312a.059.059,0,0,1,.015-.087c.137-.118.271-.237.385-.338a.232.232,0,0,0,.092-.17.228.228,0,0,0-.092-.167c-.324-.289-.647-.575-.973-.862a.256.256,0,0,0-.377,0c-.134.116-.264.231-.387.343a.07.07,0,0,1-.049.022.117.117,0,0,1-.04-.009c-.1-.042-.22-.085-.353-.13-.042-.013-.055-.029-.054-.066,0-.161,0-.323,0-.479s-.094-.242-.272-.242h-1.37c-.178,0-.269.083-.269.243v.521l-.135.051-.042.016-.254.095h-.007a.1.1,0,0,1-.054-.023l-.179-.157-.041-.036-.111-.1-.054-.047a.261.261,0,0,0-.387,0l-.018.016-.4.354-.515.456-.019.017a.26.26,0,0,0-.109.183.263.263,0,0,0,.111.186l.264.233.135.12-.042.092c-.047.106-.087.194-.13.284a.08.08,0,0,1-.06.031h-.548c-.175,0-.271.085-.273.241v1.208c0,.158.1.242.276.242h.541a.066.066,0,0,1,.073.047c.046.108.094.213.144.312a.057.057,0,0,1-.015.086c-.084.071-.167.145-.248.216l-.022.02-.106.094a.245.245,0,0,0-.1.176.237.237,0,0,0,.1.171l.734.651.08.07.151.134a.288.288,0,0,0,.19.083.3.3,0,0,0,.193-.084l.074-.066c.1-.092.209-.185.313-.278A.065.065,0,0,1,2706.817,4882.925Zm8.274-5.906v1.439h.9v-1.439Zm3.428-1.337-.628.683.8.877.633-.687-.807-.874Zm-5.968-.01-.8.878.633.687.8-.877-.633-.688Zm1.642-7.433v2.346a3,3,0,0,0-1.345,2.531,2.7,2.7,0,1,0,5.384,0,3,3,0,0,0-1.345-2.531v-2.346Zm4.937,4.389v.976h1.345v-.976Zm-8.526,0v.976h1.345v-.976Zm-1.907,10.8h-.955v-.479a.223.223,0,0,0-.2-.233,3.034,3.034,0,0,1-.622-.228.358.358,0,0,0-.157-.044.277.277,0,0,0-.186.083c-.1.087-.191.174-.283.259l-.08.074-.269-.236-.236-.208-.179-.158.018-.017.022-.021.162-.144.081-.071.081-.072a.205.205,0,0,0,.048-.309,2.314,2.314,0,0,1-.253-.545.242.242,0,0,0-.271-.185h-.533v-.847h.554a.23.23,0,0,0,.243-.163,2.39,2.39,0,0,1,.272-.587.2.2,0,0,0-.044-.278l-.068-.061-.028-.025c-.095-.084-.189-.168-.281-.252.2-.177.421-.37.672-.592l.006,0a.257.257,0,0,1,.027.022l.168.147.184.162a.27.27,0,0,0,.176.071.315.315,0,0,0,.142-.039,2.745,2.745,0,0,1,.633-.232c.146-.038.2-.1.2-.238v-.472h.955v.426c0,.021,0,.041,0,.06a.215.215,0,0,0,.186.22,3.368,3.368,0,0,1,.681.251.241.241,0,0,0,.111.027.263.263,0,0,0,.174-.07l.221-.195.122-.107a.209.209,0,0,0,.028-.031l.007-.009,0,0,.456.4.229.2c-.112.1-.233.2-.338.294a.726.726,0,0,0-.065.06.19.19,0,0,0-.032.247,2.393,2.393,0,0,1,.28.6.234.234,0,0,0,.252.162h.545v.847h-.566a.226.226,0,0,0-.23.155,2.353,2.353,0,0,1-.278.6.194.194,0,0,0,.045.269c.077.07.156.139.235.208l.108.095.014.013.024.022-.56.5-.031.028-.089.078-.1-.093-.021-.019-.03-.027-.21-.189a.278.278,0,0,0-.188-.085.361.361,0,0,0-.156.043,3.122,3.122,0,0,1-.621.229c-.146.037-.2.1-.205.242v.47Zm-.477-4.066a1.109,1.109,0,0,0-1.107,1.107,1.1,1.1,0,0,0,1.1,1.107,1.107,1.107,0,1,0,0-2.214Zm.006,1.9h-.011a.791.791,0,0,1,0-1.583h.016a.784.784,0,0,1,.784.8A.8.8,0,0,1,2708.226,4881.261Z" transform="translate(-2138.023 -4533.515)" fill="#fff"/>
      <path id="ic_attach_money_24px" d="M7.606,4.854c-.533-.139-.7-.282-.7-.5,0-.256.237-.434.634-.434.418,0,.573.2.587.493h.519a.936.936,0,0,0-.754-.894V3h-.7v.507a.916.916,0,0,0-.822.847c0,.542.448.812,1.1.97.587.141.7.347.7.566,0,.162-.115.42-.634.42-.484,0-.674-.216-.7-.493H6.32a.984.984,0,0,0,.864.9v.509h.7v-.5c.458-.087.822-.352.822-.833C8.71,5.221,8.139,4.993,7.606,4.854Z" transform="translate(570.092 333.956)" fill="#fff"/>
    </g>
  </g>
</svg>
