<svg xmlns="http://www.w3.org/2000/svg" width="49.912" height="69.048" viewBox="0 0 49.912 69.048">
  <g id="Group_18478" data-name="Group 18478" transform="translate(-707.706 -294.074)">
    <g id="Sports" transform="translate(674.706 -137.926)">
      <ellipse id="Ellipse_263" data-name="Ellipse 263" cx="24.956" cy="24.956" rx="24.956" ry="24.956" transform="translate(33 432)" fill="#409da7"/>
      <g id="Group_18096" data-name="Group 18096" transform="matrix(0.985, -0.174, 0.174, 0.985, -1088.881, 270.968)">
        <path id="Sports-2" data-name="Sports" d="M6.305,12.826a17.39,17.39,0,0,1-7-6.092A18.152,18.152,0,0,1,6.4.533,23.174,23.174,0,0,1,16.661-1.9,22.711,22.711,0,0,1,26.886.376a17.385,17.385,0,0,1,7,6.093A17.015,17.015,0,0,1,30.057,10.6a.1.1,0,0,1,.02.082c-.012.033-.06.049-.147.05h-.044a20.059,20.059,0,0,1-3.094,1.937A23.145,23.145,0,0,1,16.532,15.1,22.7,22.7,0,0,1,6.305,12.826ZM6.038,3.132c1.446.752,2.156,2.188,2.037,4.207A3.524,3.524,0,0,1,7.018,9.784a4.372,4.372,0,0,1-.8.605,18.867,18.867,0,0,0,10.325,2.825A19.239,19.239,0,0,0,27.1,10.107a4.129,4.129,0,0,1-1.935-3.929,3.521,3.521,0,0,1,.929-2.494,4.662,4.662,0,0,1,.993-.793,18.808,18.808,0,0,0-10.442-2.9A19.229,19.229,0,0,0,6.038,3.132ZM2.394,6.71a12.535,12.535,0,0,0,2.126,2.4A2.8,2.8,0,0,0,5.474,7.2,2.838,2.838,0,0,0,4.123,4.679,12.909,12.909,0,0,0,2.394,6.71Zm25.377-.528a2.8,2.8,0,0,0,1.307,2.332A12.94,12.94,0,0,0,30.8,6.493a12.538,12.538,0,0,0-2.078-2.355A2.827,2.827,0,0,0,27.771,6.182Z" transform="translate(1079.287 383.339) rotate(-25)" fill="#fff"/>
        <path id="Union_22" data-name="Union 22" d="M1.647,7.378.01,8.168l1.637-.79L0,4.286,1.647,7.378l3.026-1.46L3.043,2.857l1.63,3.061.9-.434L7.7,4.458,6.087,1.429,7.7,4.458,10.727,3,9.13,0l1.6,3,2-.964-2,.964,1.447,2.717L10.727,3,7.7,4.458,9.13,7.143,7.7,4.458,4.673,5.918,6.087,8.571,4.673,5.918,1.647,7.378,3.043,10Z" transform="translate(1090.756 377.309)" fill="#fff" stroke="#fff" stroke-width="1"/>
      </g>
    </g>
    <path id="Sports-3" data-name="Sports" d="M3.554,14.185q-.9,0-1.591-.328T.9,12.916Q.522,12.3.522,11.5v-.366q0-.07.048-.12t.117-.049H1.922q.069,0,.117.049t.048.12v.281q0,.6.412.984t1.111.378q.644,0,.987-.339t.342-.886q0-.38-.192-.654t-.541-.506q-.349-.232-1.076-.625-.837-.45-1.344-.8t-.858-.9Q.577,7.518.577,6.73q0-1.211.789-1.913t2.078-.7q.891,0,1.576.347t1.054.978q.369.633.369,1.448v.3q0,.07-.048.119t-.116.049H5.047q-.068,0-.116-.049t-.048-.12V6.915q0-.6-.4-1T3.417,5.522q-.59,0-.932.316t-.343.879q0,.38.178.647t.542.507q.363.239,1.1.619.986.576,1.452.9t.787.836q.322.513.322,1.257,0,1.236-.807,1.968T3.554,14.185ZM13.121,8.91q.15.715.15,1.584,0,.813-.123,1.528-.422,2.146-2.209,2.149-.955,0-1.433-.629-.027-.042-.055-.035t-.027.049v2.99q0,.07-.048.119t-.116.049L8,16.719q-.068,0-.116-.049t-.048-.119V7.057q0-.07.048-.119T8,6.889H9.26q.068,0,.116.049t.048.119v.365q0,.042.027.056t.055-.028q.519-.674,1.488-.673.846,0,1.371.534T13.121,8.91Zm-1.609,3.03q.164-.547.164-1.459t-.136-1.4q-.246-.912-1.01-.912-.737,0-.956.9-.137.491-.137,1.418t.15,1.432q.218.856.928.855T11.512,11.941Zm5.678,2.221q-1.1,0-1.809-.606t-.857-1.645q-.109-.673-.109-1.444,0-.8.109-1.472.15-1.023.871-1.618T17.2,6.781q1.073,0,1.779.6t.855,1.6q.109.7.109,1.469,0,.84-.095,1.441Q19.7,12.94,19,13.549T17.19,14.161Zm0-1.4q.448,0,.754-.309t.374-.812q.054-.728.054-1.176t-.054-1.19q-.068-.5-.374-.8t-.754-.294q-.462,0-.761.294t-.367.8q-.054.49-.054,1.191t.054,1.177q.068.5.367.812T17.19,12.761Zm7.052-5.948q.379,0,.663.168.108.056.081.21l-.23,1.271q-.014.168-.189.1t-.406-.07q-.095,0-.284.028-.46.042-.765.433t-.3.979v3.942q0,.07-.047.119a.172.172,0,0,1-.025.021.15.15,0,0,1-.058.025.17.17,0,0,1-.033,0l-1.247,0a.17.17,0,0,1-.033,0,.149.149,0,0,1-.058-.024.172.172,0,0,1-.025-.021q-.047-.049-.047-.119V7.063q0-.07.047-.119T21.4,6.9h1.247q.068,0,.115.049t.047.119v.6q0,.056.02.063t.047-.035Q23.362,6.813,24.242,6.813ZM29.2,7.96q0,.07-.047.119t-.115.049H27.945q-.068,0-.068.07v3.5q0,.516.2.733t.614.2h.243q.067,0,.115.049t.047.119v1.06q0,.153-.162.182h-.567a4.545,4.545,0,0,1-.468-.022,3.074,3.074,0,0,1-.406-.067,2.088,2.088,0,0,1-.344-.113,1.485,1.485,0,0,1-.281-.158q-.5-.362-.5-1.368V8.2q0-.07-.068-.07h-.622q-.068,0-.115-.049t-.047-.119V7.065q0-.07.047-.119t.115-.049H26.3q.068,0,.068-.07V5.236q0-.07.047-.119t.115-.049h1.189q.068,0,.115.049t.047.119V6.829q0,.07.068.07h1.093q.067,0,.115.049t.047.119Zm3.49,6.146q-1.171,0-1.872-.541t-.7-1.422v-.112q0-.07.047-.119t.115-.049h1.172q.067,0,.115.049t.047.118v.042q0,.335.31.578t.767.243q.444,0,.72-.224t.276-.558q0-.334-.276-.515t-.855-.389l-.35-.125q-.916-.306-1.468-.773t-.553-1.387q0-.976.674-1.541t1.778-.564q1.144,0,1.823.579t.679,1.539V8.95q0,.07-.047.118t-.114.049H33.847q-.067,0-.114-.049t-.047-.118V8.894q0-.348-.283-.578t-.74-.23q-.444,0-.714.216t-.269.551q0,.265.189.439t.424.272q.236.1.828.306.632.223,1.069.459t.746.654q.309.418.309,1.058,0,.961-.692,1.512T32.69,14.106Z" transform="translate(714.71 346.026)" fill="#2e2e2e"/>
  </g>
</svg>
