<svg xmlns="http://www.w3.org/2000/svg" width="63" height="68.952" viewBox="0 0 63 68.952">
  <g id="Group_18487" data-name="Group 18487" transform="translate(-1448.106 -292.17)">
    <text id="Psychology" transform="translate(1448.106 358.122)" fill="#2e2e2e" font-size="14" font-family="BarlowSemiCondensed-SemiBold, Barlow" font-weight="600"><tspan x="0" y="0">Psychology</tspan></text>
    <g id="History42" transform="translate(903.195 -29.83)">
      <path id="Path_12132" data-name="Path 12132" d="M24.956,0A24.956,24.956,0,1,1,0,24.956,24.956,24.956,0,0,1,24.956,0Z" transform="translate(551.456 322)" fill="rgba(19,46,64,0.95)"/>
      <path id="Union_30" data-name="Union 30" d="M4.259,22.07l1.282-1.845a2.243,2.243,0,0,1-.925-.813C4.324,19,7.195,19.652,6.072,17.3S.967,14.29.125,10c-.985-5.023,4.031-10,9-10,1.817,0,3.1.938,4.53,2.2.228.2.664.612,1.112,1,1.657,1.441.444,3.508.833,4.195.411.719,2.251,1.815,2.432,2.878.094.556-.442.477-.976.4-.486-.072-.97-.145-.97.264l.514.9-1.834.313c-.009.234,1.862.167,1.834.707-.017.343-1.728,1.093-1.834,1.719,2.942,1.114.483,2.93-2.85,3.459a.513.513,0,0,1,.062.622c-.784,1.81,2.775,4.29,2.775,4.29Z" transform="translate(557.158 336.572)" fill="#fff"/>
      <path id="Union_31" data-name="Union 31" d="M13.786,22.07,12.5,20.225a2.242,2.242,0,0,0,.925-.813c.292-.408-2.578.241-1.455-2.112s5.1-3.01,5.947-7.3c.985-5.023-4.031-10-9-10C6.43,0,4.935,1.759,3.276,3.2S2.833,6.708,2.443,7.4C2.032,8.114.192,9.21.011,10.273c-.094.556.443.477.976.4.486-.072.97-.145.97.264l-.514.9,1.834.313c.009.234-1.862.167-1.834.707.017.343,1.728,1.093,1.834,1.719-2.942,1.114-.483,2.93,2.849,3.459a.513.513,0,0,0-.061.622c.784,1.81-2.775,4.29-2.775,4.29Z" transform="translate(577.62 336.572)" fill="#fff"/>
      <path id="ic_extension_24px" d="M7.5,3.972H7.053V2.783a.6.6,0,0,0-.594-.594H5.27V1.743a.743.743,0,1,0-1.486,0v.446H2.594A.594.594,0,0,0,2,2.783V3.913h.443a.8.8,0,0,1,0,1.605H2V6.647a.6.6,0,0,0,.594.594H3.724V6.8a.8.8,0,1,1,1.605,0v.446H6.458a.6.6,0,0,0,.594-.594V5.458H7.5a.743.743,0,1,0,0-1.486Z" transform="translate(570.865 331.334) rotate(14)" fill="#fff"/>
      <path id="ic_extension_24px-2" data-name="ic_extension_24px" d="M7.5,3.972H7.053V2.783a.6.6,0,0,0-.594-.594H5.27V1.743a.743.743,0,1,0-1.486,0v.446H2.594A.594.594,0,0,0,2,2.783V3.913h.443a.8.8,0,0,1,0,1.605H2V6.647a.6.6,0,0,0,.594.594H3.724V6.8a.8.8,0,1,1,1.605,0v.446H6.458a.6.6,0,0,0,.594-.594V5.458H7.5a.743.743,0,1,0,0-1.486Z" transform="translate(586.411 335.118) rotate(163)" fill="#fff"/>
    </g>
  </g>
</svg>
