<svg xmlns="http://www.w3.org/2000/svg" width="65" height="70" viewBox="0 0 65 70">
  <g id="Group_18485" data-name="Group 18485" transform="translate(-1255.771 -291.122)">
    <text id="Legal_Study" data-name="Legal Study" transform="translate(1255.771 358.122)" fill="#2e2e2e" font-size="14" font-family="BarlowSemiCondensed-SemiBold, Barlow" font-weight="600"><tspan x="0" y="0">Legal Study</tspan></text>
    <g id="English44" transform="translate(317.365 -30.426)">
      <path id="Path_12132" data-name="Path 12132" d="M24.956,0A24.956,24.956,0,1,1,0,24.956,24.956,24.956,0,0,1,24.956,0Z" transform="translate(945.95 321.548)" fill="#a09997"/>
      <path id="Subtraction_44" data-name="Subtraction 44" d="M2392.907,4969.455c-.56,0-.907-.209-.907-1.248v-20.6c0-1.623.839-2.943,1.869-2.943H2410.7c1.031,0,1.869,1.32,1.869,2.943v16.681l-.042.169h-18.229l-.425,3.151h17.864c0,1.6,0,1.8-1.038,1.8h-16.826c-.186,0-.363.014-.534.026C2393.184,4969.443,2393.04,4969.455,2392.907,4969.455Zm5.489-9a.5.5,0,1,0,0,1h8a.5.5,0,1,0,0-1h-3.5v-10H2407l-1.526,4.17h-.033a2.6,2.6,0,0,0,1.726,2.5.009.009,0,0,0,0,.008,1.531,1.531,0,0,0,.528.055,1.009,1.009,0,0,0,.379-.04.009.009,0,0,0,0-.008,2.553,2.553,0,0,0,1.785-2.187.068.068,0,0,0,.008-.052v-.006c.008-.064.016-.13.02-.2l-.112,0-1.986-4.246h.6a.5.5,0,1,0,0-1h-13a.5.5,0,1,0,0,1h.833l-1.525,4.17h-.033a2.6,2.6,0,0,0,1.726,2.5.009.009,0,0,0,0,.008,1.532,1.532,0,0,0,.528.055,1.012,1.012,0,0,0,.379-.04.009.009,0,0,0,0-.008,2.554,2.554,0,0,0,1.786-2.187.074.074,0,0,0,.008-.052v-.006c.008-.064.016-.13.02-.2l-.113,0-1.985-4.246h4.872v10Zm13.377,7h0l.752-3h.042Zm-2.365-12.763h0l-3.475-.062,1.48-3.857,2,3.918Zm-10.775,0h0l-3.475-.062,1.48-3.857,2,3.918Z" transform="translate(-1431.376 -4611.452)" fill="#fff"/>
    </g>
  </g>
</svg>
