<svg xmlns="http://www.w3.org/2000/svg" width="72" height="71" viewBox="0 0 72 71">
  <g id="Group_18498" data-name="Group 18498" transform="translate(-809.661 -405.035)">
    <text id="Info_Practice" data-name="Info Practice" transform="translate(809.661 473.035)" fill="#2e2e2e" font-size="14" font-family="BarlowSemiCondensed-SemiBold, Barlow" font-weight="600"><tspan x="0" y="0">Info Practice</tspan></text>
    <g id="History32" transform="translate(268.75 83.035)">
      <path id="Path_12132" data-name="Path 12132" d="M24.956,0A24.956,24.956,0,1,1,0,24.956,24.956,24.956,0,0,1,24.956,0Z" transform="translate(551.456 322)" fill="rgba(60,55,90,0.95)"/>
      <path id="Union_48" data-name="Union 48" d="M2144.874,4893.341l-7.262-.763a1.438,1.438,0,0,1-1.1-.751,1.312,1.312,0,0,1-1.031.727l-6.87.668a1.5,1.5,0,0,1-1.55-1.4l-.176-1.539a.945.945,0,0,1,.327-.732c-1.048-1.266-.926-1.078-2.736-5.327-2.018-4.735-1.461-13.156-1.644-14.614,3.044.447.554,6.823,4.355,10.75,1.449,1.5,2.466,2.613,3.168,3.418l-2.957-4.835s-1.12-5.055.743-2.479c.263.365,2.9,2.694,3.092,4.044,2.8,2.2,3.778,6.467,4.033,7.884.615.209,1.147.518,1.229.908.082-.388.636-.689,1.278-.889.257-1.405,1.258-5.691,4.207-7.884.187-1.35,2.961-3.668,3.237-4.036,1.95-2.566.8,2.486.8,2.486l-3.089,4.825c.737-.8,1.8-1.914,3.322-3.406,3.988-3.913,1.305-10.3,4.522-10.738-.183,1.458.472,9.886-1.626,14.617-1.983,4.474-2.317,3.371-3.688,4.813.661.356,1.241.851,1.191,1.331l-.162,1.54a1.518,1.518,0,0,1-1.469,1.4C2144.972,4893.349,2144.923,4893.346,2144.874,4893.341Zm-4.187-17.156-.691-.25-.691-.253a.269.269,0,0,1-.169-.391c.07-.194.14-.389.214-.583a.069.069,0,0,0-.022-.092c-.105-.095-.209-.194-.309-.295a.063.063,0,0,0-.087-.017c-.182.093-.362.182-.543.272a.254.254,0,0,1-.39-.141c-.2-.46-.4-.923-.6-1.384a.287.287,0,0,1,.155-.419c.176-.086.35-.176.526-.257a.083.083,0,0,0,.054-.1c-.009-.143-.011-.286-.01-.43a.072.072,0,0,0-.059-.083c-.18-.063-.361-.131-.542-.2a.272.272,0,0,1-.176-.394q.265-.728.529-1.456a.271.271,0,0,1,.382-.189l.209.075c.117.042.231.083.348.124a.079.079,0,0,0,.075-.015c.114-.126.224-.254.339-.389-.081-.186-.165-.379-.25-.575a.3.3,0,0,1,.161-.445c.444-.22.889-.442,1.333-.663a.253.253,0,0,1,.392.145c.08.183.158.367.241.549.009.021.034.049.053.049.167-.009.335-.022.509-.036.073-.205.151-.417.227-.626a.269.269,0,0,1,.378-.194q.7.252,1.39.506a.271.271,0,0,1,.169.391c-.07.194-.138.387-.211.577a.077.077,0,0,0,.026.1c.1.092.2.188.3.285.032.031.053.04.094.017.18-.092.362-.182.543-.27a.25.25,0,0,1,.385.138c.2.464.405.931.607,1.4a.283.283,0,0,1-.147.405c-.178.09-.356.181-.538.267a.084.084,0,0,0-.053.1c.009.144.01.287.011.431,0,.043.011.061.05.075.18.064.362.131.542.2a.279.279,0,0,1,.179.41c-.173.477-.345.952-.521,1.428a.277.277,0,0,1-.4.2l-.586-.212c-.119.131-.233.257-.344.386a.1.1,0,0,0-.012.078c.08.188.162.371.244.557a.285.285,0,0,1-.15.409q-.678.341-1.358.677a.253.253,0,0,1-.387-.144c-.08-.184-.162-.367-.239-.551a.066.066,0,0,0-.081-.049c-.139.013-.28.021-.42.028a.074.074,0,0,0-.08.058c-.069.194-.14.387-.211.578-.052.145-.139.218-.256.218A.38.38,0,0,1,2140.688,4876.185Zm-1.549-2.49a.336.336,0,0,1,.139.111,2.919,2.919,0,0,0,.529.5.274.274,0,0,1,.1.356c-.06.168-.122.334-.183.5l-.027.077.968.353.028-.078c.06-.165.119-.327.178-.491a.278.278,0,0,1,.314-.216,2.973,2.973,0,0,0,.729-.043.252.252,0,0,1,.329.174c.079.179.152.36.225.532.324-.162.636-.318.953-.475,0-.014-.015-.035-.022-.057-.071-.165-.146-.328-.215-.491a.278.278,0,0,1,.071-.34,3.343,3.343,0,0,0,.544-.618.253.253,0,0,1,.3-.1c.168.06.335.123.5.184l.071.026.371-1.021-.554-.2a.254.254,0,0,1-.183-.289,3.411,3.411,0,0,0-.022-.821.272.272,0,0,1,.139-.285.8.8,0,0,1,.094-.049l.469-.23c-.144-.332-.283-.651-.427-.982a.665.665,0,0,1-.059.038c-.16.081-.319.161-.479.238a.238.238,0,0,1-.308-.054,3.218,3.218,0,0,0-.58-.551.267.267,0,0,1-.092-.335c.012-.037.026-.073.039-.108l.174-.479-.969-.352c-.009.024-.017.049-.026.072l-.182.5a.266.266,0,0,1-.308.209,2.8,2.8,0,0,0-.744.049.252.252,0,0,1-.308-.157c-.076-.166-.147-.336-.222-.5a.178.178,0,0,0-.022-.041l-.939.464c.076.179.156.362.233.546a.281.281,0,0,1-.076.35,3.226,3.226,0,0,0-.533.608.257.257,0,0,1-.319.107l-.254-.092c-.064-.023-.128-.047-.192-.069l-.115-.043-.371,1.021.54.2a.263.263,0,0,1,.193.32,3.25,3.25,0,0,0,.02.75.3.3,0,0,1-.184.355l-.455.225-.058.032c.144.326.282.644.428.977.167-.086.338-.177.513-.266a.365.365,0,0,1,.158-.045A.2.2,0,0,1,2139.139,4873.695Zm-8,1.243c-.056-.286-.113-.572-.166-.86a.1.1,0,0,0-.092-.094c-.2-.041-.4-.083-.594-.133a.093.093,0,0,0-.119.045c-.151.243-.309.481-.464.723a.362.362,0,0,1-.578.112q-.872-.612-1.746-1.23a.4.4,0,0,1-.114-.619c.15-.231.3-.464.453-.693a.116.116,0,0,0-.007-.157c-.113-.166-.222-.339-.324-.512a.1.1,0,0,0-.133-.059c-.268.055-.539.105-.807.158a.384.384,0,0,1-.5-.348q-.21-1.07-.417-2.142a.385.385,0,0,1,.327-.507c.274-.055.55-.107.825-.165a.131.131,0,0,0,.081-.071c.044-.236.083-.47.128-.717l-.723-.51a.412.412,0,0,1-.129-.653q.569-.886,1.142-1.772a.36.36,0,0,1,.582-.111c.232.163.462.328.7.487.027.019.08.034.1.021.2-.133.392-.27.594-.413l-.179-.922a.38.38,0,0,1,.322-.508q1.03-.2,2.063-.4a.384.384,0,0,1,.493.349c.056.284.113.566.165.851.012.069.041.09.105.1q.289.056.575.125a.1.1,0,0,0,.128-.049c.152-.241.308-.481.466-.722a.357.357,0,0,1,.567-.113c.587.414,1.177.829,1.762,1.244a.4.4,0,0,1,.117.6c-.154.239-.306.478-.462.713a.117.117,0,0,0,0,.157c.114.166.222.336.327.511a.1.1,0,0,0,.118.055c.268-.055.537-.105.806-.158a.394.394,0,0,1,.517.365q.207,1.05.409,2.1a.39.39,0,0,1-.341.53l-.869.169c-.051.248-.1.481-.14.718a.13.13,0,0,0,.043.1c.233.168.468.33.7.495a.4.4,0,0,1,.119.6q-.58.9-1.163,1.8a.362.362,0,0,1-.578.108c-.232-.162-.464-.324-.694-.49a.1.1,0,0,0-.135,0c-.161.119-.327.231-.494.34a.105.105,0,0,0-.055.129c.059.282.113.566.167.85a.386.386,0,0,1-.33.514c-.343.066-.684.134-1.026.2l-1.029.2a.6.6,0,0,1-.114.012C2131.315,4875.3,2131.185,4875.173,2131.138,4874.938Zm-.911-1.9a4.185,4.185,0,0,0,1.014.221.384.384,0,0,1,.385.353c.05.247.1.494.144.741.007.037.013.071.022.112l1.438-.279c-.009-.044-.015-.08-.022-.114l-.14-.721a.4.4,0,0,1,.225-.491,4.284,4.284,0,0,0,.858-.583.366.366,0,0,1,.531-.03c.225.161.448.323.662.478l.815-1.265c-.017-.015-.043-.034-.069-.053-.208-.145-.416-.289-.623-.437a.39.39,0,0,1-.161-.462,4.667,4.667,0,0,0,.214-1.14.354.354,0,0,1,.293-.343c.248-.051.5-.1.748-.146l.1-.021-.292-1.5c-.279.055-.549.108-.823.16a.361.361,0,0,1-.434-.215,4.843,4.843,0,0,0-.626-.975.385.385,0,0,1-.041-.446c.025-.044.053-.083.08-.126.138-.212.276-.422.406-.62-.417-.293-.82-.579-1.239-.875a.75.75,0,0,1-.044.09c-.136.215-.271.427-.411.637a.341.341,0,0,1-.415.159,4.7,4.7,0,0,0-1.11-.243.376.376,0,0,1-.356-.339c-.012-.05-.022-.105-.032-.158-.045-.232-.091-.465-.136-.7l-1.439.28c.007.037.015.073.021.107.048.245.1.489.142.732a.377.377,0,0,1-.222.478,3.962,3.962,0,0,0-.872.6.36.36,0,0,1-.492.037c-.214-.146-.425-.3-.639-.447-.023-.016-.048-.031-.056-.036q-.409.631-.809,1.248c.225.162.456.324.687.489a.4.4,0,0,1,.162.479,4.6,4.6,0,0,0-.208,1.12.363.363,0,0,1-.312.361c-.219.047-.44.087-.661.13l-.172.034.292,1.5c.273-.054.538-.107.8-.157a.375.375,0,0,1,.47.246,4.37,4.37,0,0,0,.572.893.411.411,0,0,1,.032.561c-.128.2-.26.4-.389.6-.02.028-.037.062-.048.079l1.237.868c.14-.227.284-.462.432-.7a.394.394,0,0,1,.251-.2.333.333,0,0,1,.063-.006A.579.579,0,0,1,2130.227,4873.041Zm10.577.688-.005,0a2.016,2.016,0,1,1,2.276-1.29,1.977,1.977,0,0,1-1.771,1.378A1.479,1.479,0,0,1,2140.8,4873.729Zm-.458-2.291a1.226,1.226,0,1,0,1.63-.914l-.022-.009a1.01,1.01,0,0,0-.345-.06A1.417,1.417,0,0,0,2140.346,4871.438Zm.8.863-.173-.062a.035.035,0,0,1-.014-.012.032.032,0,0,1,0-.019l.463-1.272a.037.037,0,0,1,.012-.015.034.034,0,0,1,.019,0l.433.159a.407.407,0,0,1,.176.118.361.361,0,0,1,.08.186.485.485,0,0,1-.028.221.437.437,0,0,1-.119.182.343.343,0,0,1-.178.087.388.388,0,0,1-.209-.021l-.231-.083a.009.009,0,0,0-.012,0l-.187.513a.02.02,0,0,1-.012.014.021.021,0,0,1-.011,0Zm.431-1.112-.143.392c0,.006,0,.01.006.012l.2.073a.178.178,0,0,0,.152-.009.22.22,0,0,0,.1-.129.23.23,0,0,0,.005-.168.173.173,0,0,0-.112-.1l-.2-.073h0A.01.01,0,0,0,2141.579,4871.189Zm-12.453-1.645a2.439,2.439,0,1,1,2.907,2.292h-.009a2.114,2.114,0,0,1-.4.038A2.715,2.715,0,0,1,2129.126,4869.545Zm2-2.425-.037.006a2.023,2.023,0,1,0,2.095,1.645,1.924,1.924,0,0,0-1.8-1.673A1.544,1.544,0,0,0,2131.127,4867.12Zm.264,3.038a.037.037,0,0,1-.016-.023l-.387-1.991a.031.031,0,0,1,.006-.027.032.032,0,0,1,.023-.016l.27-.053a.037.037,0,0,1,.027.006.029.029,0,0,1,.015.023l.388,1.99a.038.038,0,0,1-.006.027.034.034,0,0,1-.023.015l-.27.053h-.009A.029.029,0,0,1,2131.391,4870.158Z" transform="translate(-1560.406 -4532.241)" fill="#fff"/>
    </g>
  </g>
</svg>
