<svg xmlns="http://www.w3.org/2000/svg" width="73" height="68.952" viewBox="0 0 73 68.952">
  <g id="Group_18489" data-name="Group 18489" transform="translate(-1615.969 -292.17)">
    <text id="Accountancy" transform="translate(1615.969 358.122)" fill="#2e2e2e" font-size="14" font-family="BarlowSemiCondensed-SemiBold, Barlow" font-weight="600"><tspan x="0" y="0">Accountancy</tspan></text>
    <g id="History40" transform="translate(1076.057 -29.83)">
      <path id="Path_12132" data-name="Path 12132" d="M24.956,0A24.956,24.956,0,1,1,0,24.956,24.956,24.956,0,0,1,24.956,0Z" transform="translate(551.456 322)" fill="rgba(21,64,5,0.95)"/>
      <path id="Subtraction_48" data-name="Subtraction 48" d="M1327.085,4974.688h-15.555c-1.225,0-2.222-1.269-2.222-2.829v-19.8c0-1.559,1-2.828,2.222-2.828h4.644a3.15,3.15,0,0,1,6.267,0h4.643a2.584,2.584,0,0,1,2.224,2.828v19.8C1329.309,4973.418,1328.312,4974.688,1327.085,4974.688Zm-6.892-14.308a1,1,0,0,0-1,1v10.812a1,1,0,0,0,1,1h6.888a1,1,0,0,0,1-1v-10.812a1,1,0,0,0-1-1Zm-8.779,8.8v1.682h7.475v-1.682Zm0-3.365v1.682h7.475v-1.682Zm0-3.366v1.683h7.475v-1.683Zm0-3.365v1.683l7.726.045.3-.321.032-.015.029-.013c.115-.053.329-.153.612-.278a15.458,15.458,0,0,1,2.446-.121c.622,0,1.318.01,1.877.018h.124c.606.008,1.178.015,1.719.015.286,0,.564,0,.876-.009h.574v-1Zm2.224-6.3a3.1,3.1,0,1,0,3.2,3.1A3.154,3.154,0,0,0,1313.638,4952.785Zm3.316,2.937v1.683h10.776v-1.683Zm2.353-6.488a1.455,1.455,0,1,0,1.112,1.413A1.291,1.291,0,0,0,1319.307,4949.233Zm8.09,23.262h-1.367v-1.865h1.367v1.863h0Zm-2.05,0h-1.367v-1.865h1.367v1.863h0Zm-2.051,0h-1.367v-1.865h1.367v1.863h0Zm-2.051,0h-1.368v-1.865h1.368v1.863h0Zm6.153-2.8h-1.367v-1.864h1.367v1.863Zm-2.05,0h-1.367v-1.864h1.367v1.863Zm-2.051,0h-1.367v-1.864h1.367v1.863Zm-2.051,0h-1.368v-1.864h1.368v1.863Zm6.153-2.794h-1.367v-1.865h1.367v1.864Zm-2.05,0h-1.367v-1.865h1.367v1.864Zm-2.051,0h-1.367v-1.865h1.367v1.864Zm-2.051,0h-1.368v-1.865h1.368v1.864Zm6.153-2.8h-7.521v-2.8h7.521v2.794Zm-1.235-.968a.021.021,0,0,0-.016.006.022.022,0,0,0-.007.018v.045a.327.327,0,0,0,.106.256.388.388,0,0,0,.275.1.41.41,0,0,0,.285-.1.328.328,0,0,0,.109-.26v-.63a.477.477,0,0,0-.032-.185l0,0h0v-.005a.343.343,0,0,0-.132-.185.4.4,0,0,0-.232-.064.412.412,0,0,0-.236.064.32.32,0,0,0-.127.186.573.573,0,0,0,.011.428.321.321,0,0,0,.321.226.251.251,0,0,0,.187-.072h.007s.005,0,.005.007v.216a.172.172,0,0,1-.045.125.152.152,0,0,1-.115.047.135.135,0,0,1-.106-.047.171.171,0,0,1-.042-.121v-.025a.023.023,0,0,0-.007-.018.021.021,0,0,0-.016-.006Zm-1.466,0a.019.019,0,0,0-.016.006.023.023,0,0,0-.007.018v.045a.327.327,0,0,0,.106.256.385.385,0,0,0,.273.1.413.413,0,0,0,.286-.1.329.329,0,0,0,.109-.26l0-.63a.478.478,0,0,0-.031-.185l0,0s0,0,0-.005a.334.334,0,0,0-.131-.185.4.4,0,0,0-.232-.064.412.412,0,0,0-.236.064.327.327,0,0,0-.129.186.567.567,0,0,0-.035.2.51.51,0,0,0,.047.226.334.334,0,0,0,.119.166.338.338,0,0,0,.2.06.254.254,0,0,0,.189-.072h.007a.008.008,0,0,1,.005.007v.216a.175.175,0,0,1-.046.125.153.153,0,0,1-.115.047.139.139,0,0,1-.106-.047.174.174,0,0,1-.041-.121v-.025a.022.022,0,0,0-.008-.018.021.021,0,0,0-.016-.006Zm-.95,0a.019.019,0,0,0-.016.006.023.023,0,0,0-.007.018v.045a.327.327,0,0,0,.106.256.387.387,0,0,0,.273.1.413.413,0,0,0,.286-.1.329.329,0,0,0,.109-.26l0-.63a.478.478,0,0,0-.031-.185l0,0h0v-.005a.342.342,0,0,0-.132-.185.4.4,0,0,0-.232-.064.411.411,0,0,0-.236.064.326.326,0,0,0-.129.186.567.567,0,0,0-.035.2.509.509,0,0,0,.047.226.33.33,0,0,0,.119.166.338.338,0,0,0,.2.06.252.252,0,0,0,.188-.072h.007a.008.008,0,0,1,.005.007v.216a.172.172,0,0,1-.045.125.153.153,0,0,1-.116.047.139.139,0,0,1-.106-.047.174.174,0,0,1-.041-.121v-.025a.024.024,0,0,0-.008-.018.021.021,0,0,0-.016-.006Zm2.044.1a.153.153,0,0,0-.109.045.151.151,0,0,0,0,.216.148.148,0,0,0,.11.045.154.154,0,0,0,.156-.154.145.145,0,0,0-.046-.107A.152.152,0,0,0,1325.791,4963.241Zm.723-.4a.143.143,0,0,1-.145-.106.476.476,0,0,1,0-.281.153.153,0,0,1,.3,0,.523.523,0,0,1,.016.135.494.494,0,0,1-.02.15A.144.144,0,0,1,1326.514,4962.843Zm-1.466,0a.143.143,0,0,1-.145-.106.415.415,0,0,1-.024-.147.5.5,0,0,1,.017-.134.148.148,0,0,1,.151-.125.145.145,0,0,1,.15.12.523.523,0,0,1,.016.135.459.459,0,0,1-.021.15A.143.143,0,0,1,1325.048,4962.843Zm-.95,0a.143.143,0,0,1-.145-.106.415.415,0,0,1-.024-.147.5.5,0,0,1,.017-.134.148.148,0,0,1,.151-.125.146.146,0,0,1,.15.12.523.523,0,0,1,.016.135.5.5,0,0,1-.02.15A.144.144,0,0,1,1324.1,4962.843Zm-10.009-4.486h-.855v-.6a1.171,1.171,0,0,1-1.047-1.052h.628c.026.265.194.579.849.579.567,0,.769-.254.769-.492s-.1-.49-.855-.663c-.914-.214-1.34-.575-1.34-1.136a1.1,1.1,0,0,1,1-.994v-.6h.855v.6a1.109,1.109,0,0,1,.913,1.049h-.628c-.017-.385-.255-.58-.71-.58s-.769.2-.769.508c0,.273.24.438.855.591.662.165,1.34.437,1.34,1.211,0,.5-.368.861-1,.978v.591Z" transform="translate(-742.897 -4613.591)" fill="#fff"/>
    </g>
  </g>
</svg>
