<svg xmlns="http://www.w3.org/2000/svg" width="49.912" height="90" viewBox="0 0 49.912 90">
  <g id="Group_18495" data-name="Group 18495" transform="translate(-529.599 -406.035)">
    <text id="Carnatic_Vocal" data-name="Carnatic
   Vocal" transform="translate(531.055 473.035)" fill="#2e2e2e" font-size="14" font-family="BarlowSemiCondensed-SemiBold, Barlow" font-weight="600"><tspan x="0" y="0">Carnatic</tspan><tspan x="0" y="20" xml:space="preserve">   Vocal</tspan></text>
    <g id="History35" transform="translate(-21.857 84.035)">
      <path id="Path_12132" data-name="Path 12132" d="M24.956,0A24.956,24.956,0,1,1,0,24.956,24.956,24.956,0,0,1,24.956,0Z" transform="translate(551.456 322)" fill="rgba(249,50,50,0.95)"/>
      <path id="ic_audiotrack_24px" d="M2.338,0V4.465a1.428,1.428,0,0,0-.585-.135A1.99,1.99,0,0,0,0,6.5,1.99,1.99,0,0,0,1.754,8.661,1.934,1.934,0,0,0,3.488,6.736h.019V1.443H5.066V0Z" transform="translate(585.029 341.567) rotate(33)" fill="#fff"/>
      <path id="Subtraction_59" data-name="Subtraction 59" d="M2707.07,4888.932l.786-2.5a2.6,2.6,0,0,1-1.3-.6c-.463-.357,2.932-.6.886-2.854s-6.672-1.643-9.069-6.157c-2.808-5.286,1.034-12.548,6.529-14.229,2.008-.614,3.751,0,5.759.93.32.146.942.46,1.57.745,2.326,1.052,1.69,3.774,2.356,4.412.7.665,3.109,1.27,3.673,2.4.295.59-.325.682-.943.772-.562.083-1.122.165-.982.624l.687.276-2.671,1.972c.071.265,2.966.809,3.12,1.423.043.169-.227.211-.536.266-.4.071-.87.163-.815.578,3.632.252,1.536,3.115-1.966,4.832a.606.606,0,0,1,.281.675c-.248,2.289,4.534,3.86,4.534,3.86Z" transform="translate(-1433.488 -4858.144) rotate(8)" fill="#fff"/>
      <path id="Union_40" data-name="Union 40" d="M2908.065,5350.6c0-.849.45-1.533,1.008-1.533a.711.711,0,0,1,.336.095V5346h.661l.011,4.771h-.011c-.056.767-.479,1.362-1,1.362C2908.515,5352.133,2908.065,5351.449,2908.065,5350.6Zm-3.016,0c0-.849.45-1.533,1.008-1.533a.712.712,0,0,1,.336.095V5346h3.015v1.022h-2.344v3.748h-.011c-.056.767-.479,1.362-1,1.362C2905.5,5352.133,2905.05,5351.449,2905.05,5350.6Z" transform="translate(-99.293 -5700.956) rotate(22)" fill="#fff"/>
    </g>
  </g>
</svg>
