<svg xmlns="http://www.w3.org/2000/svg" width="29.592" height="26.566" viewBox="0 0 29.592 26.566">
  <path id="Union_18" data-name="Union 18" d="M28.415,26.561l-.027,0-.027,0-.026,0-.026-.005-.026-.005-.026-.006-.025-.007-.025-.008-.025-.008-.025-.009-.025-.009-.024-.01-.024-.01-.023-.011-.023-.011-.023-.012-.023-.013-.022-.013-.022-.014-.021-.014-.021-.015-.021-.015-.02-.016-.02-.016-.02-.017-.019-.017-.019-.018-.018-.018-.018-.018-.017-.019-.017-.019-.016-.019-.016-.02-.016-.02-.015-.021-.015-.021-.014-.022-.014-.022L27.6,26.03l-.013-.023-.012-.023-.012-.023-.011-.024-.01-.024-.01-.024-.009-.024-.009-.025-.008-.025-.007-.025-.007-.025-.006-.026-.006-.026-.005-.026,0-.026,0-.027q0-.013,0-.027t0-.027,0-.027,0-.028,0-.028V14.448H24.13v.035l0,.02,0,.02,0,.02,0,.02,0,.019,0,.019,0,.02,0,.02,0,.019,0,.019,0,.02,0,.02,0,.019,0,.019,0,.02,0,.02,0,.02,0,.02,0,.02,0,.02,0,.02,0,.02,0,.02,0,.02,0,.02,0,.02,0,.02,0,.02,0,.02,0,.02,0,.02,0,.02,0,.02,0,.02,0,.02,0,.02,0,.02,0,.02,0,.02,0,.02,0,.02,0,.02,0,.02,0,.02,0,.02,0,.02,0,.02,0,.02,0,.02,0,.02,0,.02,0,.02,0,.02,0,.02,0,.02,0,.02,0,.02,0,.02,0,.02,0,.02,0,.02,0,.02,0,.02,0,.02,0,.02,0,.02,0,.02,0,.02,0,.02,0,.02,0,.02,0,.02,0,.019,0,.019,0,.02,0,.02,0,.02,0,.02,0,.02,0,.02,0,.019,0,.019,0,.02,0,.02,0,.019,0,.019,0,.019,0,.019,0,.019,0,.019,0,.02,0,.02,0,.019,0,.019,0,.019,0,.019,0,.019,0,.019,0,.019,0,.019,0,.019,0,.019,0,.019,0,.019,0,.019,0,.019,0,.019,0,.019,0,.019,0,.019,0,.019,0,.019-.005.019-.005.019-.005.019-.005.019,0,.019-.005.019-.005.019-.005.019,0,.019-.005.019-.005.019-.005.019-.005.018-.005.019-.005.019-.005.019-.005.019-.005.019-.005.019-.005.019-.006.018-.006.019-.006.019-.006.018-.005.019-.006.019-.006.019L23.6,17.2l-.006.018-.006.019-.006.019-.006.019-.006.018-.006.019-.006.019-.006.019-.006.019-.006.019-.006.019-.006.019-.006.018-.006.019-.006.019L23.5,17.5l-.006.018-.006.019-.006.019-.006.019-.007.018-.006.019-.006.019-.007.018-.006.019-.007.019-.007.019-.007.019-.006.018-.007.019-.007.019L23.4,17.8l-.007.018-.007.019-.007.019-.007.018-.007.019-.007.019-.007.019-.007.019-.007.019-.007.019L23.324,18l-.007.019-.007.019-.007.019-.007.019-.007.019-.007.019-.007.019-.007.019-.007.019-.007.018-.007.019-.007.019-.007.018-.007.018-.007.018-.007.018-.007.018-.007.018-.007.017-.007.017-.007.017-.007.018-.007.018-.007.018-.007.018-.007.018-.007.017-.007.017-.007.017-.007.018-.007.018-.007.018-.007.018-.007.018-.008.017-.008.017-.008.017-.008.018-.008.018-.008.018-.008.018-.008.017-.008.017L23,18.786l-.008.017-.008.018-.008.018-.008.018-.008.018-.008.017-.008.017-.008.017-.008.017-.008.017-.008.017-.008.017-.008.017-.008.017-.008.017-.008.017-.009.017-.008.017-.008.017-.008.017-.008.017-.009.017-.008.017L22.8,19.2l-.009.017-.008.017-.009.017-.009.017-.009.017-.008.017-.009.017-.009.017-.009.017-.008.017-.009.017L22.7,19.4l-.009.017-.009.016-.009.017-.009.017-.009.016-.009.017-.009.017-.009.017-.009.017-.009.016-.009.017-.009.017-.009.016-.009.017-.009.017-.009.017-.009.016-.009.017-.009.017-.009.016-.009.016-.009.017-.009.017-.009.017-.009.017-.009.016-.009.016-.009.016-.009.016-.009.017-.009.017-.009.016-.009.016-.01.016-.01.016L22.37,20l-.01.016-.009.017-.01.017-.01.016-.01.016-.009.016-.01.016-.01.016-.01.016-.01.016-.01.016-.01.016-.01.016-.01.016-.01.016-.01.016-.01.016-.01.016-.01.016-.01.016-.01.016-.01.016-.01.016-.01.016-.01.016-.01.016-.01.016-.01.016-.01.016-.01.016-.01.016-.01.016-.01.016-.01.016-.01.016-.01.016-.01.016-.01.016-.01.016-.01.016-.01.016-.01.016-.011.016-.011.016-.011.016-.01.015-.011.015-.011.015-.011.015-.01.016-.011.015-.011.015-.011.015-.011.016-.011.015-.011.015-.011.015-.011.016-.011.016-.011.016-.011.016-.011.015-.011.015-.011.015-.011.016-.011.015-.011.015-.011.015-.011.015-.011.015-.011.015-.011.015-.011.015-.012.015-.012.015-.012.015-.012.015-.011.015-.011.015-.011.015-.011.015-.012.015-.012.015-.012.015-.012.015-.012.015-.012.015-.012.015-.012.015-.012.014-.012.015-.012.015-.012.015-.012.014-.012.015-.012.015-.012.015-.012.014-.012.015-.012.015-.012.015-.012.014-.012.015-.012.015-.012.015-.012.014-.012.014-.012.014-.012.014-.012.015-.012.015-.012.015-.012.015-.012.014-.012.014-.012.014-.013.015-.012.014-.012.014-.012.014-.012.014-.012.014-.012.014-.012.014-.012.014-.012.014-.012.014-.012.014-.012.014-.013.014-.013.014-.013.014-.013.014-.013.014-.013.014-.013.014-.013.014-.012.014-.013.014-.013.014-.013.014-.013.014-.013.014-.013.014-.013.014-.012.014-.013.014-.013.014-.013.014-.013.014-.013.014-.013.014-.013.014-.013.014-.013.014-.013.014-.013.014-.013.014-.013.014-.013.014-.013.014-.013.014-.013.014-.013.014-.013.014-.013.013-.013.013-.013.013-.013.013-.014.014-.014.013-.014.013-.014.013-.013.013-.013.013-.013.013-.014.013-.014.013-.014.013-.014.013-.014.013-.014.013-.014.013-.014.013-.014.013-.014.013-.014.013-.014.013-.014.013-.014.013-.014.013-.014.013-.014.013-.014.013-.014.013-.014.013-.014.013-.014.013-.014.013-.014.013L20,22.928l-.014.013-.014.013-.014.013-.014.012-.014.013L19.913,23l-.014.013-.014.012-.014.012-.014.012-.014.012-.014.012-.014.012L19.8,23.1l-.014.012-.014.013-.014.012-.014.012-.014.012-.014.012-.014.012-.014.012-.014.012-.014.012-.014.012-.014.012-.014.012-.014.012-.014.012-.014.012-.014.012-.014.012-.014.012-.014.012-.014.012-.015.012-.014.012-.014.012-.014.012-.015.012-.014.012-.015.012-.015.012-.014.012-.015.012-.015.012-.015.012-.015.012-.014.011-.015.011-.015.011-.015.011-.014.011-.015.011-.015.011L19.2,23.6l-.015.011-.015.011-.015.011-.015.011-.015.011-.015.011-.015.011-.015.011-.014.011-.015.011-.015.011-.015.011-.015.011-.015.011-.015.011-.015.011-.015.011-.015.011-.015.011-.015.011-.015.011-.015.011-.015.011-.015.011-.015.011-.015.011-.015.011-.015.011-.015.011-.015.011-.015.011-.015.011-.015.01-.015.01-.015.01-.015.01-.015.01-.015.01-.015.01-.015.01-.015.01-.015.01-.015.01-.015.01-.016.01-.016.01-.016.01-.016.01-.015.01-.015.01-.015.01-.016.01-.016.01-.016.01-.016.01-.016.01-.016.01-.016.01-.016.01-.016.01-.016.01-.016.01-.016.01-.016.01-.016.01-.016.01-.016.01-.016.01-.016.009-.016.009-.016.009-.016.009-.016.009-.016.009-.016.009-.016.009-.016.009-.016.009-.016.009-.016.009-.016.009-.016.009-.016.009-.016.009-.016.009-.016.009-.016.009-.016.009-.016.009-.016.009-.016.009-.016.009-.016.009-.016.009-.016.009-.016.009-.016.009-.016.009-.016.009-.016.009-.016.009-.016.009-.016.009-.016.009-.016.008-.016.008-.016.008-.016.008-.016.009-.016.009-.016.009-.016.008-.016.009-.016.008-.016.008-.016.009-.017.009-.017.008-.016.008-.016.009-.017.008-.017.008-.016.008-.016.008-.017.008-.017.008-.017.008-.017.008-.016.009-.017.008-.017.008-.016.008-.017.008-.017.008-.017.008-.016.008-.017.008-.017.008-.017.008L17,24.936l-.017.008-.017.008-.017.008-.017.008-.017.008-.017.008-.017.008L16.864,25l-.017.008-.017.008-.017.008-.017.008-.017.008-.017.008-.017.008-.018.008-.017.007-.017.007-.017.007-.018.007-.018.008-.018.008-.018.007-.018.007-.017.007-.017.007-.017.007-.018.007-.018.007-.018.007-.018.007-.018.007-.018.007-.018.007-.018.007-.018.007-.018.007-.018.007-.018.007-.018.007-.018.007-.018.007-.018.007-.018.007-.018.007-.018.007-.018.007-.018.007-.018.007-.018.007-.018.007-.018.007-.018.006-.018.007-.018.007-.018.007L16,25.35l-.018.007-.018.007-.018.007-.018.006-.018.006-.018.006-.018.006-.018.006-.018.006-.018.006-.018.006-.018.006-.018.006-.018.006-.018.006-.018.006-.018.006-.018.006-.018.006-.018.006-.018.006-.018.006-.018.006-.018.006-.018.006-.018.006-.018.006-.018.006-.018.006-.018.006-.018.006-.018.005-.018.005-.018.005-.018.005-.018.005-.018.005-.018.005-.018.005-.018,0-.018.005-.018.005-.018.005-.018.005-.018.005-.018.005-.018.005-.018,0-.018,0-.018,0-.018,0-.018,0-.018.005-.018.005-.018,0-.018,0-.018,0-.018,0-.018,0-.018,0-.018,0-.018,0-.018,0-.018,0-.018,0-.018,0-.018,0-.018,0-.018,0-.018,0-.018,0-.018,0-.018,0-.018,0-.018,0-.018,0-.018,0-.018,0-.018,0-.018,0-.018,0-.018,0-.018,0-.018,0-.019,0-.019,0-.019,0-.018,0-.019,0-.019,0-.018,0-.019,0-.019,0-.019,0-.018,0-.019,0-.019,0-.019,0-.019,0-.018,0-.019,0-.019,0-.018,0-.019,0-.019,0-.019,0-.019,0-.018,0-.019,0-.019,0-.019,0-.018,0-.019,0-.019,0-.018,0-.019,0-.019,0-.019,0-.019,0-.018,0-.019,0-.019,0-.018,0-.019,0-.019,0-.019,0-.018,0-.019,0-.019,0-.019,0-.019,0-.018,0-.018,0-.019,0-.019,0-.018,0-.018,0-.018,0-.018,0-.019,0-.019,0-.018,0-.018,0-.019,0-.019,0-.018,0-.018,0-.019,0-.019,0-.019,0-.019,0-.019,0-.019,0-.019,0-.019,0h-.019l-.019,0-.019,0h-.019l-.019,0-.019,0h-1.9l-.019,0-.019,0h-.019l-.019,0-.019,0h-.019l-.019,0-.019,0-.019,0-.019,0-.019,0-.019,0-.019,0-.019,0-.018,0-.018,0-.018,0-.018,0-.019,0-.019,0-.018,0-.018,0-.019,0-.019,0-.018,0-.018,0-.018,0-.019,0-.019,0-.018,0-.018,0-.019,0-.019,0-.019,0-.018,0-.019,0-.019,0-.018,0-.019,0-.019,0-.019,0-.019,0-.018,0-.019,0-.019,0-.019,0-.018,0-.019,0-.019,0-.018,0-.019,0-.019,0-.019,0-.019,0-.018,0-.019,0-.019,0-.019,0-.018,0-.019,0-.019,0-.018,0-.019,0-.019,0-.019,0-.018,0-.019,0-.019,0-.019,0-.018,0-.019,0-.019,0-.019,0-.018,0-.019,0-.019,0-.019,0-.019,0-.018,0-.018,0-.018,0-.018,0-.018,0-.018,0-.018,0-.018,0-.018,0-.018,0-.018,0-.018,0-.018,0-.018,0-.018,0-.018,0-.018,0-.018,0-.018,0-.018,0-.018,0-.018,0-.018,0-.018,0-.018,0-.018,0-.018,0-.018,0-.018,0-.018-.005-.018-.005-.018,0-.018,0-.018,0-.018,0-.018,0-.018-.005-.018-.005L8.975,25.6,8.957,25.6l-.018-.005-.018-.005L8.9,25.584l-.018,0-.018-.005-.018-.005-.018-.005-.018-.005-.018-.005-.018-.005-.018-.005-.018-.005L8.72,25.53,8.7,25.524l-.018-.006-.018-.006-.018-.006L8.629,25.5,8.61,25.5l-.018-.006-.018-.006-.018-.006-.018-.006-.018-.006L8.5,25.461l-.018-.006-.018-.006-.018-.006-.018-.006-.018-.006-.018-.006-.018-.006-.018-.006-.018-.006L8.321,25.4,8.3,25.394l-.018-.007-.018-.006-.018-.006-.018-.007-.018-.006L8.2,25.355l-.018-.006-.018-.007-.018-.007-.018-.006-.018-.006-.018-.007L8.07,25.31,8.052,25.3,8.035,25.3l-.018-.007L8,25.283l-.018-.007-.018-.007-.018-.007-.018-.007-.018-.007-.018-.007-.018-.007-.018-.007-.018-.007-.018-.007L7.8,25.207,7.786,25.2l-.018-.007-.018-.007-.018-.007-.018-.007L7.7,25.164l-.018-.007-.018-.007-.017-.007-.017-.007-.017-.007-.018-.007-.017-.007-.017-.007L7.541,25.1l-.017-.008-.017-.007-.017-.007-.017-.007-.017-.007-.017-.008-.017-.008L7.4,25.037l-.017-.008-.017-.008-.017-.008-.017-.008L7.317,25,7.3,24.991l-.017-.008-.017-.008-.017-.008-.017-.008-.017-.008L7.2,24.944l-.017-.008-.017-.008-.017-.008-.017-.008L7.115,24.9,7.1,24.9l-.017-.008-.017-.008-.016-.008-.017-.008-.017-.008L7,24.848l-.016-.009-.017-.008-.017-.008-.016-.008-.016-.008L6.9,24.8l-.017-.008-.016-.008-.016-.008-.017-.009-.017-.008L6.8,24.75l-.016-.008-.017-.009-.017-.008-.016-.008-.016-.009L6.7,24.7l-.016-.009-.016-.009-.016-.009-.016-.009-.016-.008L6.6,24.647l-.016-.009-.016-.009-.016-.009-.016-.009L6.524,24.6l-.016-.009-.016-.009-.016-.009-.016-.009-.016-.009-.016-.009-.016-.009L6.4,24.533l-.016-.009-.016-.009-.016-.009L6.333,24.5l-.016-.009L6.3,24.479l-.016-.009-.016-.009-.016-.009-.016-.009-.016-.009-.016-.009-.016-.009L6.173,24.4l-.016-.009-.016-.009-.016-.009-.016-.009-.016-.009-.016-.009-.016-.009-.016-.009-.016-.009-.016-.009L6,24.3l-.016-.01-.016-.01-.016-.01-.016-.01-.016-.01-.016-.01-.016-.01-.016-.01-.016-.01-.015-.01-.015-.01-.016-.01-.016-.01-.016-.01-.016-.01-.016-.01-.016-.01-.016-.01-.016-.01-.016-.01-.015-.01-.015-.01-.015-.01-.016-.01-.015-.01L5.6,24.04l-.015-.01-.015-.01-.015-.01L5.535,24l-.015-.01-.015-.01-.015-.01-.015-.01-.015-.01-.015-.011-.015-.011-.015-.011L5.4,23.9l-.015-.011-.015-.011-.015-.011-.015-.011-.015-.011-.015-.011-.015-.011-.015-.011-.015-.011L5.249,23.8l-.015-.011-.015-.011L5.2,23.764l-.015-.011-.015-.011-.015-.011-.015-.011-.015-.011L5.115,23.7,5.1,23.686l-.015-.011-.015-.011-.015-.011-.015-.011-.015-.011-.015-.011L5,23.608,4.981,23.6l-.014-.011-.015-.011-.015-.011-.015-.011-.015-.012-.015-.012-.015-.012-.015-.012-.014-.012-.015-.012-.015-.012-.014-.012-.015-.012-.014-.012-.014-.012-.014-.012L4.733,23.4l-.014-.012L4.7,23.378l-.014-.012-.014-.012-.014-.012-.014-.012-.014-.012-.014-.012L4.6,23.3l-.014-.012-.014-.012-.014-.012-.014-.012-.014-.012-.014-.012-.014-.012L4.492,23.2l-.014-.012-.014-.012-.014-.012-.014-.012-.014-.012-.014-.012-.014-.013L4.38,23.1l-.014-.012-.014-.012-.014-.012-.014-.012-.014-.012L4.3,23.03l-.014-.012L4.269,23l-.014-.012-.014-.012-.014-.012-.014-.012L4.2,22.943l-.014-.012-.014-.013L4.158,22.9l-.014-.013-.014-.012-.014-.013L4.1,22.854l-.014-.013-.014-.013-.014-.013L4.048,22.8l-.014-.013-.014-.013-.014-.013-.014-.013-.014-.013-.014-.013-.014-.013L3.939,22.7l-.014-.013-.014-.013L3.9,22.659l-.014-.013-.014-.013-.014-.013-.013-.013-.013-.013-.013-.013L3.8,22.567l-.013-.013-.013-.013-.013-.013-.013-.014L3.738,22.5l-.013-.013-.013-.013L3.7,22.46l-.013-.014-.013-.014-.013-.014-.013-.014-.013-.014-.013-.014-.013-.014-.013-.014-.013-.014-.013-.014-.013-.014L3.541,22.3l-.013-.014-.013-.014L3.5,22.256l-.013-.014-.013-.014-.013-.014L3.451,22.2l-.013-.014-.013-.014-.013-.014L3.4,22.145l-.013-.014-.013-.014L3.362,22.1l-.013-.014-.013-.014-.013-.014-.013-.014L3.3,22.033l-.013-.014-.012-.014-.013-.014-.013-.014-.013-.014-.012-.014-.012-.014L3.2,21.92l-.013-.014-.012-.014-.012-.014-.012-.014-.012-.014-.013-.014-.012-.014L3.1,21.807l-.012-.014-.012-.015-.012-.014-.012-.014-.012-.014-.012-.015-.012-.015L3,21.691l-.012-.015-.012-.014-.012-.014-.012-.014-.012-.014L2.93,21.6l-.012-.015-.012-.015-.012-.014-.012-.015-.012-.015-.012-.015L2.847,21.5l-.012-.015-.012-.015-.012-.015L2.8,21.443l-.012-.015-.012-.015L2.765,21.4l-.012-.014-.012-.015-.012-.015-.012-.015-.012-.015L2.7,21.309l-.012-.015-.012-.015-.012-.015-.012-.015-.012-.015-.012-.015L2.615,21.2,2.6,21.188l-.011-.015-.011-.015-.011-.015-.011-.015-.011-.015L2.536,21.1l-.011-.015-.011-.015L2.5,21.051l-.011-.015-.011-.015-.011-.016-.011-.015-.011-.015-.011-.015-.011-.016-.011-.016L2.4,20.913,2.392,20.9l-.011-.015-.011-.015-.011-.015-.01-.016-.011-.015-.011-.015-.011-.015-.011-.016-.011-.015-.011-.015-.011-.015-.01-.015L2.253,20.7l-.011-.016-.011-.016-.011-.016-.01-.016L2.2,20.62,2.19,20.6l-.01-.016-.01-.016-.01-.016-.01-.016-.011-.016-.01-.016-.01-.016-.01-.016-.01-.016-.01-.016-.01-.016-.01-.016-.01-.016-.01-.016-.01-.016-.01-.016-.01-.016-.01-.016L2,20.306l-.01-.016-.01-.016-.01-.016-.01-.016-.01-.016-.01-.016-.01-.016-.01-.016-.01-.016-.01-.016-.01-.016-.01-.016-.01-.016-.01-.016-.01-.016-.01-.016-.01-.017-.009-.017L1.811,20,1.8,19.982l-.009-.016-.009-.016-.009-.016-.009-.016L1.754,19.9l-.009-.017-.009-.016-.009-.017-.009-.017-.009-.016L1.7,19.8l-.009-.017-.009-.017-.009-.016-.009-.016-.009-.017L1.642,19.7l-.009-.016-.009-.017-.009-.017-.009-.017L1.6,19.619,1.587,19.6l-.009-.017-.009-.017-.009-.016-.009-.017-.009-.017L1.534,19.5l-.009-.017-.009-.016-.009-.017L1.5,19.437l-.009-.016L1.481,19.4l-.008-.017-.008-.017-.009-.017-.009-.017-.008-.017L1.43,19.3l-.009-.017-.009-.017L1.4,19.252,1.4,19.235l-.009-.017L1.379,19.2l-.009-.017-.009-.017-.009-.017-.008-.017-.008-.017L1.328,19.1l-.008-.017-.008-.017L1.3,19.046l-.008-.017-.008-.017-.008-.017-.008-.017-.008-.017-.008-.017-.008-.017-.008-.017-.008-.017-.008-.017-.008-.018-.008-.018L1.2,18.821,1.189,18.8l-.008-.017-.008-.017-.008-.017-.008-.017-.008-.018L1.142,18.7l-.008-.018-.008-.018-.007-.017-.008-.017L1.1,18.613,1.1,18.595l-.007-.018-.007-.018-.007-.018-.007-.018-.007-.017-.007-.017-.007-.017-.007-.018-.007-.018-.007-.018L1.015,18.4l-.007-.018L1,18.368.993,18.35l-.007-.017-.007-.018L.972,18.3.965,18.28l-.007-.018L.95,18.245l-.007-.018-.007-.019-.007-.019-.007-.018-.007-.019-.007-.019L.9,18.115.892,18.1l-.007-.019-.007-.019L.871,18.04l-.007-.019L.856,18l-.007-.019-.007-.019-.007-.019-.007-.019-.007-.019L.814,17.89l-.007-.019L.8,17.853l-.007-.019-.007-.019L.78,17.8l-.006-.019-.007-.019L.76,17.741l-.007-.018L.747,17.7.74,17.684l-.006-.019-.007-.019-.007-.018-.006-.019-.006-.019L.7,17.572.7,17.554l-.006-.019-.006-.019L.676,17.5.67,17.479.664,17.46l-.006-.019-.006-.018L.645,17.4l-.006-.019-.006-.019-.006-.019-.006-.019L.615,17.31l-.006-.019L.6,17.273.6,17.254l-.006-.019-.006-.019L.58,17.2l-.006-.019L.569,17.16l-.006-.019-.006-.019L.552,17.1l-.005-.019-.005-.019-.005-.018L.531,17.03l-.005-.019L.52,16.993l-.005-.019-.005-.019L.5,16.936.5,16.918.493,16.9.487,16.88l-.005-.019-.005-.019,0-.019L.467,16.8l-.005-.019-.005-.019-.005-.019,0-.019-.005-.019L.436,16.69l0-.019,0-.019-.005-.019-.005-.019,0-.019,0-.019,0-.019,0-.019,0-.019,0-.019,0-.019,0-.019,0-.019,0-.019,0-.019,0-.019,0-.019,0-.019,0-.019,0-.019,0-.019,0-.02,0-.02,0-.019,0-.019,0-.019,0-.019,0-.019,0-.019,0-.02,0-.02,0-.019,0-.019,0-.02,0-.02,0-.02,0-.02,0-.02,0-.02,0-.019,0-.019,0-.02,0-.02,0-.02,0-.02,0-.02,0-.02,0-.02,0-.02,0-.02,0-.02,0-.02,0-.02,0-.02,0-.02,0-.02,0-.02,0-.02,0-.02,0-.02,0-.02,0-.02,0-.02,0-.02,0-.02,0-.02,0-.02,0-.02,0-.02,0-.02,0-.02,0-.02,0-.02,0-.02,0-.02,0-.02,0-.02,0-.02,0-.02,0-.02,0-.02,0-.02,0-.02,0-.02,0-.02,0-.02,0-.02,0-.02,0-.02,0-.02,0-.02,0-.02,0-.02,0-.02,0-.02,0-.02,0-.02,0-.02,0-.02,0-.019,0-.019,0-.02,0-.02,0-.019,0-.019,0-.02,0-.02,0-.019,0-.019,0-.02,0-.02,0-.02,0-.02,0-.02,0-.02,0-.02,0-.02v-.04l0-.02,0-.02v-.24q0-.01,0-.02v-.06q0-.01,0-.02v-.04q0-.01,0-.02t0-.02v-.04q0-.01,0-.02v-.2q0-.01,0-.02t0-.02v-.04q0-.01,0-.02t0-.02,0-.02,0-.02,0-.02,0-.02,0-.02,0-.02,0-.02,0-.02v-.079H0q0-.015,0-.03t0-.029,0-.029,0-.029,0-.03,0-.029l0-.029.005-.029L.03,13.02l.007-.028.007-.028.008-.028.009-.027.009-.027.01-.027.011-.027L.1,12.8l.012-.026.013-.025.013-.025L.154,12.7l.014-.024.015-.024L.2,12.632l.016-.023.017-.023.017-.022.018-.022.018-.021L.3,12.5l.019-.021.019-.02.02-.019.021-.019L.4,12.4l.021-.018.022-.017.022-.017.023-.016.023-.016L.537,12.3l.024-.015.024-.014.025-.014.025-.013.025-.013.026-.012.026-.012L.738,12.2l.027-.01.027-.009.027-.009.027-.008.028-.007L.9,12.148l.028-.006.028-.006.029,0,.029,0,.029,0,.029,0,.03,0H21.993l-.006-.052-.006-.052-.007-.052-.007-.052-.007-.053-.008-.053-.008-.053-.008-.053-.008-.053-.008-.053-.009-.053-.009-.052-.009-.053-.01-.053-.01-.053-.01-.052-.01-.053-.01-.052-.011-.052-.011-.052-.012-.052-.012-.052-.012-.052-.012-.052-.012-.053-.013-.052-.013-.052-.013-.052L21.71,10.6l-.014-.052-.014-.052-.014-.052-.014-.051-.015-.051-.015-.051-.015-.051-.015-.051-.016-.051-.016-.051-.016-.051-.016-.05-.016-.05-.016-.05-.017-.05-.017-.049-.017-.049-.017-.049-.017-.049L21.4,9.586l-.018-.049-.018-.049-.018-.049-.019-.049L21.3,9.342l-.019-.049-.019-.049-.02-.048-.02-.048-.02-.048-.02-.048L21.166,9l-.021-.048-.021-.048L21.1,8.862l-.021-.047-.021-.047L21.04,8.72l-.022-.047L21,8.626l-.022-.047-.022-.047-.022-.047-.023-.046-.023-.046-.023-.046L20.836,8.3l-.024-.046-.024-.046-.024-.046-.024-.046-.025-.046-.025-.046-.025-.045-.026-.045-.025-.045-.026-.045L20.562,7.8l-.026-.045-.026-.045-.026-.045-.027-.044-.027-.044L20.4,7.533l-.027-.044-.028-.044L20.32,7.4l-.028-.044-.028-.043-.029-.043-.029-.043-.029-.043-.029-.043L20.119,7.1l-.03-.043-.029-.043-.03-.043L20,6.93l-.03-.042-.03-.042L19.909,6.8l-.031-.041-.031-.041-.031-.041-.031-.041L19.754,6.6l-.032-.041-.031-.04-.032-.04-.032-.04-.032-.04-.032-.04-.033-.04L19.5,6.279l-.033-.039L19.43,6.2,19.4,6.162l-.034-.038-.034-.038L19.3,6.047l-.034-.038-.034-.038-.034-.038L19.159,5.9l-.035-.037-.035-.037-.035-.037-.035-.037-.035-.036-.035-.036-.036-.036L18.878,5.6l-.036-.036-.036-.036-.036-.036-.037-.035L18.7,5.425l-.037-.035-.037-.035-.037-.035-.037-.034-.037-.034-.038-.034-.038-.034L18.4,5.152l-.038-.033-.038-.033-.039-.033-.039-.033-.039-.033-.039-.033-.039-.032-.039-.032-.039-.032-.039-.032L17.97,4.8l-.04-.031-.04-.031L17.85,4.7l-.041-.031-.041-.031-.041-.031-.041-.031-.041-.03L17.6,4.52l-.042-.03-.042-.03-.042-.029L17.434,4.4l-.043-.029-.043-.029-.043-.028-.043-.028L17.22,4.26l-.043-.028-.04-.026-.04-.026-.041-.025-.041-.025-.041-.025-.041-.025-.041-.024-.041-.024-.041-.024-.041-.024-.041-.023-.041-.023-.041-.023L16.6,3.893l-.042-.023-.041-.022,0,.009,0,.009,0,.009,0,.009,0,.009,0,.009,0,.009,0,.009,0,.009,0,.009,0,.009,0,.009,0,.009,0,.009,0,.009,0,.009.009.029.009.029.009.029.008.029.008.029.008.029.008.029.007.029.007.029.007.029.007.029.007.03.007.029.006.03.006.03.006.03.006.029.006.029.006.029.005.029.005.03.005.03,0,.03,0,.03,0,.03,0,.03,0,.03,0,.03,0,.03,0,.03,0,.03,0,.03,0,.03,0,.03,0,.03,0,.03,0,.03,0,.03,0,.03,0,.03q0,.015,0,.03t0,.03V5.3q0,.015,0,.03t0,.03q0,.015,0,.03t0,.03q0,.016,0,.031t0,.031q0,.015,0,.031t0,.03V5.6q0,.015,0,.03t0,.03l0,.03,0,.03,0,.03,0,.03,0,.03,0,.03,0,.03,0,.03,0,.03,0,.03,0,.03,0,.03,0,.03,0,.03,0,.03,0,.03,0,.03,0,.03-.005.03-.005.03L16.7,6.3l-.006.029-.006.029-.006.03-.006.029-.006.029-.006.029-.007.029-.007.03-.007.029-.007.029-.007.029-.007.029-.008.029-.008.029-.008.029-.008.029-.009.029-.009.029-.009.029-.008.029-.009.029-.009.029-.009.029L16.521,7l-.01.028-.01.028-.01.028-.01.028-.011.028-.011.028-.011.028-.011.028-.011.028-.011.028-.011.028-.012.027-.012.027-.012.027-.012.027-.012.027-.012.027-.012.026-.012.026-.013.026-.013.026L16.27,7.6l-.013.026-.013.026-.013.026-.013.026-.014.025-.014.026-.014.026-.014.025-.014.025-.014.025-.014.025-.014.025-.015.025-.015.025-.015.025L16.045,8l-.015.025-.016.024L16,8.078l-.016.024-.016.024-.016.024-.016.024-.016.024-.017.024-.016.024-.017.024-.017.023-.017.023-.017.024-.017.023-.017.023-.018.023-.018.022-.018.023-.018.023-.018.022-.018.023-.018.023-.019.022-.019.022L15.6,8.61l-.019.022-.019.022-.019.022-.02.022-.02.022-.02.021-.02.021-.02.022-.02.021-.02.021-.02.021-.02.02-.021.021-.021.021-.021.02-.021.02-.021.02-.021.02-.021.02-.022.02-.021.02-.021.019-.022.02-.022.019-.022.019-.022.019-.022.018-.022.019L15,9.2l-.022.018-.022.018-.023.018-.023.018-.023.018-.023.017-.023.018-.023.017-.023.017-.023.017-.024.017-.024.017-.024.016-.024.016-.024.016-.024.016-.024.016L14.58,9.5l-.024.015-.024.015-.024.015-.024.015-.025.015-.025.015-.025.015-.025.014-.025.014-.025.014-.025.014-.026.014-.025.014-.025.014-.025.014-.025.013-.026.013-.026.013-.026.013-.026.013-.026.013-.026.012L14,9.824l-.026.012-.026.012-.026.012-.026.012-.026.012-.028.012-.028.012-.028.011-.028.011-.028.011-.028.011-.028.011-.028.011-.028.01-.028.01-.028.01-.028.01-.028.009-.028.009-.028.009-.028.009-.028.009-.028.009-.028.009-.028.008-.029.008-.029.008-.029.008-.029.008-.029.007-.029.007-.029.007-.029.007-.029.007-.029.006-.029.006-.029.006-.029.006-.029.006-.029.006-.029.005-.029.005-.029,0-.029,0-.029,0-.03,0-.029,0-.029,0-.03,0-.029,0-.03,0-.03,0-.03,0-.029,0-.03,0-.03,0-.03,0-.03,0-.03,0-.03,0-.03,0h-.479l-.03,0-.03,0-.03,0-.03,0-.03,0-.029,0-.029,0-.03,0-.03,0-.029,0-.029,0-.03,0-.029,0-.029,0-.029,0-.029,0-.03,0-.029,0-.029,0-.029-.005-.029-.005-.029-.006-.029-.006-.029-.006-.029-.006-.029-.006-.029-.006-.029-.007-.029-.007L10.9,10.13l-.029-.007-.029-.007-.028-.008-.028-.008-.028-.008-.028-.008-.029-.008-.029-.009-.029-.009-.028-.009-.028-.009-.028-.009-.028-.009-.028-.009L10.468,10l-.028-.01-.028-.01-.028-.01-.028-.011-.028-.011L10.3,9.941l-.028-.011-.028-.011-.028-.011L10.189,9.9l-.028-.012-.027-.012-.027-.012-.026-.012-.026-.012-.026-.012L10,9.812,9.977,9.8l-.026-.013-.026-.013L9.9,9.761l-.026-.013-.025-.013-.026-.013L9.8,9.708l-.025-.014-.025-.014-.025-.014L9.7,9.652l-.025-.014-.025-.014-.025-.014L9.6,9.595,9.572,9.58l-.024-.015L9.524,9.55,9.5,9.534l-.024-.015L9.45,9.5l-.024-.016L9.4,9.472l-.024-.016L9.355,9.44l-.024-.016-.024-.016L9.284,9.39l-.023-.017-.024-.017-.023-.017-.023-.017L9.168,9.3l-.023-.017-.023-.018L9.1,9.252l-.023-.018-.022-.018L9.032,9.2,9.01,9.18l-.022-.019-.022-.018-.022-.019L8.923,9.1,8.9,9.086l-.022-.02-.022-.019-.022-.02-.022-.02-.021-.02-.021-.02-.021-.02-.021-.02-.021-.02-.021-.021-.021-.021-.02-.02-.02-.021L8.607,8.8l-.02-.021-.02-.022-.02-.021-.02-.021L8.507,8.7l-.02-.022-.019-.022-.019-.022L8.43,8.61l-.019-.022-.019-.022-.019-.022-.019-.023L8.337,8.5l-.018-.022L8.3,8.453l-.018-.023-.018-.022-.018-.023L8.23,8.362l-.017-.023L8.2,8.315l-.017-.023-.017-.023-.017-.024-.016-.024L8.112,8.2,8.1,8.174,8.079,8.15l-.016-.024L8.047,8.1l-.016-.024-.016-.024L8,8.029,7.985,8,7.97,7.979l-.015-.025L7.941,7.93,7.926,7.9,7.911,7.88,7.9,7.855,7.882,7.83,7.868,7.8l-.014-.025L7.84,7.753l-.014-.026L7.813,7.7,7.8,7.677l-.013-.026-.013-.026L7.76,7.6l-.013-.026-.013-.026-.012-.026L7.71,7.495,7.7,7.468l-.012-.027-.012-.027-.012-.027L7.65,7.361l-.012-.027-.012-.027-.011-.028L7.6,7.251l-.011-.028L7.581,7.2l-.011-.028-.01-.028L7.55,7.11l-.01-.028-.011-.028-.01-.028L7.51,7,7.5,6.968l-.009-.028-.009-.029-.009-.029-.009-.029-.009-.029L7.447,6.8l-.009-.029L7.43,6.738l-.008-.029-.008-.029L7.407,6.65,7.4,6.621l-.007-.029-.007-.029-.007-.029L7.371,6.5l-.006-.029-.006-.029-.006-.029-.006-.03-.006-.029-.006-.03L7.33,6.3l0-.03-.005-.03,0-.03,0-.03,0-.03,0-.03,0-.03,0-.03,0-.03,0-.03,0-.03,0-.03,0-.03,0-.03,0-.03,0-.03,0-.03,0-.03,0-.03,0-.03q0-.015,0-.03V5.605q0-.015,0-.031t0-.031v-.03q0-.015,0-.031t0-.031q0-.015,0-.031t0-.03q0-.015,0-.03t0-.03V5.3q0-.016,0-.031t0-.031V5.176q0-.015,0-.03l0-.03,0-.03,0-.03,0-.03,0-.03,0-.03,0-.03,0-.03,0-.03,0-.03,0-.03,0-.03,0-.03,0-.03,0-.03,0-.03,0-.03,0-.03.005-.03,0-.03.005-.03.006-.03.006-.029.006-.03L7.359,4.4l.006-.029.006-.03.007-.029.007-.029.007-.029.007-.03.008-.029.008-.029.008-.029.008-.029.008-.029.009-.029.009-.029.009-.029.009-.029.009-.029L7.491,3.9,7.5,3.876l.01-.028.01-.028.01-.028.011-.028.01-.028.01-.028.01-.028.011-.028.011-.028L7.6,3.593l.011-.028.011-.028.012-.027.012-.027.012-.027.012-.027L7.685,3.4,7.7,3.377,7.71,3.35l.013-.026L7.735,3.3l.013-.026.013-.026.013-.026.013-.026L7.8,3.168l.013-.026.014-.026.014-.026.014-.025.014-.025.014-.026L7.9,2.989l.014-.025.014-.025.015-.025.015-.025.015-.025.015-.025L8,2.816l.016-.024.016-.024.016-.024.016-.024.016-.024L8.1,2.671l.017-.024.017-.024L8.145,2.6l.017-.024.017-.023L8.2,2.529l.017-.023.017-.023.018-.023.018-.023.018-.023L8.3,2.391l.018-.023.018-.022.018-.022L8.374,2.3l.019-.022.019-.022.019-.022.019-.022.019-.022.019-.022.02-.022.02-.022.02-.021.02-.021.02-.022.02-.021.02-.021L8.647,2l.021-.02.021-.021.021-.021.021-.02.021-.02.021-.02.021-.02.022-.02.021-.02.021-.02.022-.019L8.9,1.758l.022-.019.022-.019L8.966,1.7l.022-.018.022-.019.022-.018.022-.018.022-.018L9.1,1.592l.023-.018.023-.018.023-.018.023-.017L9.215,1.5l.023-.017.024-.017.023-.017.023-.017.024-.016L9.356,1.4l.024-.016L9.4,1.372l.024-.016.024-.016.024-.016L9.5,1.309l.024-.015.024-.015.024-.015L9.6,1.249l.025-.015.025-.014.025-.015L9.7,1.191l.025-.014.025-.014.025-.014L9.8,1.136l.026-.014.026-.014L9.874,1.1,9.9,1.083l.026-.013.026-.013.026-.013L10,1.032l.026-.012.026-.012L10.082,1l.026-.012.026-.012L10.162.96l.028-.012.027-.011.027-.011.028-.011L10.3.9l.028-.011.028-.011.028-.011.028-.01.028-.01.028-.01.028-.01.028-.009.028-.009L10.579.8l.028-.009.028-.009.028-.009.028-.009L10.721.76,10.75.752l.029-.008.029-.008.028-.007.029-.007.029-.007.029-.007L10.951.7,10.98.694l.029-.006.029-.006.029-.006L11.1.67l.029-.006.029-.006.029-.006.029,0,.029,0,.029,0,.029,0,.03,0,.029,0,.029,0,.03,0,.029,0,.03,0,.03,0,.03,0,.03,0,.03,0,.03,0,.03,0,.03,0,.03,0,.03,0,.03,0h.565l0,0,0,0,0,0,0,0,0,0,0,0,0,0,0,0,0,0,0,0v0l0,0,0,0v0h.762l.019,0,.019,0h.037l.019,0,.018,0H13.2l.019,0,.019,0,.018,0,.018,0,.018,0,.018,0,.018,0,.018,0,.018,0,.018,0L13.4.6l.018,0,.018,0,.018,0,.018,0,.018,0,.018,0,.018,0,.018,0,.018,0,.018,0,.018,0,.018,0,.018,0,.018,0,.018,0,.018,0,.018,0,.018,0,.018,0,.018,0,.018,0,.018,0,.018,0,.018,0,.018,0,.018,0,.018,0,.018,0,.018,0,.018,0,.018,0,.018,0,.018,0,.018,0,.018,0,.018,0,.018,0L14.1.7l.019,0,.019,0,.018,0,.018,0,.018,0,.018,0,.018,0,.018,0,.018,0,.018,0,.018,0,.018,0,.018,0,.018,0,.018,0,.018,0,.018,0,.018,0,.018,0,.018,0,.018,0,.018,0,.018,0,.018,0,.018,0,.018,0,.018,0,.018,0,.018,0,.018,0,.018,0,.018,0,.018,0,.018,0,.018,0,.018,0,.018,0,.018,0,.018,0,.018,0,.018,0,.018,0,.018,0,.018,0,.018,0,.018,0,.018,0,.018,0,.018,0,.018,0,.018,0,.018,0,.018,0,.018.005.018.005.018,0,.018,0,.018,0,.018,0,.018,0,.018,0,.018,0,.018,0,.018.005.018.005.018.005.018,0,.018.005.018.005L15.36.99l.018,0L15.4,1l.018.005.018.005.018.005.018.005.018.006.018.006.018.006.018.005.018.006.018.006.018.006.018.006.018.006.018.006.018.006.018.006L15.7,1.1l.018.006.018.006.018.006.018.006.018.006.018.006.017.006.017.006.017.006.017.006.018.006.018.006.018.006.018.006.018.006.018.006L16,1.2l.018.006.017.006.017.006.017.006.017.007.018.006.018.007.018.007.018.007.018.007.018.006.018.006.018.007.017.007.017.007.017.007.018.007.018.007.018.007.018.007.018.007.017.007.017.007.017.007.018.007.017.007.017.007.017.007L16.5,1.4l.018.007.017.007.017.007.017.007.017.007.017.007.017.007.017.007.017.007.017.007.017.007.017.007.017.008.017.008.017.008.017.008.017.008.017.008.017.008.017.008.017.008.017.008.017.008.017.008.016.007.016.007.017.007.017.007L17,1.614l.016.008.016.008.016.008.016.007.016.008.016.008.016.008.016.008.016.008.016.008.016.008.017.008.017.008.016.008.016.008.016.008.016.008.016.008.016.009.016.008.016.008.016.008.016.008.016.008.016.008.016.008.016.008.016.008.016.009.016.009.016.009.016.008.016.009.016.009.016.009.016.008.016.009.016.009.016.009.016.009.016.009.016.009.016.009.016.009.016.009L17.745,2,17.761,2l.016.009.016.009.016.009.016.009.016.009.016.009.016.009.016.009.016.009.016.009.016.009.016.009.016.009.016.009L18,2.141l.016.009.015.009.015.009.015.009.016.009.016.009.016.009.016.009.016.009.016.009.015.01.015.01.015.01.016.009.016.009.016.009.016.009.015.009.015.01.015.01.016.01.015.01.015.01.015.01.016.01.015.01.015.01.015.01.015.01.015.01.015.01.015.01.015.01.015.01.015.01.015.01.015.01.015.01.015.01.015.01.015.01.015.011.015.011.015.011.015.011.015.01.015.01.015.01.015.011.015.01.015.01.015.01.015.01.015.011.015.011.015.011.015.011.015.011.015.011.015.011.015.011.015.01.015.011.015.011.015.011L19,2.806l.015.011.015.011.015.011.015.011.015.011.015.011.015.011.015.011.015.011.015.011.015.011.015.011.015.011.015.011.015.011.015.011L19.253,3l.015.011.015.011.014.012.014.012.014.012.015.012.014.011.014.011.014.011.014.011.014.012.015.012.015.012.014.012.014.012.014.012.014.012.014.012.014.012.014.012.014.012.014.012.014.012.014.012.014.012.014.012.014.012.014.012.014.012.014.012.014.012.014.012.014.012.014.012.014.012.014.012.014.012.014.012.014.012.013.012.013.012.013.012.014.012.014.012.014.012.014.012.013.012.013.012.013.012.014.012.013.012.013.012.013.012L20,3.631l.014.012.013.012.013.012.013.012.014.013.013.012.013.012.013.012.014.013.014.013.014.013.014.012.013.013.013.013.013.013.013.013.013.013.013.013.013.013.013.013.013.013.013.013.013.013.014.013.013.013.013.013.013.013.013.013L20.391,4l.013.013.013.013.013.013.013.014.013.014.013.014.013.014.013.013.013.013.013.013.013.014.013.014.013.014.013.014.013.014.013.014.013.014.013.014.013.014.013.014.013.014.013.014.013.014.013.013.013.013.013.014.013.014.013.014.013.014.013.014.013.014.013.014.013.014.013.014.013.014.012.014.012.014.012.014.012.014.012.014.012.014.012.014.012.014.012.014.012.014.012.014L21,4.649l.012.014.012.014.012.014.012.014.012.014.012.014.012.014.012.014.012.014.012.014.012.014.012.015.012.014.012.014.012.014.012.014.012.015.012.014.012.014.012.014.012.015.012.015.012.015.012.015.012.014.012.015.012.015.012.015.012.014.012.015.012.015.012.014.012.015.012.015.012.015.012.014.012.015.012.015.012.015.012.015.011.014.011.014.011.014.011.015.011.014.011.015.011.015.011.015.011.014.011.015.011.015L21.6,5.4l.011.015.011.015.011.015.011.015.011.015.011.015.011.015.011.015.011.015.011.015.011.015.011.015.011.015.011.015.011.015.011.016.01.015.011.015.011.015.011.016.011.015.011.015.011.015.011.016.01.015.011.015.011.015.011.016.01.016.011.016.011.016.011.016.01.016.01.016.01.016.01.016L22,5.968l.01.016.01.016.01.016.01.016.01.016.01.016.01.016.01.016.01.016.01.016.01.016.01.016.01.016.01.016.01.016.01.016.01.016.01.016.01.016.01.016.01.016.01.016.01.016.01.016.01.016.01.016.01.016.009.016.009.016.009.016.009.016.01.016.01.016.01.016.009.016.009.016.009.016.009.016.009.016.009.016.009.016.009.016.009.016.009.016.009.016.009.016.009.016.009.016.009.017.009.017.009.016.009.016.009.016.009.016.009.016.009.017.009.017.009.016.009.016.009.017.009.017.009.017.009.017L22.617,7l.009.016.009.017.009.017.009.016.009.016.009.017.009.017.008.016.009.017.009.017.009.017.008.016.009.017.009.017.009.017.008.017.008.017.008.017.008.017.008.017.008.017.008.017.008.017.008.017.008.017.008.017.008.017.008.017.008.017.008.017.008.017.009.017.008.017.008.017.008.017.008.017.008.017.008.017.008.017.008.017.008.017.008.017.008.017.008.017.008.017L23,7.775l.008.017.008.017.008.017.008.017.007.018.008.017.008.017.008.017.007.017.008.017.008.017.008.017L23.1,8l.007.018.007.017.007.017.007.017.007.018.007.018.007.018.007.018.007.018.007.018.007.018.007.018.007.018.007.018.007.018.007.018.007.018.007.018.007.018.007.018.007.018.007.018.007.018.007.018.007.018.007.018.007.018.007.018.007.018.007.018.007.018.007.018.007.018.007.018.007.018.007.018.007.018.007.018.007.018.007.018.007.018.007.018.007.019.006.019.007.018.007.018.007.019.006.019.007.018.007.019.007.019.006.018.006.019.006.019.006.019.006.019.006.019.006.019.006.019.006.019.006.019.006.019.006.019.006.019.006.018.006.019.006.019.006.019.006.019.006.019.006.019.006.019.006.019.006.019.006.019.006.019.006.019.006.019.006.019.006.019.006.019.006.019.006.019.006.019.005.019.005.019.005.019.005.019,0,.019.005.019.005.019.005.019.005.019.005.019.005.019.005.019,0,.019.005.019.005.019,0,.019,0,.019.005.019.005.019,0,.019.005.019.005.019,0,.019,0,.019,0,.019,0,.019,0,.019,0,.019,0,.019,0,.019,0,.019,0,.019,0,.019,0,.019,0,.019,0,.019,0,.019,0,.019,0,.019,0,.019,0,.019,0,.019,0,.019,0,.019,0,.019,0,.019,0,.019,0,.019,0,.019,0,.019,0,.019,0,.019,0,.019,0,.019,0,.019,0,.019,0,.019,0,.019,0,.019,0,.019,0,.019,0,.019,0,.019,0,.019,0,.018,0,.019,0,.019,0,.019,0,.019,0,.019,0,.019,0,.019,0,.019,0,.019,0,.019,0,.019,0,.019,0,.019,0,.019,0,.019,0,.019,0,.019,0,.02,0,.02,0,.019,0,.019,0,.02,0,.02,0,.019,0,.019,0,.019,0,.019,0,.02,0,.02,0,.02,0,.02,0,.019,0,.019,0,.02,0,.02,0,.02,0,.02,0,.02,0,.02,0,.02,0,.02,0,.02,0,.02,0,.02,0,.02,0,.02,0,.02,0,.02,0,.02,0,.02,0,.02,0,.02,0,.02,0,.02,0,.02,0,.02,0,.02,0,.02,0,.02,0,.02,0,.02,0,.02,0,.02,0,.02,0,.02,0,.02,0,.02v.028h3.327V1.068q0-.014,0-.027t0-.027,0-.027,0-.027,0-.027l0-.027,0-.026.005-.026.006-.026L27.491.8,27.5.776,27.5.751l.008-.025L27.522.7l.009-.024.01-.024.01-.024.011-.023.012-.023L27.586.56,27.6.537l.013-.022.014-.022.014-.022L27.654.45,27.669.43l.016-.02L27.7.389l.016-.019L27.734.35l.017-.019.018-.018L27.788.3l.019-.017.019-.017.02-.017.02-.016.02-.016L27.907.2l.021-.015.021-.014.022-.014.022-.013.023-.013.023-.012.023-.012.023-.011.024-.01.024-.01.025-.009.025-.008.025-.008.025-.008.025-.007.026-.006L28.31.022l.026,0,.026,0,.027,0,.027,0,.027,0,.027,0h.11l.027,0,.027,0,.027,0,.027,0,.026,0,.026,0,.026.006.026.006.025.007.025.008.025.008.025.008.025.009.024.01.024.01.023.011.023.012.023.012.023.013.022.013L29.1.169l.022.014L29.143.2l.021.015.02.016.02.016.019.017.019.017L29.261.3l.018.018L29.3.332l.017.019.017.019.017.019.016.02.015.02L29.4.45l.015.021.014.022.014.022.013.022.013.023.012.023.011.023L29.5.629l.01.024.01.024L29.528.7l.009.025.008.025.008.025L29.559.8l.006.026.006.026.005.026,0,.026,0,.027q0,.013,0,.027t0,.027,0,.027,0,.027,0,.027V25.5q0,.014,0,.028t0,.028,0,.027,0,.027,0,.027l0,.027,0,.026-.005.026-.006.026-.006.026-.007.025-.008.025-.008.025-.009.025-.009.024-.01.024-.01.024-.011.024-.011.023-.012.023-.013.023-.013.022-.014.022-.014.022-.015.021-.015.021-.015.02-.016.02-.017.019-.017.019-.017.019-.018.018-.018.018-.019.018-.019.017-.019.017-.02.016-.02.016-.021.015-.021.015L29.1,26.4l-.022.014-.022.013-.023.013-.023.012-.023.011-.023.011-.024.01-.024.01-.025.009-.025.009-.025.008-.025.008-.025.007-.026.006-.026.005-.026.005-.026,0-.027,0-.027,0-.027,0-.027,0h-.11l-.027,0ZM2.162,14.473l.006.067.007.066.007.066.008.066L2.2,14.8l.008.066.009.066L2.224,15l.01.066.01.066.01.066.01.066.011.065.011.065.012.065.012.065.013.065.013.065.013.065.014.065.014.064.014.064.015.064.015.064.016.064.016.064.016.064.017.064.017.064.017.064.018.064.018.064.019.063.019.063.019.063.02.063.02.063.021.063.021.063.021.063.021.062.022.062.022.062L2.8,17.3l.023.062.024.062.024.062.024.062.024.059.024.059.024.059L3,17.789l.025.058.025.058.026.058.026.058.026.058.027.058.027.058.027.058.027.057.028.057.028.057.028.056.029.057.029.056.029.056.03.056.03.055.03.055.03.055.03.055.031.055.032.055.032.054.032.054.033.054.033.054.033.054.034.053.033.053.034.053.034.053.034.052.035.052.035.052.036.052.036.051.036.051.036.051.037.051.037.051.037.05.037.05.038.05.038.05.038.049.039.049.039.049.039.049.04.049.04.048.04.048.04.048.041.048.041.048.041.047.042.047.042.047.042.047L5,20.9l.043.046.043.046.043.046.043.045.044.045.044.045.044.044.045.044.045.043.045.043.045.043.045.043.046.042.046.042.046.042.046.041.046.041.047.041.047.04.047.04.047.04.048.04.048.039.048.039.048.039.048.038.048.038.049.037.049.037.049.037.049.037.049.036.049.036.05.036.05.035.05.035.05.035.051.034.051.034.051.034.051.033.051.034.051.033.052.032.052.032.052.032.052.031.052.031.052.031.053.03.053.03.053.03.053.029.053.029.054.029.054.029.055.028.054.028.054.027.054.027.055.027.055.026.055.026.055.026.055.026.058.026.058.025.058.025.058.025.058.025.058.024.058.023.058.023.059.023.059.022.059.022.059.022.059.021.059.02.059.02.059.02.059.019.059.019.059.019.06.018.06.018.06.017.06.017.06.017.06.016.06.016.06.015.06.015.06.015.061.014.061.014.061.014.061.013.061.012.061.012.061.012.061.011.061.011.061.01.062.01.061.01.061.009.061.009.062.008.062.008.062.008.062.007.062.007.062.006.062.006.062.006.062.005.062,0,.062,0,.062,0,.062,0,.063,0,.063,0,.063,0,.063,0,.062,0h.377l.063,0,.063,0,.063,0,.063,0,.062,0,.062,0,.063,0,.063,0,.062,0,.062-.005.062-.006.062-.006.062-.006.062-.007L13.215,24,13.276,24l.062-.008.062-.008.062-.009.062-.009.062-.01.061-.01.061-.01.061-.011.061-.011.061-.012.061-.012.061-.012.061-.013.06-.014.061-.014.061-.014.06-.015.06-.015.06-.015.06-.016.06-.016.06-.017.06-.017.06-.017.06-.018.06-.018.06-.019.06-.019.06-.019.059-.02.059-.02.059-.02.059-.021.059-.022.059-.022.059-.022.058-.023.059-.023.058-.023.058-.024.058-.025.058-.025.058-.025.058-.025.058-.026.055-.026.055-.026.055-.026.055-.026.055-.027.055-.027.055-.027.054-.028.054-.028.054-.029.054-.029.053-.029.053-.029.053-.03.053-.03.053-.03.053-.031.052-.031.052-.031.052-.032.052-.032.052-.032.052-.033.051-.034L17.3,22.5l.051-.034.051-.034.051-.034.051-.035.05-.035.05-.035.05-.036.05-.036.049-.036.049-.037.049-.037.049-.037.049-.037L18,21.994l.048-.038.048-.039.048-.039.047-.039.047-.04.047-.04.047-.04.047-.04.047-.041.046-.041.046-.041.046-.042.046-.042.045-.042.045-.043.045-.043.045-.043.045-.043.044-.044.044-.044.044-.045.044-.045.044-.045.044-.046.043-.046.043-.046.042-.046.042-.047.042-.047.042-.047.041-.047.041-.048.041-.048.04-.048.04-.048.04-.048.04-.049.039-.049.039-.049.039-.05.039-.05.038-.05.038-.05.038-.05.037-.05.037-.051.037-.051.036-.051.036-.051.036-.052.035-.052.035-.052.035-.052.035-.052.034-.053.034-.053.033-.053L20.4,19.3l.033-.053.033-.053.032-.053.032-.054.032-.054.032-.054.031-.055.031-.055.031-.055.03-.055.03-.055.03-.056.029-.056.029-.056.029-.056.029-.056.028-.057.028-.057.028-.057L21,18.2l.027-.058.027-.058.026-.058.026-.058.026-.058.025-.058.025-.058.025-.059.025-.059.024-.059.024-.059.024-.062.024-.062.024-.062.023-.062.022-.062.022-.062.022-.062.022-.062.021-.063.021-.063.02-.063.02-.063.02-.063.019-.063.019-.063.018-.063.018-.064.018-.064.017-.064.017-.064.017-.064.016-.064.016-.064.016-.064.015-.064.015-.064.014-.064.014-.064.013-.065.013-.065.013-.065.013-.065.012-.065.012-.065.011-.065.011-.065.011-.066.01-.066.01-.066.01-.066.009-.066.009-.066.008-.066.008-.066L22,14.672l.007-.066.007-.066.006-.067v-.024H2.16v.024ZM11.918,2.6H11.74l-.018,0-.018,0-.018,0-.018,0-.018,0-.018,0-.018,0-.017,0-.017,0-.017,0-.018,0-.018,0-.018,0-.018,0-.017,0-.017,0-.017,0-.017,0-.017,0-.017,0-.017,0-.017,0-.017,0-.017,0-.017,0-.017,0-.017,0-.017,0-.017,0-.017,0-.017,0-.017,0-.017,0-.017,0-.017.005-.017.005-.017.005-.017.005-.017.006-.017.006-.017.006-.017.006L11,2.772l-.017.006-.017.006-.017.006-.016.007-.017.007L10.9,2.81l-.016.006-.016.007-.016.007-.016.007-.016.007-.016.007-.016.007-.015.007-.015.007-.016.007-.015.007-.015.007L10.7,2.9l-.015.007-.015.008-.015.008-.015.008-.015.008-.015.008-.015.008-.014.008-.015.009-.015.008-.015.008L10.519,3l-.015.009-.015.009-.015.009-.015.009-.014.009-.014.009-.014.009-.014.009-.014.009-.014.009-.014.009-.014.009-.014.01-.014.01-.014.01-.014.01-.014.01-.014.01-.014.01-.014.011-.013.01-.013.01-.013.01-.013.01-.014.011-.013.011-.013.011-.013.011-.013.011-.013.011-.013.011-.013.011-.013.011-.013.011-.013.012-.013.012-.012.012-.012.012L9.994,3.4l-.012.012-.012.012-.012.012-.012.012-.012.012-.012.012-.012.012L9.9,3.5l-.012.013-.011.012-.011.012-.011.012-.011.012-.011.013-.011.013L9.808,3.6,9.8,3.612l-.011.013-.011.013-.011.013-.011.013-.01.013-.01.013-.01.013-.01.013L9.7,3.73l-.01.014-.01.014-.01.014-.01.014-.01.014-.01.014-.01.014-.009.014-.009.014-.009.014L9.6,3.881,9.587,3.9l-.009.014-.009.014-.009.014-.009.014-.009.015-.009.015L9.525,4l-.009.014-.008.015L9.5,4.039l-.009.014-.008.015-.008.015L9.467,4.1l-.008.015-.007.015-.007.015-.007.015-.007.015-.007.015L9.415,4.2l-.007.015L9.4,4.235l-.007.015-.007.015-.007.015L9.373,4.3l-.007.016-.007.016-.007.016-.007.016-.006.016-.006.016-.006.016-.006.016-.006.016-.006.016L9.3,4.475,9.3,4.491l-.005.016-.005.017-.005.017-.005.016-.005.017-.005.017,0,.017,0,.017,0,.017,0,.017,0,.017,0,.017,0,.017,0,.017,0,.017,0,.017,0,.017,0,.017,0,.017,0,.017,0,.017,0,.017,0,.017,0,.017,0,.017,0,.017,0,.017,0,.017,0,.017,0,.017,0,.017,0,.017,0,.017,0,.017,0,.017,0,.017,0,.017,0,.017v.175q0,.009,0,.018t0,.018,0,.018,0,.018,0,.018,0,.018,0,.018,0,.018v.069q0,.009,0,.017v.087l0,.017,0,.017,0,.017,0,.017,0,.017,0,.017,0,.017,0,.017,0,.017,0,.017,0,.017,0,.017,0,.017,0,.017,0,.017,0,.017,0,.017,0,.017,0,.017,0,.017,0,.017L9.22,6l0,.017,0,.017,0,.017,0,.017,0,.017,0,.017,0,.017,0,.017,0,.016,0,.017.005.017.005.016.005.017.005.017.005.017.005.017.006.016.006.016.006.016.006.016.006.016.006.016.006.016.006.016.007.016.007.016.007.016.007.016.007.016.007.016.007.016.007.016.007.015.007.015.007.015.007.016.007.015.007.015.007.015.007.015.008.015.008.015.008.015.008.015.009.014.008.015.008.015.009.014.008.014.009.015.009.015.009.014.009.014.009.014.009.014.009.014.009.014.009.014.009.014.009.014.01.014.01.014.01.014.01.014L9.682,7l.01.013.01.013.01.013.01.014.01.013.01.013.01.013.011.013.011.013.011.013.011.013.011.013.011.013.011.013.011.012.011.013.011.013.011.013.011.012L9.9,7.26l.012.012.012.012.012.012.012.012.012.012.012.012.012.012.012.012.012.012.012.012.012.012.013.012.013.012.013.012.013.012.013.011.013.011.013.011.013.011.013.011.013.011.013.011.014.01.013.011.013.011.013.011.013.01.014.01.014.01.014.01.014.01.014.01.014.01.014.01.014.01.014.009.014.009.014.009.014.009.014.009.014.009.014.009.014.009.015.009.015.009.015.009.015.009.014.009.015.008.015.008.015.008.014.009.015.008.015.008.015.008.015.008.015.008.015.008.015.008.015.007.015.007.015.007.016.007.015.007.015.007.016.007.016.007.016.007.016.007.016.007.016.006.016.007.017.007.017.007.016.006.017.007.017.006L11,7.986l.017.006L11.033,8,11.05,8l.017.006.017.006.017.005.017.005.017.005.017,0,.017.005.017.005.017,0,.017,0,.017,0,.017,0,.017,0,.017,0,.017,0,.017,0,.017,0,.017,0,.017,0,.017,0,.017,0,.017,0,.017,0,.017,0,.017,0,.017,0,.018,0,.018,0,.018,0,.018,0,.017,0,.017,0,.017,0,.018,0,.018,0,.018,0,.018,0,.018,0,.018,0,.018,0h.5l.018,0,.018,0,.018,0,.018,0,.018,0,.018,0,.018,0,.018,0,.018,0,.018,0,.018,0,.018,0,.018,0,.018,0,.017,0,.017,0,.017,0,.018,0,.017,0,.017,0,.017,0,.017,0,.017,0,.017,0,.017,0,.017,0,.017,0,.017,0,.017,0,.017,0,.017,0,.017,0,.017-.005.017-.005.017,0,.017-.005.017-.005.017-.005.017-.006L12.929,8,12.946,8l.017-.006.017-.006L13,7.98l.016-.006.016-.007.017-.006.017-.007.016-.007.016-.007.016-.006.016-.007.016-.007.016-.007.016-.007.016-.007.016-.007.016-.007.016-.007.015-.008.015-.008.015-.008.015-.008.015-.008.015-.008.015-.008.015-.008.015-.008.015-.008.015-.008.015-.009.015-.008.015-.008.015-.009.015-.009.014-.009.014-.009.014-.009.015-.009.014-.009.014-.009.014-.009.014-.009.014-.009.014-.009.014-.009.014-.01.014-.01.014-.01.014-.01L13.7,7.6l.014-.01.014-.01.014-.01.014-.011.013-.011.013-.011.013-.011.013-.011L13.82,7.5l.013-.011.013-.011.013-.011.013-.011.013-.011.013-.011.012-.012.012-.012.012-.012.012-.012.013-.012.012-.012.012-.012L14,7.345l.012-.012.012-.012.012-.012.012-.012.012-.012.012-.012.012-.012.012-.012.012-.012.012-.013.012-.013.012-.013.011-.012.011-.013.011-.013.011-.013.011-.013.011-.013.011-.013.01-.013.011-.013.01-.013.01-.013.01-.014.01-.013.01-.013L14.3,7l.01-.014.01-.014.01-.014.01-.014.009-.014.009-.014.009-.014.009-.014.009-.014.009-.014.009-.014.009-.014.009-.014.009-.014.009-.015.009-.015.008-.014.009-.014.008-.015.008-.015.008-.014.008-.015.008-.015.008-.015.008-.015.008-.015.008-.015.008-.015.008-.015.007-.016.007-.015.007-.015.007-.015.007-.016.007-.016.007-.016.007-.016.007-.016.007-.016.007-.016.006-.016.007-.016.006-.016.006-.016.006-.016.006-.016L14.67,6.3l.006-.016.006-.016.006-.017.006-.017.005-.017,0-.017.005-.016.005-.017,0-.017,0-.016,0-.017,0-.017,0-.017,0-.017,0-.017,0-.017,0-.017,0-.017,0-.017,0-.017,0-.017,0-.017,0-.017,0-.017,0-.017,0-.017,0-.017,0-.017,0-.017,0-.017,0-.017,0-.017,0-.017,0-.017,0-.017,0-.017,0-.017,0-.017,0-.017,0-.017V5.45q0-.009,0-.018t0-.018,0-.018,0-.018,0-.018,0-.018,0-.018,0-.018V5.134l0-.017,0-.017,0-.017,0-.017,0-.017,0-.017,0-.017L14.8,5l0-.017,0-.017,0-.017,0-.017,0-.017,0-.017,0-.017,0-.017,0-.017,0-.017,0-.017,0-.017,0-.017,0-.017,0-.017,0-.017,0-.017,0-.017,0-.017,0-.017,0-.017,0-.017,0-.017,0-.017-.005-.017L14.7,4.557l0-.016-.005-.017-.006-.017-.006-.016-.006-.016-.006-.016-.006-.016-.006-.016-.006-.016-.006-.016-.006-.016-.007-.016-.006-.016-.007-.016-.007-.016L14.605,4.3,14.6,4.281l-.007-.015-.007-.015-.007-.015-.007-.015L14.564,4.2l-.007-.015-.007-.015-.008-.015-.008-.015-.008-.015-.008-.015L14.51,4.1,14.5,4.084l-.008-.015-.008-.015-.008-.014-.008-.015-.008-.015L14.453,4l-.008-.014-.009-.015-.009-.015-.009-.014-.009-.014L14.4,3.91,14.392,3.9l-.009-.014-.009-.014-.009-.014-.009-.014-.009-.014-.009-.014-.01-.014-.01-.014-.01-.014-.01-.014-.01-.014-.01-.014-.01-.014-.01-.013-.01-.013-.01-.013-.011-.013-.01-.013L14.2,3.637l-.011-.013-.011-.013L14.171,3.6l-.011-.013-.011-.013-.011-.013-.012-.012-.012-.012L14.1,3.523l-.012-.012L14.08,3.5l-.012-.012-.012-.012-.012-.012-.012-.012-.012-.012-.012-.012L14,3.413,13.985,3.4l-.012-.012-.012-.012-.013-.012-.012-.012-.012-.012-.012-.012L13.9,3.32l-.013-.011L13.872,3.3l-.013-.011-.013-.011-.013-.011-.013-.011-.013-.011-.013-.011-.013-.01-.013-.01-.013-.01-.014-.011-.014-.01-.014-.01L13.7,3.16l-.014-.01-.014-.01-.014-.01-.014-.01-.014-.01L13.618,3.1,13.6,3.092l-.014-.009-.014-.009-.014-.009-.014-.009-.014-.009-.015-.009L13.5,3.027l-.014-.009-.014-.009L13.461,3l-.015-.009-.015-.009-.015-.009L13.4,2.966l-.015-.008-.015-.008-.015-.008-.015-.008-.015-.008-.015-.008L13.3,2.91,13.281,2.9l-.015-.007-.015-.007-.015-.007-.016-.007L13.2,2.865l-.016-.007-.016-.007-.016-.007-.016-.007-.016-.007-.016-.007-.016-.007-.016-.006L13.062,2.8,13.045,2.8l-.017-.007-.016-.006L13,2.778l-.017-.006-.017-.006-.017-.006-.017-.006-.017-.006L12.9,2.743l-.017-.005-.017-.005-.017-.005-.017-.005-.017,0-.017,0-.017,0-.017,0-.017,0-.017,0-.017,0-.017,0-.017,0-.017,0-.017,0-.017,0-.017,0-.017,0-.017,0-.017,0-.018,0-.017,0-.017,0-.017,0-.018,0-.018,0-.018,0-.018,0-.018,0-.018,0-.018,0-.018,0-.018,0-.018,0-.018,0-.018,0-.018,0-.018,0h-.322Z" fill="#f64361"/>
</svg>
