<svg xmlns="http://www.w3.org/2000/svg" width="38.103" height="32.067" viewBox="0 0 38.103 32.067">
  <g id="Zoology" transform="translate(15.551 -452.966)">
    <path id="Union_23" data-name="Union 23" d="M2.6,32.066,0,29.342l8.689-9.218,1.37,0,.487-.5A11.77,11.77,0,0,1,9.4,17.948a12.212,12.212,0,0,1-1.4-3.916,12.6,12.6,0,0,1,.7-6.8,11.877,11.877,0,0,1,2.417-3.78A11.139,11.139,0,0,1,14.7.912,10.618,10.618,0,0,1,19.009,0h.054a10.634,10.634,0,0,1,4.353.955,11.2,11.2,0,0,1,3.542,2.554A11.929,11.929,0,0,1,29.342,7.28a12.4,12.4,0,0,1,.858,3.993H26.773a8.663,8.663,0,0,0-.583-2.586,8.22,8.22,0,0,0-1.654-2.609A7.672,7.672,0,0,0,22.08,4.31a7.388,7.388,0,0,0-3.017-.655h-.027a7.357,7.357,0,0,0-3,.635,7.718,7.718,0,0,0-2.471,1.754A8.154,8.154,0,0,0,11.9,8.659a8.72,8.72,0,0,0,0,6.425A8.176,8.176,0,0,0,13.569,17.7a7.684,7.684,0,0,0,2.471,1.759,7.331,7.331,0,0,0,2.6.625,2.6,2.6,0,0,1,.8-3c1.039-.584,2.51.2,3.286,1.743s.567,3.274-.471,3.856a1.511,1.511,0,0,1-.752.195,3.161,3.161,0,0,1-2.535-1.937,4.592,4.592,0,0,1-.293-.735v3.539a10.609,10.609,0,0,1-1.645-.185,10.637,10.637,0,0,1-3.687-1.457,11.549,11.549,0,0,1-1.584-1.2l-.469.514v1.446L2.6,32.066h0Zm21.427-2.623a2.889,2.889,0,0,1-1.859-2.31c-.239-2.02,1.045-3.46,2.089-4.765.7-1.016,1.282-1.88,1.978-2.894a3.61,3.61,0,0,1,1.395-1.315,1.416,1.416,0,0,1,.262-.088,2.637,2.637,0,0,1,.629-.051,3.074,3.074,0,0,1,.62.042,1.326,1.326,0,0,1,.265.088A3.579,3.579,0,0,1,30.8,19.464c.7,1.015,1.284,1.88,1.978,2.894,1.043,1.3,2.326,2.747,2.08,4.775A2.91,2.91,0,0,1,33,29.443c-.582.139-2.44-.437-4.418-.437h-.142c-1.755,0-3.415.461-4.173.461A1.041,1.041,0,0,1,24.025,29.443Zm9.434-7.479c-1-.771-.938-2.679.146-4.257s2.78-2.236,3.785-1.465.94,2.679-.146,4.259a3.7,3.7,0,0,1-2.788,1.786A1.606,1.606,0,0,1,33.459,21.964ZM22.5,15.135c-.2-1.74.635-3.278,1.866-3.437s2.4,1.119,2.6,2.856-.633,3.279-1.866,3.438A1.606,1.606,0,0,1,24.89,18C23.738,18,22.694,16.773,22.5,15.135Zm8.053,2.514c-1.228-.205-2.012-1.773-1.753-3.5s1.464-2.966,2.691-2.76,2.01,1.774,1.751,3.5c-.241,1.6-1.293,2.782-2.422,2.782A1.727,1.727,0,0,1,30.556,17.649Z" transform="translate(-15.551 452.966)" fill="#40a74d"/>
  </g>
</svg>
